titillium_thin-upright.sfdir
StartChar: exclam
Encoding: 33 33 145
Width: 208
Flags: MW
HStem: 0 83<86 122 86 122>
VStem: 87 33.5
LayerCount: 2
Back
Fore
SplineSet
88 211 m 1
 86 700 l 1
 122 700 l 1
 119 211 l 1
 88 211 l 1
86 0 m 1
 86 83 l 1
 122 83 l 1
 122 0 l 1
 86 0 l 1
EndSplineSet
EndChar
StartChar: numbersign
Encoding: 35 35 150
Width: 560
Flags: MW
HStem: 0 21G<150 186 150 150 374 410 374 374> 190 32<30 150 30 150 186 374 410 530> 448 32<30 150 30 150 186 374 410 530>
VStem: 150 36<0 190 0 190 222 448 480 670> 374 36<0 190 0 190 222 448 480 670>
LayerCount: 2
Back
Fore
SplineSet
530 190 m 1
 410 190 l 1
 410 0 l 1
 374 0 l 1
 374 190 l 1
 186 190 l 1
 186 0 l 1
 150 0 l 1
 150 190 l 1
 30 190 l 1
 30 222 l 1
 150 222 l 1
 150 448 l 1
 30 448 l 1
 30 480 l 1
 150 480 l 1
 150 670 l 1
 186 670 l 1
 186 480 l 1
 374 480 l 1
 374 670 l 1
 410 670 l 1
 410 480 l 1
 530 480 l 1
 530 448 l 1
 410 448 l 1
 410 222 l 1
 530 222 l 1
 530 190 l 1
374 222 m 1
 374 448 l 1
 186 448 l 1
 186 222 l 1
 374 222 l 1
EndSplineSet
EndChar
StartChar: dollar
Encoding: 36 36 144
Width: 560
Flags: MW
HStem: -9 31<279.5 284 284 336> -6 21G<224 224> 637 32<234 283 283 286.5 224.5 303> 666 21G<340 340>
VStem: 94 36<450.5 547 450.5 556.5> 432 36<137 233>
LayerCount: 2
Back
Fore
SplineSet
455 652 m 1x9c
 452 622 l 1
 452 622 393 631 336 635 c 1
 301 356 l 1
 406 335 468 299 468 192 c 0
 468 65 410 -9 284 -9 c 0
 275 -9 266 -9 256 -8 c 1x9c
 243 -119 l 1
 210 -119 l 1
 224 -6 l 1
 163 -2 98 6 98 6 c 1
 102 36 l 1
 102 36 167 28 227 24 c 1
 265 329 l 1
 158 350 94 385 94 498 c 0
 94 615 166 669 283 669 c 0
 290 669 299 669 307 668 c 1x6c
 322 788 l 1
 355 788 l 1
 340 666 l 1
 397 661 455 652 455 652 c 1x9c
432 189 m 0
 432 277 382 308 297 324 c 1
 260 22 l 1
 284 22 l 2
 388 22 432 85 432 189 c 0
130 498 m 0
 130 403 181 379 269 362 c 1
 303 637 l 1
 283 637 l 2xac
 185 637 130 596 130 498 c 0
EndSplineSet
EndChar
StartChar: percent
Encoding: 37 37 252
Width: 560
Flags: MW
HStem: 0 32<395.5 445 395.5 450> 240 32<395.5 445> 430 32<114.5 164 114.5 169> 670 32<114.5 164>
VStem: 36 35<535 602.5 535 616.5> 207 35<534 602> 317 35<104.5 172.5 104.5 186.5> 488 35<104 172>
LayerCount: 2
Back
Fore
SplineSet
139 670 m 0
 90 670 71 636 71 569 c 0
 71 501 90 462 139 462 c 0
 189 462 207 500 207 568 c 0
 207 636 189 670 139 670 c 0
190 6 m 1
 334 701 l 1
 367 696 l 1
 223 1 l 1
 190 6 l 1
36 569 m 0
 36 664 77 702 139 702 c 0
 200 702 242 664 242 568 c 0
 242 472 199 430 139 430 c 0
 78 430 36 472 36 569 c 0
317 139 m 0
 317 234 358 272 420 272 c 0
 481 272 523 234 523 138 c 0
 523 42 480 0 420 0 c 0
 359 0 317 42 317 139 c 0
352 139 m 0
 352 70 371 32 420 32 c 0
 470 32 488 70 488 138 c 0
 488 206 470 240 420 240 c 0
 371 240 352 206 352 139 c 0
EndSplineSet
EndChar
StartChar: ampersand
Encoding: 38 38 247
Width: 634
Flags: MW
HStem: -9 34<194.5 301 194.5 305> -6 21G<590 590> 677 32<253.5 323.5>
VStem: 41 38<156 233> 146 38<534.5 598 521.5 609.5> 396 38<532.5 604.5> 483 35<329 329>
LayerCount: 2
Back
Fore
SplineSet
286 709 m 0xbe
 381 709 434 662 434 567 c 0
 434 498 421 418 279 366 c 1
 457 182 l 1
 474 231 481 280 483 329 c 1
 518 329 l 1
 516 280 505 205 483 156 c 1
 483 156 617 21 614 21 c 2
 590 -6 l 1x7e
 467 122 l 1
 423 28 352 -9 258 -9 c 0
 115 -9 41 65 41 208 c 0
 41 258 48 355 195 405 c 1
 151 462 146 504 146 565 c 0
 146 654 197 709 286 709 c 0xbe
259 25 m 0
 343 25 405 64 442 148 c 1
 221 377 l 1
 99 340 79 273 79 209 c 0
 79 103 130 25 259 25 c 0
184 565 m 0
 184 478 200 451 256 392 c 1
 361 430 396 476 396 567 c 0
 396 642 361 677 286 677 c 0
 221 677 184 631 184 565 c 0
EndSplineSet
EndChar
StartChar: quotesingle
Encoding: 39 39 229
Width: 179
Flags: MW
HStem: 486 212<73 106 73 73>
VStem: 72.5 34
LayerCount: 2
Back
Fore
SplineSet
106 486 m 1
 73 486 l 1
 72 698 l 1
 107 698 l 1
 106 486 l 1
EndSplineSet
EndChar
StartChar: parenleft
Encoding: 40 40 230
Width: 224
Flags: MW
HStem: -124 872<147 182 147 182>
VStem: 56 35<208 394 208 401>
LayerCount: 2
Back
Fore
SplineSet
147 748 m 1
 182 748 l 1
 182 748 91 487 91 301 c 0
 91 115 182 -124 182 -124 c 1
 147 -124 l 1
 147 -124 56 101 56 301 c 0
 56 501 147 748 147 748 c 1
EndSplineSet
Substitution2: "'case' Case-Sensitive Forms in Latin lookup 4 subtable" parenleft.cap
EndChar
StartChar: parenright
Encoding: 41 41 231
Width: 223
Flags: MW
HStem: -118 872<41 76 41 76>
VStem: 132 35<236 422>
LayerCount: 2
Back
Fore
SplineSet
76 -118 m 1
 41 -118 l 1
 41 -118 132 143 132 329 c 0
 132 515 41 754 41 754 c 1
 76 754 l 1
 76 754 167 529 167 329 c 0
 167 129 76 -118 76 -118 c 1
EndSplineSet
Substitution2: "'case' Case-Sensitive Forms in Latin lookup 4 subtable" parenright.cap
EndChar
StartChar: asterisk
Encoding: 42 42 248
Width: 405
Flags: MW
HStem: 519 34<221 356 221 356 219 356>
VStem: 58 298<458 519>
LayerCount: 2
Back
Fore
SplineSet
356 519 m 1
 219 519 l 1
 261 390 l 1
 229 380 l 1
 187 510 l 1
 77 431 l 1
 58 458 l 1
 168 538 l 1
 59 618 l 1
 79 645 l 1
 189 564 l 1
 231 693 l 1
 263 683 l 1
 221 553 l 1
 356 553 l 1
 356 519 l 1
EndSplineSet
EndChar
StartChar: comma
Encoding: 44 44 232
Width: 186
Flags: MW
HStem: -130 213<43 118 43 118>
VStem: 43 75
LayerCount: 2
Back
Fore
SplineSet
70 -130 m 1
 43 -130 l 1
 80 83 l 1
 118 83 l 1
 70 -130 l 1
EndSplineSet
EndChar
StartChar: hyphen
Encoding: 45 45 233
Width: 385
Flags: MW
HStem: 252 34<71 314 71 314>
VStem: 71 243<252 286 252 286>
LayerCount: 2
Back
Fore
SplineSet
71 252 m 1
 71 286 l 1
 314 286 l 1
 314 252 l 1
 71 252 l 1
EndSplineSet
EndChar
StartChar: period
Encoding: 46 46 234
Width: 178
Flags: MW
HStem: 0 83<71 107 71 107>
VStem: 71 36<0 83 0 83>
LayerCount: 2
Back
Fore
SplineSet
71 0 m 1
 71 83 l 1
 107 83 l 1
 107 0 l 1
 71 0 l 1
EndSplineSet
EndChar
StartChar: slash
Encoding: 47 47 385
Width: 360
Flags: MW
HStem: -1 21G<66 66>
VStem: 33 295
LayerCount: 2
Back
Fore
SplineSet
66 -1 m 1
 33 12 l 1
 295 700 l 1
 328 687 l 1
 66 -1 l 1
EndSplineSet
Substitution2: "'frac' Diagonal Fractions in Latin lookup 3 subtable" fraction
EndChar
StartChar: zero
Encoding: 48 48 414
Width: 560
Flags: MW
HStem: -9 33<194.5 362.5 194.5 376.5> 637 33<218.5 341>
VStem: 54 36<252.5 444.5 252.5 459> 469 36<243.5 444>
LayerCount: 2
Back
Fore
SplineSet
279 670 m 0
 419 670 505 603 505 317 c 0
 505 156 473 -9 280 -9 c 0
 91 -9 54 152 54 316 c 0
 54 602 145 670 279 670 c 0
279 637 m 0
 158 637 90 575 90 314 c 0
 90 191 109 24 280 24 c 0
 445 24 469 171 469 316 c 0
 469 572 403 637 279 637 c 0
EndSplineSet
Substitution2: "'frac' Diagonal Fractions in Latin lookup 1 subtable" zerosuperior
EndChar
StartChar: one
Encoding: 49 49 415
Width: 560
Flags: MW
HStem: 0 21G<333 369 333 333>
VStem: 333 36<0 618 618 618>
LayerCount: 2
Back
Fore
SplineSet
132 525 m 1
 338 661 l 1
 369 661 l 1
 369 0 l 1
 333 0 l 1
 333 618 l 1
 149 496 l 1
 132 525 l 1
EndSplineSet
Substitution2: "'frac' Diagonal Fractions in Latin lookup 1 subtable" onesuperior
EndChar
StartChar: two
Encoding: 50 50 444
Width: 560
Flags: MW
HStem: 0 33<117 492 117 492> 637 33<233.5 318.5>
VStem: 435 36<457 551.5>
LayerCount: 2
Back
Fore
SplineSet
492 0 m 1
 70 0 l 1
 70 30 l 1
 304 273 l 2
 385 358 435 413 435 501 c 0
 435 602 369 637 268 637 c 0
 199 637 80 611 80 611 c 1
 75 644 l 1
 75 644 186 670 269 670 c 0
 390 670 471 626 471 501 c 0
 471 406 422 345 340 261 c 2
 117 33 l 1
 492 33 l 1
 492 0 l 1
EndSplineSet
Substitution2: "'frac' Diagonal Fractions in Latin lookup 1 subtable" twosuperior
EndChar
StartChar: three
Encoding: 51 51 416
Width: 560
Flags: MW
HStem: -9 33<234 338.5 232 348.5> 333 33<160 290 290 291 160 290> 637 33<229 330.5>
VStem: 433 36<468 553> 452 36<128.5 238.5>
LayerCount: 2
Back
Fore
SplineSet
83 615 m 1xe8
 78 647 l 1
 78 647 184 670 274 670 c 0
 408 670 469 618 469 505 c 0xf0
 469 431 434 382 359 353 c 1
 434 333 488 301 488 182 c 0
 488 53 414 -9 283 -9 c 0
 185 -9 69 14 69 14 c 1
 75 47 l 1
 75 47 181 24 283 24 c 0
 394 24 452 78 452 179 c 0xe8
 452 298 378 328 291 333 c 1
 160 333 l 1
 160 366 l 1
 290 366 l 2
 344 366 433 409 433 506 c 0xf0
 433 600 386 637 275 637 c 0
 183 637 83 615 83 615 c 1xe8
EndSplineSet
Substitution2: "'frac' Diagonal Fractions in Latin lookup 1 subtable" threesuperior
EndChar
StartChar: four
Encoding: 52 52 445
Width: 560
Flags: MW
HStem: 0 165<88 382 88 418> 132 33<88 382 88 382 418 510>
VStem: 382 36<0 132 0 132 165 405>
LayerCount: 2
Back
Fore
SplineSet
382 0 m 1xa0
 382 132 l 1
 50 132 l 1
 50 161 l 1
 266 661 l 1
 304 661 l 1
 88 165 l 1
 382 165 l 1
 382 405 l 1
 418 405 l 1
 418 165 l 1
 510 165 l 1
 510 132 l 1
 418 132 l 1x60
 418 0 l 1
 382 0 l 1xa0
EndSplineSet
Substitution2: "'frac' Diagonal Fractions in Latin lookup 1 subtable" foursuperior
EndChar
StartChar: five
Encoding: 53 53 446
Width: 560
Flags: MW
HStem: -7 33<237 330.5 237 343> 378 33<249.5 335> 627 34<131 465 131 131>
VStem: 89.5 32.5 460 36<156.5 281.5>
LayerCount: 2
Back
Fore
SplineSet
99 661 m 1
 465 661 l 1
 465 627 l 1
 131 627 l 1
 113 361 l 1
 113 361 208 411 291 411 c 0
 406 411 496 362 496 220 c 0
 496 66 405 -7 281 -7 c 0
 191 -7 75 17 75 17 c 1
 80 51 l 1
 80 51 194 26 280 26 c 0
 381 26 460 93 460 220 c 0
 460 343 380 378 290 378 c 0
 207 378 110 323 110 323 c 1
 80 327 l 1
 99 661 l 1
EndSplineSet
Substitution2: "'frac' Diagonal Fractions in Latin lookup 1 subtable" fivesuperior
EndChar
StartChar: six
Encoding: 54 54 213
Width: 560
Flags: MW
HStem: -9 33<229.5 351.5 229.5 362.5> 373 33<252 347.5> 637 33<245.5 344 237 345.5>
VStem: 62 36<221 311 221 447> 470 36<148 268>
LayerCount: 2
Back
Fore
SplineSet
474 652 m 1
 470 620 l 1
 470 620 384 637 307 637 c 0
 184 637 107 560 99 357 c 1
 99 357 213 406 291 406 c 0
 424 406 506 344 506 212 c 0
 506 66 430 -9 295 -9 c 0
 139 -9 62 113 62 309 c 0
 62 585 167 670 307 670 c 0
 381 670 474 652 474 652 c 1
290 373 m 0
 205 373 99 323 99 323 c 2
 98 319 98 313 98 309 c 0
 98 133 164 24 295 24 c 0
 408 24 470 84 470 212 c 0
 470 324 405 373 290 373 c 0
EndSplineSet
Substitution2: "'frac' Diagonal Fractions in Latin lookup 1 subtable" sixsuperior
EndChar
StartChar: seven
Encoding: 55 55 417
Width: 560
Flags: MW
HStem: -9 21G<215 215> 628 33<88 477 88 441>
VStem: 441 36<593 628 628 628>
LayerCount: 2
Back
Fore
SplineSet
88 628 m 1
 88 661 l 1
 477 661 l 1
 477 585 l 1
 215 -9 l 1
 182 5 l 1
 441 593 l 1
 441 628 l 1
 88 628 l 1
EndSplineSet
Substitution2: "'frac' Diagonal Fractions in Latin lookup 1 subtable" sevensuperior
EndChar
StartChar: eight
Encoding: 56 56 418
Width: 560
Flags: MW
HStem: -9 33<221 338.5 221 346> 330 32<218 327 218 327> 637 33<216.5 340.5>
VStem: 36 36<113.5 219.5 113.5 223.5> 47 36<464.5 554.5 464.5 563> 477 36<463.5 553> 487 36<117.5 230.5 104.5 231.5>
LayerCount: 2
Back
Fore
SplineSet
278 670 m 0xec
 422 670 513 621 513 505 c 0xf4
 513 416 465 374 375 348 c 1
 458 324 523 282 523 179 c 0
 523 30 414 -9 278 -9 c 0
 149 -9 36 33 36 168 c 0xf2
 36 279 95 316 173 348 c 1
 96 375 47 416 47 506 c 0
 47 620 134 670 278 670 c 0xec
278 24 m 0xf2
 399 24 487 57 487 178 c 0
 487 285 411 309 327 330 c 1
 218 330 l 1
 131 309 72 270 72 169 c 0
 72 58 164 24 278 24 c 0xf2
278 637 m 0xec
 155 637 83 604 83 505 c 0
 83 424 131 386 218 362 c 1
 327 362 l 1
 419 384 477 423 477 504 c 0
 477 602 403 637 278 637 c 0xec
EndSplineSet
Substitution2: "'frac' Diagonal Fractions in Latin lookup 1 subtable" eightsuperior
EndChar
StartChar: nine
Encoding: 57 57 214
Width: 560
Flags: MW
HStem: -9 21G -9 34<212 314.5 210.5 323.5> 256 34<207.5 297 207.5 298> 636 34<217.5 335>
VStem: 53 38<400 513 400 523.5> 459 36<333 333>
LayerCount: 2
Back
Fore
SplineSet
80 12 m 1xbc
 86 44 l 1
 86 44 172 25 249 25 c 0
 380 25 456 106 458 298 c 1
 458 298 337 256 259 256 c 0
 133 256 53 321 53 457 c 0
 53 590 147 670 270 670 c 0
 422 670 495 545 495 324 c 0
 495 72 398 -9 249 -9 c 0x7c
 175 -9 80 12 80 12 c 1xbc
261 290 m 0
 333 290 459 333 459 333 c 1
 457 520 400 636 270 636 c 0
 165 636 91 569 91 457 c 0
 91 343 154 290 261 290 c 0
EndSplineSet
Substitution2: "'frac' Diagonal Fractions in Latin lookup 1 subtable" ninesuperior
EndChar
StartChar: colon
Encoding: 58 58 235
Width: 178
Flags: MW
HStem: 0 83<71 107 71 107> 348 83<71 107 71 107>
VStem: 71 36<0 83 0 83 348 431>
LayerCount: 2
Back
Fore
SplineSet
71 348 m 1
 71 431 l 1
 107 431 l 1
 107 348 l 1
 71 348 l 1
71 0 m 1
 71 83 l 1
 107 83 l 1
 107 0 l 1
 71 0 l 1
EndSplineSet
EndChar
StartChar: semicolon
Encoding: 59 59 236
Width: 211
Flags: MW
HStem: 348 83<96 132 96 132>
VStem: 96 36<348 431 348 431>
LayerCount: 2
Back
Fore
SplineSet
56 -130 m 1
 83 -130 l 1
 131 83 l 1
 93 83 l 1
 56 -130 l 1
96 348 m 1
 96 431 l 1
 132 431 l 1
 132 348 l 1
 96 348 l 1
EndSplineSet
EndChar
StartChar: less
Encoding: 60 60 216
Width: 560
Flags: MW
HStem: 15 470<482 482>
VStem: 58 33<251 251 251 269 251 269>
LayerCount: 2
Back
Fore
SplineSet
482 446 m 1
 91 251 l 1
 482 56 l 1
 482 15 l 1
 58 233 l 1
 58 269 l 1
 482 485 l 1
 482 446 l 1
EndSplineSet
EndChar
StartChar: equal
Encoding: 61 61 237
Width: 560
Flags: MW
HStem: 149 34<68 492 68 492> 318 34<68 492 68 492>
VStem: 68 424<149 183 149 183 318 352 149 352>
LayerCount: 2
Back
Fore
SplineSet
68 318 m 1
 68 352 l 1
 492 352 l 1
 492 318 l 1
 68 318 l 1
68 149 m 1
 68 183 l 1
 492 183 l 1
 492 149 l 1
 68 149 l 1
EndSplineSet
EndChar
StartChar: question
Encoding: 63 63 238
Width: 400
Flags: MW
HStem: 1 83<147 185 147 185> 675 34<151 231>
VStem: 147 38<1 84 1 84> 322 38<526.5 601>
LayerCount: 2
Back
Fore
SplineSet
360 551 m 0
 360 495 339 460 256 362 c 0
 213 311 185 273 185 228 c 2
 185 188 l 1
 152 188 l 1
 152 188 149 214 149 228 c 0
 149 284 174 316 229 385 c 0
 300 473 322 502 322 551 c 0
 322 651 281 675 181 675 c 0
 121 675 39 652 39 652 c 1
 34 685 l 1
 34 685 121 709 181 709 c 0
 301 709 360 671 360 551 c 0
147 1 m 1
 147 84 l 1
 185 84 l 1
 185 1 l 1
 147 1 l 1
EndSplineSet
EndChar
StartChar: at
Encoding: 64 64 151
Width: 926
Flags: MW
HStem: -199 32<326 492 326 495.5> -9 32<384.5 479 384.5 479 681 743.5> 477 32<398.5 486> 687 32<346.5 622>
VStem: 55 37<114 418.5 114 429> 276 37<177 299.5 177 320> 592 35<151 465 465 465> 843 37<193 406>
LayerCount: 2
Back
Fore
SplineSet
477 719 m 0
 788 719 880 571 880 261 c 0
 880 125 847 -9 711 -9 c 0
 636 -9 601 23 594 94 c 1
 594 94 529 -9 429 -9 c 0
 317 -9 276 91 276 237 c 0
 276 403 314 509 474 509 c 0
 519 509 627 493 627 493 c 1
 627 114 l 2
 627 54 651 23 711 23 c 0
 776 23 843 62 843 261 c 0
 843 551 767 687 477 687 c 0
 216 687 92 576 92 261 c 0
 92 -33 179 -167 473 -167 c 0
 511 -167 608 -157 608 -157 c 1
 610 -190 l 1
 610 -190 518 -199 473 -199 c 0
 157 -199 55 -55 55 261 c 0
 55 597 198 719 477 719 c 0
433 23 m 0
 525 23 592 151 592 151 c 1
 592 465 l 1
 592 465 501 477 471 477 c 0
 326 477 313 359 313 240 c 0
 313 114 336 23 433 23 c 0
EndSplineSet
EndChar
StartChar: B
Encoding: 66 66 28
Width: 576
Flags: MW
HStem: 0 33<121 318 121 318> 341 33<121 313 121 313> 667 33<121 311 121 121>
VStem: 85 36<33 341 33 374 374 667> 458 37<485.5 577.5> 483 38<140 239 128 247>
LayerCount: 2
Back
Fore
SplineSet
85 700 m 1xf4
 311 700 l 2
 432 700 495 650 495 529 c 0xf8
 495 435 458 382 399 362 c 1
 488 335 521 281 521 197 c 0
 521 59 456 0 318 0 c 2
 85 0 l 1
 85 700 l 1xf4
313 341 m 2
 121 341 l 1
 121 33 l 1
 318 33 l 2
 432 33 483 83 483 197 c 0xf4
 483 297 425 341 313 341 c 2
311 667 m 2
 121 667 l 1
 121 374 l 1
 313 374 l 2
 416 374 458 442 458 529 c 0xf8
 458 626 408 667 311 667 c 2
EndSplineSet
Position2: "'cpsp' Capital Spacing in Latin lookup 0 subtable" dx=5 dy=0 dh=10 dv=0
EndChar
StartChar: D
Encoding: 68 68 35
Width: 604
Flags: MW
HStem: 0 34<121 321 121 321> 666 34<121 321 121 121>
VStem: 85 36<34 666 34 700 34 700> 504 38<256 464>
LayerCount: 2
Back
Fore
SplineSet
321 0 m 2
 85 0 l 1
 85 700 l 1
 321 700 l 2
 479 700 542 598 542 360 c 0
 542 120 487 0 321 0 c 2
504 360 m 0
 504 568 461 666 321 666 c 2
 121 666 l 1
 121 34 l 1
 321 34 l 2
 461 34 504 152 504 360 c 0
EndSplineSet
Position2: "'cpsp' Capital Spacing in Latin lookup 0 subtable" dx=5 dy=0 dh=10 dv=0
EndChar
StartChar: F
Encoding: 70 70 48
Width: 489
Flags: MW
HStem: 0 21G<85 85 85 121> 316 33<121 407 121 407> 667 33<121 463 121 121>
VStem: 85 36<0 316 349 667>
LayerCount: 2
Back
Fore
SplineSet
85 0 m 1
 85 700 l 1
 463 700 l 1
 463 667 l 1
 121 667 l 1
 121 349 l 1
 407 349 l 1
 407 316 l 1
 121 316 l 1
 121 0 l 1
 85 0 l 1
EndSplineSet
Position2: "'cpsp' Capital Spacing in Latin lookup 0 subtable" dx=5 dy=0 dh=10 dv=0
EndChar
StartChar: H
Encoding: 72 72 54
Width: 624
Flags: MW
HStem: 0 21G<85 121 85 85 503 539 503 503> 334 33<121 503 121 503>
VStem: 85 36<0 334 0 367 367 700> 503 36<0 334 334 334 367 700 0 700>
LayerCount: 2
Back
Fore
SplineSet
503 0 m 1
 503 334 l 1
 121 334 l 1
 121 0 l 1
 85 0 l 1
 85 700 l 1
 121 700 l 1
 121 367 l 1
 503 367 l 1
 503 700 l 1
 539 700 l 1
 539 0 l 1
 503 0 l 1
EndSplineSet
Position2: "'cpsp' Capital Spacing in Latin lookup 0 subtable" dx=5 dy=0 dh=10 dv=0
EndChar
StartChar: J
Encoding: 74 74 67
Width: 258
Flags: MW
HStem: -71 33<17 76.5 17 86>
VStem: 141 36<37 700>
LayerCount: 2
Back
Fore
SplineSet
176 700 m 1
 177 106 l 2
 177 -32 155 -71 17 -71 c 1
 17 -38 l 1
 136 -38 141 -3 141 116 c 2
 141 700 l 1
 176 700 l 1
EndSplineSet
Position2: "'cpsp' Capital Spacing in Latin lookup 0 subtable" dx=5 dy=0 dh=10 dv=0
EndChar
StartChar: M
Encoding: 77 77 76
Width: 768
Flags: MW
HStem: 0 21G 21 33<384 384 384 407 361 384> 667 33<121 132 121 121 636 647 636 636>
VStem: 85 36<0 667 0 700 0 700> 647 36<0 667 667 667>
LayerCount: 2
Back
Fore
SplineSet
85 0 m 1xb8
 85 700 l 1
 157 700 l 1
 384 54 l 1x78
 611 700 l 1
 683 700 l 1
 683 0 l 1
 647 0 l 1xb8
 647 667 l 1
 636 667 l 1
 407 21 l 1
 361 21 l 1x78
 132 667 l 1
 121 667 l 1
 121 0 l 1
 85 0 l 1xb8
EndSplineSet
Position2: "'cpsp' Capital Spacing in Latin lookup 0 subtable" dx=5 dy=0 dh=10 dv=0
EndChar
StartChar: P
Encoding: 80 80 94
Width: 550
Flags: MW
HStem: 0 21G<85 121 85 85> 256 34<121 300 121 300> 666 34<121 300 121 121>
VStem: 85 36<0 256 290 666> 474 38<418.5 553.5>
LayerCount: 2
Back
Fore
SplineSet
300 256 m 2
 121 256 l 1
 121 0 l 1
 85 0 l 1
 85 700 l 1
 300 700 l 2
 442 700 512 639 512 488 c 0
 512 333 437 256 300 256 c 2
121 290 m 1
 300 290 l 2
 414 290 474 349 474 488 c 0
 474 619 413 666 300 666 c 2
 121 666 l 1
 121 290 l 1
EndSplineSet
Position2: "'cpsp' Capital Spacing in Latin lookup 0 subtable" dx=5 dy=0 dh=10 dv=0
EndChar
StartChar: R
Encoding: 82 82 96
Width: 568
Flags: MW
HStem: 0 21G<85 121 85 85 484 526 484 484> 290 33<121 312 312 335 121 312> 667 33<121 312 121 121>
VStem: 85 36<0 290 0 323 323 667> 470 38<441 553.5>
LayerCount: 2
Back
Fore
SplineSet
484 0 m 1
 335 290 l 1
 121 290 l 1
 121 0 l 1
 85 0 l 1
 85 700 l 1
 312 700 l 2
 443 700 508 630 508 499 c 0
 508 364 448 315 374 295 c 1
 526 0 l 1
 484 0 l 1
470 499 m 0
 470 608 421 667 312 667 c 2
 121 667 l 1
 121 323 l 1
 312 323 l 2
 421 323 470 383 470 499 c 0
EndSplineSet
Position2: "'cpsp' Capital Spacing in Latin lookup 0 subtable" dx=5 dy=0 dh=10 dv=0
EndChar
StartChar: V
Encoding: 86 86 121
Width: 535
Flags: MW
HStem: 0 33<243 295 243 324 213 295>
VStem: 29 476<700 700>
LayerCount: 2
Back
Fore
SplineSet
469 700 m 1
 505 700 l 1
 324 0 l 1
 213 0 l 1
 29 700 l 1
 65 700 l 1
 243 33 l 1
 295 33 l 1
 469 700 l 1
EndSplineSet
Position2: "'cpsp' Capital Spacing in Latin lookup 0 subtable" dx=5 dy=0 dh=10 dv=0
EndChar
StartChar: X
Encoding: 88 88 127
Width: 515
Flags: MW
HStem: 0 21G<24 65 24 24 448 490 448 448>
VStem: 24 466<0 0>
LayerCount: 2
Back
Fore
SplineSet
67 700 m 1
 258 377 l 1
 448 700 l 1
 490 700 l 1
 283 347 l 1
 490 0 l 1
 448 0 l 1
 259 319 l 1
 65 0 l 1
 24 0 l 1
 236 346 l 1
 24 700 l 1
 67 700 l 1
EndSplineSet
Position2: "'cpsp' Capital Spacing in Latin lookup 0 subtable" dx=5 dy=0 dh=10 dv=0
EndChar
StartChar: bracketleft
Encoding: 91 91 218
Width: 294
Flags: MW
HStem: -122 33<113 251 113 251> 714 33<113 251 113 113>
VStem: 80 33<-89 714 -89 747>
LayerCount: 2
Back
Fore
SplineSet
80 747 m 1
 251 747 l 1
 251 714 l 1
 113 714 l 1
 113 -89 l 1
 251 -89 l 1
 251 -122 l 1
 80 -122 l 1
 80 747 l 1
EndSplineSet
Substitution2: "'case' Case-Sensitive Forms in Latin lookup 4 subtable" bracketleft.cap
EndChar
StartChar: backslash
Encoding: 92 92 219
Width: 417
Flags: MW
HStem: -40 741<65 351>
VStem: 30 356
LayerCount: 2
Back
Fore
SplineSet
386 -26 m 1
 351 -40 l 1
 30 687 l 1
 65 701 l 1
 386 -26 l 1
EndSplineSet
EndChar
StartChar: bracketright
Encoding: 93 93 220
Width: 294
Flags: MW
HStem: -122 33<43 181 43 214 43 181> 714 33<43 181 43 214>
VStem: 181 33<-89 714 714 714>
LayerCount: 2
Back
Fore
SplineSet
214 -122 m 1
 43 -122 l 1
 43 -89 l 1
 181 -89 l 1
 181 714 l 1
 43 714 l 1
 43 747 l 1
 214 747 l 1
 214 -122 l 1
EndSplineSet
Substitution2: "'case' Case-Sensitive Forms in Latin lookup 4 subtable" bracketright.cap
EndChar
StartChar: asciicircum
Encoding: 94 94 254
Width: 560
Flags: MW
HStem: 624 36<274 274>
VStem: 76 405<323 323>
LayerCount: 2
Back
Fore
SplineSet
441 323 m 1
 274 624 l 1
 116 323 l 1
 76 323 l 1
 256 660 l 1
 292 660 l 1
 481 323 l 1
 441 323 l 1
EndSplineSet
EndChar
StartChar: underscore
Encoding: 95 95 239
Width: 640
Flags: MW
HStem: -117 38<96 544 96 544>
VStem: 96 448<-117 -79 -117 -79>
LayerCount: 2
Back
Fore
SplineSet
96 -79 m 1
 544 -79 l 1
 544 -117 l 1
 96 -117 l 1
 96 -79 l 1
EndSplineSet
EndChar
StartChar: grave
Encoding: 96 96 11
Width: 518
Flags: MW
HStem: 701 21G<143 143> 710 20G<157 157>
VStem: 143 195<634 701>
LayerCount: 2
Back
Fore
SplineSet
157 730 m 1x60
 338 634 l 1x60
 326 609 l 1
 143 701 l 1xa0
 157 730 l 1x60
EndSplineSet
EndChar
StartChar: b
Encoding: 98 98 386
Width: 482
Flags: MW
HStem: -9 32<219.5 295.5 219.5 306> 477 32<226.5 313.5> 710 20G<74 109 109 109>
VStem: 74 35<31 382 422 730> 389 37<183.5 329>
LayerCount: 2
Back
Fore
SplineSet
268 509 m 0
 395 509 426 409 426 261 c 0
 426 83 380 -9 232 -9 c 0
 163 -9 74 1 74 1 c 1
 74 730 l 1
 109 730 l 1
 109 422 l 1
 109 422 180 509 268 509 c 0
235 23 m 0
 356 23 389 106 389 261 c 0
 389 397 358 477 269 477 c 0
 184 477 109 382 109 382 c 1
 109 31 l 1
 109 31 204 23 235 23 c 0
EndSplineSet
EndChar
StartChar: d
Encoding: 100 100 405
Width: 481
Flags: MW
HStem: -9 32<163.5 258.5> 0 21G<372 407 372 372> 477 32<189 279> 710 20G<372 407 407 407>
VStem: 56 37<186 317 186 329> 372 35<0 93 93 93 142 465 465 465 497 730 0 730>
LayerCount: 2
Back
Fore
SplineSet
407 730 m 1xbc
 407 0 l 1
 372 0 l 1x7c
 372 93 l 1
 372 93 308 -9 209 -9 c 0
 88 -9 56 92 56 242 c 0
 56 416 107 509 251 509 c 0
 309 509 372 497 372 497 c 1
 372 730 l 1
 407 730 l 1xbc
372 142 m 1
 372 465 l 1
 372 465 307 477 251 477 c 0
 127 477 93 392 93 242 c 0
 93 130 111 23 216 23 c 0xbc
 306 23 372 142 372 142 c 1
EndSplineSet
EndChar
StartChar: f
Encoding: 102 102 389
Width: 300
Flags: MW
HStem: -230 21G<94 126 94 94> 468 32<29 94 29 94 129 280> 707 21G<181.5 226.5> 710 20G<291 291> 719 20G<170.5 230>
VStem: 94 35<0 468 0 468 0 468 500 558>
LayerCount: 2
Back
Fore
SplineSet
129 468 m 1xe4
 129 0 l 1
 126 -230 l 1
 94 -230 l 1
 94 468 l 1
 29 468 l 1
 29 500 l 1
 94 500 l 1
 94 559 l 2
 94 693 128 739 213 739 c 0xcc
 247 739 291 730 291 730 c 1xd4
 291 698 l 1
 291 698 240 707 213 707 c 0
 150 707 129 666 129 558 c 2
 129 500 l 1
 280 500 l 1
 280 468 l 1
 129 468 l 1xe4
EndSplineSet
EndChar
StartChar: i
Encoding: 105 105 390
Width: 183
Flags: MW
HStem: 0 21G<74 74 74 109> 480 20G<74 109 109 109> 640 58<73 110 73 110>
VStem: 74 35<0 500 0 500>
LayerCount: 2
Back
Fore
SplineSet
74 0 m 1
 74 500 l 1
 109 500 l 1
 109 0 l 1
 74 0 l 1
73 640 m 1
 73 698 l 1
 110 698 l 1
 110 640 l 1
 73 640 l 1
EndSplineSet
EndChar
StartChar: j
Encoding: 106 106 391
Width: 183
Flags: MW
HStem: -239 21G<-32 -32> 480 20G<74 109 109 109> 640 59<73 110 73 110>
VStem: 74 35<0 500>
LayerCount: 2
Back
Fore
SplineSet
74 0 m 2
 74 500 l 1
 109 500 l 1
 109 0 l 2
 109 -136 96 -160 -32 -239 c 1
 -48 -209 l 1
 70 -138 74 -118 74 0 c 2
73 640 m 1
 73 699 l 1
 110 699 l 1
 110 640 l 1
 73 640 l 1
EndSplineSet
EndChar
StartChar: m
Encoding: 109 109 394
Width: 770
Flags: MW
HStem: 0 21G<74 109 74 74 375 410 375 375 665 665 665 700> 477 32<228.5 302 511 592> 480 20G<74 109 109 109>
VStem: 74 35<0 361 407 500> 375 35<0 299 299 303> 665 35<0 299 299 303 0 358.5>
LayerCount: 2
Back
Fore
SplineSet
410 0 m 1xdc
 375 0 l 1
 375 299 l 2
 375 419 338 477 266 477 c 0xdc
 191 477 109 361 109 361 c 1
 109 0 l 1
 74 0 l 1
 74 500 l 1
 109 500 l 1xbc
 109 407 l 1
 109 407 185 509 268 509 c 0
 373 509 396 413 396 413 c 1
 396 413 464 509 553 509 c 0
 655 509 700 444 700 303 c 2
 700 0 l 1
 665 0 l 1
 665 299 l 2
 665 418 633 477 551 477 c 0
 471 477 406 382 406 382 c 1
 406 382 410 350 410 303 c 2
 410 0 l 1xdc
EndSplineSet
EndChar
StartChar: n
Encoding: 110 110 149
Width: 488
Flags: MW
HStem: 0 21G<74 109 74 74 383 383 383 418> 477 32<228 310> 480 20G<74 109 109 109>
VStem: 74 35<0 361 407 500> 383 35<0 299 299 313 0 358.5>
LayerCount: 2
Back
Fore
SplineSet
109 0 m 1xd8
 74 0 l 1
 74 500 l 1
 109 500 l 1xb8
 109 407 l 1
 109 407 182 509 271 509 c 0
 373 509 418 444 418 313 c 2
 418 0 l 1
 383 0 l 1
 383 299 l 2
 383 418 351 477 269 477 c 0
 187 477 109 361 109 361 c 1
 109 0 l 1xd8
EndSplineSet
EndChar
StartChar: p
Encoding: 112 112 395
Width: 479
Flags: MW
HStem: -230 21G<74 74 74 109> -9 32<199 289.5 199 299.5> 477 32<223 319.5> 480 20G<74 109 109 109>
VStem: 74 35<-230 3 -230 35 35 358 406 500> 388 36<182 313>
LayerCount: 2
Back
Fore
SplineSet
74 -230 m 1xec
 74 500 l 1
 109 500 l 1xdc
 109 406 l 1
 109 406 173 509 266 509 c 0
 396 509 424 405 424 257 c 0
 424 86 374 -9 225 -9 c 0
 172 -9 109 3 109 3 c 1
 109 -230 l 1
 74 -230 l 1xec
269 477 m 0xec
 177 477 109 358 109 358 c 1
 109 35 l 1
 109 35 173 23 225 23 c 0
 354 23 388 107 388 257 c 0
 388 369 370 477 269 477 c 0xec
EndSplineSet
EndChar
StartChar: q
Encoding: 113 113 396
Width: 480
Flags: MW
HStem: -9 32<166.5 257.5 166.5 258> 477 32<201 278>
VStem: 56 36<176.5 330.5 175 332.5> 371 35<-228 91 91 91 138 465 465 465>
LayerCount: 2
Back
Fore
SplineSet
210 -9 m 0
 79 -9 56 114 56 239 c 0
 56 426 110 509 256 509 c 0
 301 509 406 493 406 493 c 1
 406 -228 l 1
 371 -228 l 1
 371 91 l 1
 371 91 306 -9 210 -9 c 0
263 477 m 0
 139 477 92 422 92 239 c 0
 92 111 116 23 217 23 c 0
 298 23 371 138 371 138 c 1
 371 465 l 1
 371 465 293 477 263 477 c 0
EndSplineSet
EndChar
StartChar: r
Encoding: 114 114 397
Width: 304
Flags: MW
HStem: 0 21G<74 74 74 109> 480 20G<74 109 109 109> 489 20G<285 285>
VStem: 74 35<0 388 420 500>
LayerCount: 2
Back
Fore
SplineSet
74 0 m 1xb0
 74 500 l 1
 109 500 l 1
 109 420 l 1xd0
 109 420 192 485 285 509 c 1
 285 470 l 1
 208 451 109 388 109 388 c 1
 109 0 l 1
 74 0 l 1xb0
EndSplineSet
EndChar
StartChar: s
Encoding: 115 115 141
Width: 423
Flags: MW
HStem: -9 32<178 246.5 178 256.5> 477 32<173 235.5>
VStem: 49 36<341 413.5 341 426> 341 36<95.5 181.5>
LayerCount: 2
Back
Fore
SplineSet
361 499 m 1
 359 467 l 1
 359 467 268 477 203 477 c 0
 143 477 85 451 85 376 c 0
 85 306 130 290 211 276 c 0
 309 259 377 245 377 145 c 0
 377 26 310 -9 203 -9 c 0
 150 -9 52 6 52 6 c 1
 56 39 l 1
 56 39 154 23 202 23 c 0
 291 23 341 49 341 142 c 0
 341 221 280 229 202 243 c 0
 117 258 49 277 49 374 c 0
 49 478 127 509 203 509 c 0
 277 509 361 499 361 499 c 1
EndSplineSet
EndChar
StartChar: t
Encoding: 116 116 398
Width: 320
Flags: MW
HStem: -9 32<193.5 237.5 193.5 239.5> 468 32<29 103 29 103 138 299>
VStem: 103 35<132 133 133 468 500 662>
LayerCount: 2
Back
Fore
SplineSet
299 468 m 1
 138 468 l 1
 138 133 l 2
 138 63 163 23 224 23 c 0
 251 23 308 30 308 30 c 1
 310 -1 l 1
 310 -1 256 -9 223 -9 c 0
 133 -9 103 46 103 132 c 2
 103 468 l 1
 29 468 l 1
 29 500 l 1
 103 500 l 1
 103 662 l 1
 138 662 l 1
 138 500 l 1
 299 500 l 1
 299 468 l 1
EndSplineSet
EndChar
StartChar: v
Encoding: 118 118 400
Width: 441
Flags: MW
HStem: 0 32<200 241 200 268 173 241> 480 20G<30 68 68 68 373 411 411 411>
VStem: 30 381<500 500>
LayerCount: 2
Back
Fore
SplineSet
30 500 m 1
 68 500 l 1
 200 32 l 1
 241 32 l 1
 373 500 l 1
 411 500 l 1
 268 0 l 1
 173 0 l 1
 30 500 l 1
EndSplineSet
EndChar
StartChar: x
Encoding: 120 120 402
Width: 406
Flags: MW
HStem: 0 21G<30 67 30 30 339 377 339 339> 480 20G<28 66 66 66 341 378 378 378>
VStem: 28 350<500 500>
LayerCount: 2
Back
Fore
SplineSet
28 500 m 1
 66 500 l 1
 204 276 l 1
 341 500 l 1
 378 500 l 1
 222 249 l 1
 377 0 l 1
 339 0 l 1
 202 220 l 1
 67 0 l 1
 30 0 l 1
 183 248 l 1
 28 500 l 1
EndSplineSet
EndChar
StartChar: braceleft
Encoding: 123 123 240
Width: 331
Flags: MW
HStem: -123 36<252 287> 713 36<235.5 287 227 289>
VStem: 30 42 121 33<-7.5 49.5 558.5 617.5> 128 33<166.5 215.5 166.5 224 408 453>
LayerCount: 2
Back
Fore
SplineSet
161 180 m 0xd0
 161 153 154 67 154 35 c 0
 154 -50 215 -87 289 -87 c 1
 287 -123 l 1
 189 -123 121 -74 121 35 c 0xd0
 121 64 128 153 128 177 c 0
 128 271 55 280 30 292 c 1
 30 327 l 1
 56 330 128 358 128 432 c 0xe8
 128 474 121 541 121 571 c 0
 121 690 167 749 287 749 c 1
 289 713 l 1
 182 713 154 664 154 571 c 0xd0
 154 546 161 482 161 453 c 0
 161 363 134 334 72 311 c 1xe8
 131 290 161 251 161 180 c 0xd0
EndSplineSet
Substitution2: "'case' Case-Sensitive Forms in Latin lookup 4 subtable" braceleft.cap
EndChar
StartChar: bar
Encoding: 124 124 221
Width: 193
Flags: MW
HStem: -230 21G<79 79 79 114> 710 20G<79 114 114 114>
VStem: 79 35<-230 730 -230 730>
LayerCount: 2
Back
Fore
SplineSet
79 -230 m 1
 79 730 l 1
 114 730 l 1
 114 -230 l 1
 79 -230 l 1
EndSplineSet
EndChar
StartChar: braceright
Encoding: 125 125 241
Width: 331
Flags: MW
HStem: -123 36<44 95.5 42 104> 713 36<44 79>
VStem: 170 33<173 218 410.5 459.5> 177 33<8.5 67.5 576.5 633.5> 259 42
LayerCount: 2
Back
Fore
SplineSet
170 446 m 0xd0
 170 473 177 559 177 591 c 0
 177 676 116 713 42 713 c 1
 44 749 l 1
 142 749 210 700 210 591 c 0xd0
 210 562 203 473 203 449 c 0
 203 355 276 346 301 334 c 1
 301 299 l 1
 275 296 203 268 203 194 c 0xe8
 203 152 210 85 210 55 c 0
 210 -64 164 -123 44 -123 c 1
 42 -87 l 1
 149 -87 177 -38 177 55 c 0xd0
 177 80 170 144 170 173 c 0
 170 263 197 292 259 315 c 1xe8
 200 336 170 375 170 446 c 0xd0
EndSplineSet
Substitution2: "'case' Case-Sensitive Forms in Latin lookup 4 subtable" braceright.cap
EndChar
StartChar: asciitilde
Encoding: 126 126 211
Width: 560
Flags: MW
HStem: 212 34<357 397 357 405> 285 34<165 205>
VStem: 70 422<265 267>
LayerCount: 2
Back
Fore
SplineSet
481 298 m 1
 492 267 l 1
 492 267 430 212 380 212 c 0
 323 212 227 285 183 285 c 0
 147 285 81 233 81 233 c 1
 70 265 l 1
 70 265 132 319 182 319 c 0
 239 319 335 246 379 246 c 0
 415 246 481 298 481 298 c 1
EndSplineSet
EndChar
StartChar: exclamdown
Encoding: 161 161 281
Width: 190
Flags: MW
HStem: 417 83<77 113 77 113>
VStem: 78.5 33.5
LayerCount: 2
Back
Fore
SplineSet
111 289 m 1
 113 -200 l 1
 77 -200 l 1
 80 289 l 1
 111 289 l 1
113 500 m 1
 113 417 l 1
 77 417 l 1
 77 500 l 1
 113 500 l 1
EndSplineSet
Substitution2: "'case' Case-Sensitive Forms in Latin lookup 4 subtable" exclamdown.cap
EndChar
StartChar: cent
Encoding: 162 162 242
Width: 560
Flags: MW
HStem: 43 34<237.5 283 317 317> 422 37<282 282 282 311>
VStem: 119 37<193.5 308.5 193.5 322.5> 282 34<459 590 458 590>
LayerCount: 2
Back
Fore
SplineSet
283 -84 m 1
 283 43 l 1
 141 43 119 134 119 247 c 0
 119 398 179 454 282 459 c 1
 282 590 l 1
 316 590 l 1
 316 458 l 1
 358 456 425 448 425 448 c 1
 423 412 l 1
 423 412 329 422 293 422 c 0
 191 422 156 370 156 247 c 0
 156 140 173 77 302 77 c 0
 338 77 425 86 425 86 c 1
 427 52 l 1
 427 52 357 44 317 43 c 1
 317 -84 l 1
 283 -84 l 1
EndSplineSet
EndChar
StartChar: sterling
Encoding: 163 163 249
Width: 560
Flags: MW
HStem: 0 33<81 177 213 383 81 177> 374 33<102 177 102 177 213 429> 646 33<259.5 324>
VStem: 177 36<33 374 33 374 407 467>
LayerCount: 2
Back
Fore
SplineSet
438 668 m 1
 438 635 l 1
 438 635 342 646 306 646 c 0
 213 646 213 572 213 467 c 2
 213 407 l 1
 429 407 l 1
 429 374 l 1
 213 374 l 1
 213 33 l 1
 383 33 l 1
 461 49 l 1
 467 18 l 1
 391 0 l 1
 81 0 l 1
 81 33 l 1
 177 33 l 1
 177 374 l 1
 102 374 l 1
 102 407 l 1
 177 407 l 1
 177 467 l 2
 177 592 181 679 306 679 c 0
 342 679 438 668 438 668 c 1
EndSplineSet
EndChar
StartChar: currency
Encoding: 164 164 273
Width: 560
Flags: MW
HStem: 82 37 385 37
VStem: 110 37 413 37
LayerCount: 2
Back
Fore
SplineSet
457 49 m 1
 387 120 l 1
 325 69 235 69 173 120 c 1
 103 49 l 1
 77 75 l 1
 148 145 l 1
 97 207 97 297 148 359 c 1
 77 429 l 1
 103 455 l 1
 173 384 l 1
 235 435 325 435 387 384 c 1
 457 455 l 1
 483 429 l 1
 412 359 l 1
 463 297 463 207 412 145 c 1
 483 75 l 1
 457 49 l 1
185 157 m 0
 237 106 323 106 375 157 c 0
 426 209 426 295 375 347 c 0
 323 398 237 398 185 347 c 0
 134 295 134 209 185 157 c 0
EndSplineSet
EndChar
StartChar: yen
Encoding: 165 165 215
Width: 560
Flags: MW
HStem: 0 21G<263 299 263 263> 182 34<71 263 71 263 299 489> 331 34<71 229 71 229 71 250 332 489>
VStem: 263 36<0 182 0 182 216 310>
LayerCount: 2
Back
Fore
SplineSet
71 331 m 1
 71 365 l 1
 229 365 l 1
 48 661 l 1
 86 661 l 1
 281 343 l 1
 473 661 l 1
 512 661 l 1
 332 365 l 1
 489 365 l 1
 489 331 l 1
 313 331 l 1
 299 310 l 1
 299 216 l 1
 489 216 l 1
 489 182 l 1
 299 182 l 1
 299 0 l 1
 263 0 l 1
 263 182 l 1
 71 182 l 1
 71 216 l 1
 263 216 l 1
 263 310 l 1
 250 331 l 1
 71 331 l 1
EndSplineSet
EndChar
StartChar: brokenbar
Encoding: 166 166 204
Width: 197
Flags: MW
HStem: -230 21G<81 116 81 81> 710 20G<81 116 116 116>
VStem: 81 35<-230 146 -230 146 354 730>
LayerCount: 2
Back
Fore
SplineSet
81 730 m 1
 116 730 l 1
 116 354 l 1
 81 354 l 1
 81 730 l 1
81 146 m 1
 116 146 l 1
 116 -230 l 1
 81 -230 l 1
 81 146 l 1
EndSplineSet
EndChar
StartChar: section
Encoding: 167 167 157
Width: 456
Flags: MW
HStem: -122 35<203 270 203 281> 623 36<198.5 253.5>
VStem: 56 33<248.5 309.5 248.5 315> 63 36<480 553> 359 33<-6 54 -15 74> 362 33<225.5 292.5>
LayerCount: 2
Back
Fore
SplineSet
378 646 m 1xd4
 376 610 l 1
 376 610 276 623 231 623 c 0
 166 623 99 603 99 516 c 0
 99 431 141 412 238 395 c 0
 327 379 395 354 395 255 c 0xd4
 395 196 360 130 360 130 c 1
 385 109 392 71 392 37 c 0
 392 -67 333 -122 229 -122 c 0
 172 -122 70 -109 70 -109 c 1
 73 -73 l 1
 73 -73 177 -87 229 -87 c 0
 311 -87 359 -48 359 36 c 0
 359 112 311 125 222 138 c 0
 115 154 56 188 56 283 c 0xe8
 56 347 105 401 105 401 c 1
 81 425 63 445 63 515 c 0
 63 591 108 659 231 659 c 0
 291 659 378 646 378 646 c 1xd4
249 357 m 0
 209 365 153 375 131 387 c 1
 131 387 89 334 89 285 c 0xe4
 89 212 136 189 229 174 c 0
 273 167 310 160 333 146 c 1
 333 146 362 197 362 252 c 0
 362 333 311 345 249 357 c 0
EndSplineSet
EndChar
StartChar: dieresis
Encoding: 168 168 8
Width: 791
Flags: MW
HStem: 633 65<110 139 110 139 285 312>
VStem: 110 29<633 698 633 698> 285 27<633 698 633 698>
LayerCount: 2
Back
Fore
SplineSet
110 633 m 1
 110 698 l 1
 139 698 l 1
 139 633 l 1
 110 633 l 1
285 633 m 1
 285 698 l 1
 312 698 l 1
 312 633 l 1
 285 633 l 1
EndSplineSet
EndChar
StartChar: copyright
Encoding: 169 169 158
Width: 635
Flags: MW
HStem: 169 32<252.5 381.5 252.5 390.5> 281 32<285 331 285 332.5> 555 32<282 333> 668 32<252.5 381.5>
VStem: 62 32<369.5 498.5 369.5 507.5> 208 32<395 471.5 395 478.5> 541 32<369.5 498.5>
LayerCount: 2
Back
Fore
SplineSet
62 434 m 0
 62 581 170 700 317 700 c 0
 464 700 573 581 573 434 c 0
 573 287 464 169 317 169 c 0
 170 169 62 287 62 434 c 0
94 434 m 0
 94 305 188 201 317 201 c 0
 446 201 541 305 541 434 c 0
 541 563 446 668 317 668 c 0
 188 668 94 563 94 434 c 0
390 321 m 1
 391 289 l 1
 391 289 348 281 317 281 c 0
 229 281 208 342 208 433 c 0
 208 524 227 587 317 587 c 0
 355 587 391 580 391 580 c 1
 390 548 l 1
 390 548 349 555 317 555 c 0
 247 555 240 510 240 433 c 0
 240 357 253 313 317 313 c 0
 345 313 390 321 390 321 c 1
EndSplineSet
EndChar
StartChar: ordfeminine
Encoding: 170 170 208
Width: 359
Flags: MW
HStem: 386 31<119.5 154.5 119.5 157> 517 28.5 629 30<167 201.5>
VStem: 59 33<448 480.5 448 490> 236 31<437 520 520 520 549 571 437 572 437 593.5>
LayerCount: 2
Back
Fore
SplineSet
267 571 m 2
 267 437 l 1
 275 424 290 417 304 414 c 1
 302 386 l 1
 277 387 264 393 248 408 c 1
 248 408 185 386 129 386 c 0
 88 386 59 417 59 466 c 0
 59 514 83 538 134 542 c 2
 236 549 l 1
 236 572 l 2
 236 615 219 629 184 629 c 0
 150 629 80 622 80 622 c 1
 78 651 l 1
 78 651 147 659 184 659 c 0
 241 659 267 634 267 571 c 2
236 520 m 1
 139 514 l 2
 105 512 92 497 92 464 c 0
 92 432 107 417 132 417 c 0
 177 417 236 435 236 435 c 1
 236 520 l 1
EndSplineSet
EndChar
StartChar: guillemotleft
Encoding: 171 171 383
Width: 466
Flags: MW
HStem: 105 286<201 201 201 395>
VStem: 45 27<253 253 253 263 253 263> 239 27<253 253 253 263 253 263>
LayerCount: 2
Back
Fore
SplineSet
201 391 m 1
 201 357 l 1
 72 253 l 1
 201 139 l 1
 201 105 l 1
 45 242 l 1
 45 263 l 1
 201 391 l 1
395 391 m 1
 395 357 l 1
 266 253 l 1
 395 139 l 1
 395 105 l 1
 239 242 l 1
 239 263 l 1
 395 391 l 1
EndSplineSet
EndChar
StartChar: logicalnot
Encoding: 172 172 277
Width: 560
Flags: MW
HStem: 298 34<71 457 71 493>
VStem: 457 36<126 298 298 298>
LayerCount: 2
Back
Fore
SplineSet
71 332 m 1
 493 332 l 1
 493 126 l 1
 457 126 l 1
 457 298 l 1
 71 298 l 1
 71 332 l 1
EndSplineSet
EndChar
StartChar: registered
Encoding: 174 174 160
Width: 635
Flags: MW
HStem: 169 32<252.5 381.5 252.5 390.5> 402 31<247 327 327 328 247 327> 550 31<247 247 247 308 308 309> 668 32<252.5 381.5>
VStem: 62 32<369.5 498.5 369.5 507.5> 215 32<286 402 286 433 433 550> 389 32<469.5 514.5> 541 32<369.5 498.5>
LayerCount: 2
Back
Fore
SplineSet
62 434 m 0
 62 581 170 700 317 700 c 0
 464 700 573 581 573 434 c 0
 573 287 464 169 317 169 c 0
 170 169 62 287 62 434 c 0
94 434 m 0
 94 305 188 201 317 201 c 0
 446 201 541 305 541 434 c 0
 541 563 446 668 317 668 c 0
 188 668 94 563 94 434 c 0
391 286 m 1
 328 402 l 1
 247 402 l 1
 247 286 l 1
 215 286 l 1
 215 581 l 1
 308 581 l 2
 384 581 421 560 421 492 c 0
 421 445 406 416 362 405 c 1
 427 286 l 1
 391 286 l 1
247 550 m 1
 247 433 l 1
 327 433 l 2
 371 433 389 447 389 492 c 0
 389 537 363 550 309 550 c 2
 247 550 l 1
EndSplineSet
EndChar
StartChar: macron
Encoding: 175 175 12
Width: 424
Flags: MW
HStem: 647 26<84 336 84 336>
VStem: 84 252<647 673 647 673>
LayerCount: 2
Back
Fore
SplineSet
84 647 m 1
 84 673 l 1
 336 673 l 1
 336 647 l 1
 84 647 l 1
EndSplineSet
EndChar
StartChar: plusminus
Encoding: 177 177 205
Width: 560
Flags: MW
HStem: 50 34<59 501 59 501> 308 34<59 261 59 261 297 501>
VStem: 261 36<164 308 164 308 342 480>
LayerCount: 2
Back
Fore
SplineSet
59 308 m 1
 59 342 l 1
 261 342 l 1
 261 480 l 1
 297 480 l 1
 297 342 l 1
 501 342 l 1
 501 308 l 1
 297 308 l 1
 297 164 l 1
 261 164 l 1
 261 308 l 1
 59 308 l 1
59 84 m 1
 501 84 l 1
 501 50 l 1
 59 50 l 1
 59 84 l 1
EndSplineSet
EndChar
StartChar: twosuperior
Encoding: 178 178 258
Width: 280
Flags: MW
HStem: 478 34<84 232 37 37> 765 34<115 148>
VStem: 189 36<695 733>
LayerCount: 2
Back
Fore
SplineSet
232 478 m 1
 37 478 l 1
 37 512 l 1
 135 616 l 2
 164 647 189 675 189 715 c 0
 189 751 164 765 132 765 c 0
 98 765 42 753 42 753 c 1
 40 786 l 1
 40 786 91 799 133 799 c 0
 193 799 225 771 225 714 c 0
 225 667 199 634 160 593 c 2
 84 512 l 1
 232 512 l 1
 232 478 l 1
EndSplineSet
Substitution2: "Single Substitution lookup 5 subtable" twoinferior
EndChar
StartChar: threesuperior
Encoding: 179 179 259
Width: 280
Flags: MW
HStem: 469 34<119.5 166 119 175.5> 622 34<82 147 82 147> 765 34<117 162>
VStem: 198 37<701.5 734> 207 37<544 584>
LayerCount: 2
Back
Fore
SplineSet
41 788 m 1xe8
 41 788 94 799 139 799 c 0
 204 799 235 775 235 719 c 0xf0
 235 662 192 643 187 641 c 1
 222 631 244 619 244 562 c 0
 244 498 207 469 144 469 c 0
 95 469 37 480 37 480 c 1
 40 512 l 1
 40 512 94 503 144 503 c 0
 188 503 207 527 207 561 c 0
 207 607 181 622 147 622 c 2xe8
 82 622 l 1
 82 656 l 1
 147 656 l 2
 169 656 198 684 198 719 c 0
 198 749 184 765 140 765 c 0xf0
 94 765 44 756 44 756 c 1
 41 788 l 1xe8
EndSplineSet
Substitution2: "Single Substitution lookup 5 subtable" threeinferior
EndChar
StartChar: acute
Encoding: 180 180 2
Width: 537
Flags: MW
HStem: 701 21G<335 335> 710 20G<322 322>
VStem: 140 195<634 701>
LayerCount: 2
Back
Fore
SplineSet
153 609 m 1xa0
 140 634 l 1xa0
 322 730 l 1x60
 335 701 l 1
 153 609 l 1xa0
EndSplineSet
EndChar
StartChar: mu
Encoding: 181 181 223
Width: 560
Flags: MW
HStem: -230 21G<108 108 108 143> -9 32<229 298 216 299.5> 0 21G<417 452 417 417> 480 20G<108 143 143 143 417 452 452 452>
VStem: 108 35<-230 40 141.5 201 201 500> 417 35<0 93 93 93 139 500 0 500>
LayerCount: 2
Back
Fore
SplineSet
108 -230 m 1xdc
 108 500 l 1
 143 500 l 1
 143 201 l 2
 143 82 175 23 257 23 c 0xdc
 339 23 417 139 417 139 c 1
 417 500 l 1
 452 500 l 1
 452 0 l 1
 417 0 l 1xbc
 417 93 l 1
 417 93 344 -9 255 -9 c 0
 203 -9 167 7 143 40 c 1
 143 -230 l 1
 108 -230 l 1xdc
EndSplineSet
EndChar
StartChar: paragraph
Encoding: 182 182 250
Width: 550
Flags: MW
HStem: 0 21G<216 250 216 216 394 428 394 394> 664 36<250 394 250 250 428 428 428 519>
VStem: 216 34<0 349 349 349> 394 34<0 664 0 664>
LayerCount: 2
Back
Fore
SplineSet
394 0 m 1
 394 664 l 1
 250 664 l 1
 250 0 l 1
 216 0 l 1
 216 349 l 1
 102 349 36 434 36 514 c 0
 36 621 93 700 210 700 c 2
 519 700 l 1
 519 664 l 1
 428 664 l 1
 428 0 l 1
 394 0 l 1
EndSplineSet
EndChar
StartChar: periodcentered
Encoding: 183 183 271
Width: 180
Flags: MW
HStem: 270 83<71 109 71 109>
VStem: 71 38<270 353 270 353>
LayerCount: 2
Back
Fore
SplineSet
71 270 m 1
 71 353 l 1
 109 353 l 1
 109 270 l 1
 71 270 l 1
EndSplineSet
Substitution2: "'case' Case-Sensitive Forms in Latin lookup 4 subtable" periodcentered.cap
EndChar
StartChar: cedilla
Encoding: 184 184 5
Width: 791
Flags: MW
HStem: -199 31<432.5 462 432.5 472> -84 31<429 437 437 448>
VStem: 398 31<-53 5 -53 5 -53 5> 494 33<-140.5 -106.5>
LayerCount: 2
Back
Fore
SplineSet
527 -124 m 0
 527 -178 495 -199 449 -199 c 0
 408 -199 373 -195 373 -195 c 1
 375 -164 l 1
 375 -164 417 -168 448 -168 c 0
 476 -168 494 -157 494 -124 c 0
 494 -89 471 -84 448 -84 c 2
 398 -84 l 1
 398 5 l 1
 429 5 l 1
 429 -53 l 1
 437 -53 l 2
 486 -53 527 -64 527 -124 c 0
EndSplineSet
EndChar
StartChar: onesuperior
Encoding: 185 185 257
Width: 280
Flags: MW
HStem: 751 39<146 182>
VStem: 146 36<478 751 751 751 478 790>
LayerCount: 2
Back
Fore
SplineSet
47 723 m 1
 146 790 l 1
 182 790 l 1
 182 478 l 1
 146 478 l 1
 146 751 l 1
 64 695 l 1
 47 723 l 1
EndSplineSet
Substitution2: "Single Substitution lookup 5 subtable" oneinferior
EndChar
StartChar: ordmasculine
Encoding: 186 186 209
Width: 339
Flags: MW
HStem: 383 36<149.5 198 149.5 207> 622 36<144 192.5>
VStem: 59 36<514.5 559 514.5 569> 246 34<484.5 529.5>
LayerCount: 2
Back
Fore
SplineSet
171 658 m 0
 219 658 254 639 269 599 c 0
 278 575 280 547 280 522 c 0
 280 428 243 383 171 383 c 0
 111 383 72 414 62 479 c 0
 60 492 59 506 59 522 c 0
 59 616 99 658 171 658 c 0
171 419 m 0
 225 419 246 447 246 522 c 0
 246 537 245 550 243 561 c 0
 235 606 214 622 171 622 c 0
 117 622 95 596 95 522 c 0
 95 507 96 493 98 482 c 0
 106 436 128 419 171 419 c 0
EndSplineSet
EndChar
StartChar: guillemotright
Encoding: 187 187 384
Width: 467
Flags: MW
HStem: 113 286<71 71 71 266>
VStem: 200 27<251 251> 395 27<251 251>
LayerCount: 2
Back
Fore
SplineSet
71 113 m 1
 71 147 l 1
 200 251 l 1
 71 365 l 1
 71 399 l 1
 227 262 l 1
 227 241 l 1
 71 113 l 1
266 113 m 1
 266 147 l 1
 395 251 l 1
 266 365 l 1
 266 399 l 1
 422 262 l 1
 422 241 l 1
 266 113 l 1
EndSplineSet
EndChar
StartChar: onequarter
Encoding: 188 188 421
Width: 519
Flags: MW
HStem: 0 91<306 412 306 448> 57 34<306 412 306 412 448 485> 751 39<129 165>
VStem: 129 36<478 751 751 751 478 790> 412 36<0 57 0 57 91 178>
LayerCount: 2
Back
Fore
SplineSet
30 723 m 1x78
 129 790 l 1
 165 790 l 1
 165 478 l 1
 129 478 l 1
 129 751 l 1
 47 695 l 1
 30 723 l 1x78
115 -1 m 1xb8
 82 12 l 1
 344 700 l 1
 377 687 l 1
 115 -1 l 1xb8
412 0 m 1
 412 57 l 1
 266 57 l 1
 266 89 l 1
 355 312 l 1
 393 312 l 1
 306 91 l 1
 412 91 l 1
 412 178 l 1
 448 178 l 1
 448 91 l 1
 485 91 l 1
 485 57 l 1
 448 57 l 1x78
 448 0 l 1
 412 0 l 1
EndSplineSet
EndChar
StartChar: onehalf
Encoding: 189 189 442
Width: 536
Flags: MW
HStem: 0 34<344 492 297 297> 287 34<375 408> 751 39<129 165>
VStem: 129 36<478 751 751 751 478 790> 449 36<217 255>
LayerCount: 2
Back
Fore
SplineSet
30 723 m 1
 129 790 l 1
 165 790 l 1
 165 478 l 1
 129 478 l 1
 129 751 l 1
 47 695 l 1
 30 723 l 1
115 -1 m 1
 82 12 l 1
 344 700 l 1
 377 687 l 1
 115 -1 l 1
492 0 m 1
 297 0 l 1
 297 34 l 1
 395 138 l 2
 424 169 449 197 449 237 c 0
 449 273 424 287 392 287 c 0
 358 287 302 275 302 275 c 1
 300 308 l 1
 300 308 351 321 393 321 c 0
 453 321 485 293 485 236 c 0
 485 189 459 156 420 115 c 2
 344 34 l 1
 492 34 l 1
 492 0 l 1
EndSplineSet
EndChar
StartChar: threequarters
Encoding: 190 190 443
Width: 548
Flags: MW
HStem: 0 91<338 444 338 480> 57 34<338 444 338 444 480 517> 469 34<129.5 176 129 185.5> 622 34<92 157 92 157> 765 34<127 172>
VStem: 208 37<701.5 734> 217 37<544 584> 444 36<0 57 0 57 91 178>
LayerCount: 2
Back
Fore
SplineSet
147 -1 m 1xbd
 114 12 l 1
 376 700 l 1
 409 687 l 1
 147 -1 l 1xbd
51 788 m 1
 51 788 104 799 149 799 c 0
 214 799 245 775 245 719 c 0x7d
 245 663 204 644 197 641 c 1
 232 631 254 618 254 562 c 0
 254 498 217 469 154 469 c 0
 105 469 47 480 47 480 c 1
 50 512 l 1
 50 512 104 503 154 503 c 0
 198 503 217 527 217 561 c 0
 217 607 191 622 157 622 c 2x7b
 92 622 l 1
 92 656 l 1
 157 656 l 2
 179 656 208 684 208 719 c 0
 208 749 194 765 150 765 c 0
 104 765 54 756 54 756 c 1
 51 788 l 1
444 0 m 1xbb
 444 57 l 1
 298 57 l 1
 298 89 l 1
 387 312 l 1
 425 312 l 1
 338 91 l 1
 444 91 l 1
 444 178 l 1
 480 178 l 1
 480 91 l 1
 517 91 l 1
 517 57 l 1
 480 57 l 1x7b
 480 0 l 1
 444 0 l 1xbb
EndSplineSet
EndChar
StartChar: questiondown
Encoding: 191 191 266
Width: 394
Flags: MW
HStem: -208 34<166 246 166 246> 417 83<212 250 212 250>
VStem: 37 38<-100 -25.5 -100 -22> 212 38<417 500 417 500>
LayerCount: 2
Back
Fore
SplineSet
37 -50 m 0
 37 6 58 41 141 139 c 0
 184 190 212 228 212 273 c 2
 212 313 l 1
 245 313 l 1
 245 313 248 287 248 273 c 0
 248 217 223 185 168 116 c 0
 97 28 75 -1 75 -50 c 0
 75 -150 116 -174 216 -174 c 0
 276 -174 358 -151 358 -151 c 1
 363 -184 l 1
 363 -184 276 -208 216 -208 c 0
 96 -208 37 -170 37 -50 c 0
250 500 m 1
 250 417 l 1
 212 417 l 1
 212 500 l 1
 250 500 l 1
EndSplineSet
Substitution2: "'case' Case-Sensitive Forms in Latin lookup 4 subtable" questiondown.cap
EndChar
StartChar: Aacute
Encoding: 193 193 17
Width: 554
Flags: MW
HStem: 0 21G<28 28 28 64 490 490 490 526> 215 33<136 417 136 427 127 417> 666 34<258 258 258 296>
VStem: 28 498<0 0>
LayerCount: 2
Back
Fore
SplineSet
233 798 m 1
 219 822 l 1
 401 919 l 1
 415 890 l 1
 233 798 l 1
28 0 m 1
 232 700 l 1
 322 700 l 1
 526 0 l 1
 490 0 l 1
 427 215 l 1
 127 215 l 1
 64 0 l 1
 28 0 l 1
258 666 m 1
 136 248 l 1
 417 248 l 1
 296 666 l 1
 258 666 l 1
EndSplineSet
Position2: "'cpsp' Capital Spacing in Latin lookup 0 subtable" dx=5 dy=0 dh=10 dv=0
EndChar
StartChar: Acircumflex
Encoding: 194 194 19
Width: 554
Flags: MW
HStem: 0 21G<28 28 28 64 490 490 490 526> 215 33<136 417 136 427 127 417> 666 34<258 258 258 296>
VStem: 28 498<0 0>
LayerCount: 2
Back
Fore
SplineSet
140 803 m 1
 268 931 l 1
 283 931 l 1
 412 803 l 1
 374 803 l 1
 276 896 l 1
 178 803 l 1
 140 803 l 1
28 0 m 1
 232 700 l 1
 322 700 l 1
 526 0 l 1
 490 0 l 1
 427 215 l 1
 127 215 l 1
 64 0 l 1
 28 0 l 1
258 666 m 1
 136 248 l 1
 417 248 l 1
 296 666 l 1
 258 666 l 1
EndSplineSet
Position2: "'cpsp' Capital Spacing in Latin lookup 0 subtable" dx=5 dy=0 dh=10 dv=0
EndChar
StartChar: Atilde
Encoding: 195 195 25
Width: 554
Flags: MW
HStem: 0 21G<28 28 28 64 490 490 490 526> 215 33<136 417 136 427 127 417> 666 34<258 258 258 296> 820 31<345 368.5 345 371> 884 30<197.5 223>
VStem: 28 498<0 0>
LayerCount: 2
Back
Fore
SplineSet
427 901 m 1
 436 877 l 1
 436 877 384 820 358 820 c 0
 318 820 238 884 208 884 c 0
 187 884 132 830 132 830 c 1
 124 855 l 1
 124 855 181 914 210 914 c 0
 251 914 330 851 360 851 c 0
 377 851 427 901 427 901 c 1
28 0 m 1
 232 700 l 1
 322 700 l 1
 526 0 l 1
 490 0 l 1
 427 215 l 1
 127 215 l 1
 64 0 l 1
 28 0 l 1
258 666 m 1
 136 248 l 1
 417 248 l 1
 296 666 l 1
 258 666 l 1
EndSplineSet
Position2: "'cpsp' Capital Spacing in Latin lookup 0 subtable" dx=5 dy=0 dh=10 dv=0
EndChar
StartChar: Adieresis
Encoding: 196 196 21
Width: 554
Flags: MW
HStem: 0 21G<28 28 28 64 490 490 490 526> 215 33<136 417 136 427 127 417> 666 34<258 258 258 296> 831 66<172 200 172 200 352 379>
VStem: 172 28<831 897 831 897> 352 27<831 897 831 897>
LayerCount: 2
Back
Fore
SplineSet
172 831 m 1
 172 897 l 1
 200 897 l 1
 200 831 l 1
 172 831 l 1
352 831 m 1
 352 897 l 1
 379 897 l 1
 379 831 l 1
 352 831 l 1
28 0 m 1
 232 700 l 1
 322 700 l 1
 526 0 l 1
 490 0 l 1
 427 215 l 1
 127 215 l 1
 64 0 l 1
 28 0 l 1
258 666 m 1
 136 248 l 1
 417 248 l 1
 296 666 l 1
 258 666 l 1
EndSplineSet
Position2: "'cpsp' Capital Spacing in Latin lookup 0 subtable" dx=5 dy=0 dh=10 dv=0
EndChar
StartChar: Aring
Encoding: 197 197 24
Width: 554
Flags: MW
HStem: 0 21G<28 28 28 64 490 490 490 526> 215 33<136 417 136 427 127 417> 666 34<258 258 258 296> 680 20 815 29<258 296>
VStem: 191 25<741 774.5 741 784> 337 26<741 774.5>
LayerCount: 2
Back
Fore
SplineSet
28 0 m 1xee
 226 679 l 1
 203 693 191 719 191 755 c 0
 191 813 222 844 277 844 c 0
 330 844 363 813 363 755 c 0
 363 719 350 694 328 680 c 1xde
 526 0 l 1
 490 0 l 1
 427 215 l 1
 127 215 l 1
 64 0 l 1
 28 0 l 1xee
258 666 m 1xee
 136 248 l 1
 417 248 l 1
 296 666 l 1
 258 666 l 1xee
216 755 m 0
 216 727 228 708 250 700 c 1
 303 700 l 1
 325 708 337 727 337 755 c 0
 337 794 315 815 277 815 c 0
 239 815 216 794 216 755 c 0
EndSplineSet
Position2: "'cpsp' Capital Spacing in Latin lookup 0 subtable" dx=5 dy=0 dh=10 dv=0
EndChar
StartChar: Ccedilla
Encoding: 199 199 32
Width: 504
Flags: MW
HStem: -199 31<300.5 330 300.5 340> -84 31<297 305 305 316> -9 34<297 297> -8 33<266 266> 675 34<208 330.5>
VStem: 62 38<253.5 440.5 253.5 451> 266 31<-53 -9 -53 -8 -53 -8> 362 33<-140.5 -106.5>
LayerCount: 2
Back
Fore
SplineSet
459 45 m 1xdf
 462 11 l 1xdf
 462 11 371 -8 297 -9 c 1xef
 297 -53 l 1
 305 -53 l 2
 354 -53 395 -64 395 -124 c 0
 395 -178 363 -199 317 -199 c 0
 276 -199 241 -195 241 -195 c 1
 243 -164 l 1
 243 -164 285 -168 316 -168 c 0
 344 -168 362 -157 362 -124 c 0
 362 -89 339 -84 316 -84 c 2
 266 -84 l 1
 266 -8 l 1
 98 4 62 139 62 347 c 0
 62 555 100 709 292 709 c 0
 382 709 462 689 462 689 c 1
 459 655 l 1
 459 655 369 675 292 675 c 0
 124 675 100 534 100 347 c 0
 100 160 127 25 292 25 c 0
 359 25 459 45 459 45 c 1xdf
EndSplineSet
Position2: "'cpsp' Capital Spacing in Latin lookup 0 subtable" dx=5 dy=0 dh=10 dv=0
EndChar
StartChar: Egrave
Encoding: 200 200 45
Width: 510
Flags: MW
HStem: 0 33<121 462 121 462> 343 33<121 406 121 406> 667 33<121 462 121 121>
VStem: 85 36<33 343 376 667>
LayerCount: 2
Back
Fore
SplineSet
178 919 m 1
 359 822 l 1
 347 798 l 1
 164 890 l 1
 178 919 l 1
85 0 m 1
 85 700 l 1
 462 700 l 1
 462 667 l 1
 121 667 l 1
 121 376 l 1
 406 376 l 1
 406 343 l 1
 121 343 l 1
 121 33 l 1
 462 33 l 1
 462 0 l 1
 85 0 l 1
EndSplineSet
Position2: "'cpsp' Capital Spacing in Latin lookup 0 subtable" dx=5 dy=0 dh=10 dv=0
EndChar
StartChar: Eacute
Encoding: 201 201 39
Width: 510
Flags: MW
HStem: 0 33<121 462 121 462> 343 33<121 406 121 406> 667 33<121 462 121 121>
VStem: 85 36<33 343 376 667>
LayerCount: 2
Back
Fore
SplineSet
206 798 m 1
 192 822 l 1
 374 919 l 1
 388 890 l 1
 206 798 l 1
85 0 m 1
 85 700 l 1
 462 700 l 1
 462 667 l 1
 121 667 l 1
 121 376 l 1
 406 376 l 1
 406 343 l 1
 121 343 l 1
 121 33 l 1
 462 33 l 1
 462 0 l 1
 85 0 l 1
EndSplineSet
Position2: "'cpsp' Capital Spacing in Latin lookup 0 subtable" dx=5 dy=0 dh=10 dv=0
EndChar
StartChar: Ecircumflex
Encoding: 202 202 42
Width: 510
Flags: MW
HStem: 0 33<121 462 121 462> 343 33<121 406 121 406> 667 33<121 462 121 121>
VStem: 85 36<33 343 376 667>
LayerCount: 2
Back
Fore
SplineSet
138 803 m 1
 266 931 l 1
 281 931 l 1
 410 803 l 1
 372 803 l 1
 274 896 l 1
 176 803 l 1
 138 803 l 1
85 0 m 1
 85 700 l 1
 462 700 l 1
 462 667 l 1
 121 667 l 1
 121 376 l 1
 406 376 l 1
 406 343 l 1
 121 343 l 1
 121 33 l 1
 462 33 l 1
 462 0 l 1
 85 0 l 1
EndSplineSet
Position2: "'cpsp' Capital Spacing in Latin lookup 0 subtable" dx=5 dy=0 dh=10 dv=0
EndChar
StartChar: Edieresis
Encoding: 203 203 43
Width: 510
Flags: MW
HStem: 0 33<121 462 121 462> 343 33<121 406 121 406> 667 33<121 462 121 121> 831 66<179 207 179 207 359 386>
VStem: 85 36<33 343 376 667> 179 28<831 897 831 897> 359 27<831 897 831 897>
LayerCount: 2
Back
Fore
SplineSet
179 831 m 1
 179 897 l 1
 207 897 l 1
 207 831 l 1
 179 831 l 1
359 831 m 1
 359 897 l 1
 386 897 l 1
 386 831 l 1
 359 831 l 1
85 0 m 1
 85 700 l 1
 462 700 l 1
 462 667 l 1
 121 667 l 1
 121 376 l 1
 406 376 l 1
 406 343 l 1
 121 343 l 1
 121 33 l 1
 462 33 l 1
 462 0 l 1
 85 0 l 1
EndSplineSet
Position2: "'cpsp' Capital Spacing in Latin lookup 0 subtable" dx=5 dy=0 dh=10 dv=0
EndChar
StartChar: Icircumflex
Encoding: 206 206 60
Width: 206
Flags: MW
HStem: 0 21G<85 85 85 121>
VStem: 85 36<0 700 0 700>
LayerCount: 2
Back
Fore
SplineSet
-34 798 m 1
 94 926 l 1
 109 926 l 1
 238 798 l 1
 200 798 l 1
 102 891 l 1
 4 798 l 1
 -34 798 l 1
85 0 m 1
 85 700 l 1
 121 700 l 1
 121 0 l 1
 85 0 l 1
EndSplineSet
Position2: "'cpsp' Capital Spacing in Latin lookup 0 subtable" dx=5 dy=0 dh=10 dv=0
EndChar
StartChar: Idieresis
Encoding: 207 207 61
Width: 206
Flags: MW
HStem: 0 21G<85 85 85 121> 831 66<1 29 1 29 181 208>
VStem: 1 28<831 897 831 897> 85 36<0 700 0 700> 181 27<831 897 831 897>
LayerCount: 2
Back
Fore
SplineSet
1 831 m 1
 1 897 l 1
 29 897 l 1
 29 831 l 1
 1 831 l 1
181 831 m 1
 181 897 l 1
 208 897 l 1
 208 831 l 1
 181 831 l 1
85 0 m 1
 85 700 l 1
 121 700 l 1
 121 0 l 1
 85 0 l 1
EndSplineSet
Position2: "'cpsp' Capital Spacing in Latin lookup 0 subtable" dx=5 dy=0 dh=10 dv=0
EndChar
StartChar: multiply
Encoding: 215 215 183
Width: 560
Flags: MW
HStem: 52 398<105 105 105 455>
VStem: 81 398<76 76 76 426>
LayerCount: 2
Back
Fore
SplineSet
105 450 m 1
 280 274 l 1
 455 450 l 1
 479 426 l 1
 303 251 l 1
 479 76 l 1
 455 52 l 1
 280 228 l 1
 105 52 l 1
 81 76 l 1
 257 251 l 1
 81 426 l 1
 105 450 l 1
EndSplineSet
EndChar
StartChar: Ucircumflex
Encoding: 219 219 113
Width: 596
Flags: MW
HStem: -9 33<238 358 238 369>
VStem: 81 36<197 700> 479 36<197 700>
LayerCount: 2
Back
Fore
SplineSet
117 700 m 1
 117 197 l 2
 117 73 178 24 298 24 c 0
 418 24 479 72 479 197 c 2
 479 700 l 1
 515 700 l 1
 515 197 l 2
 515 58 440 -9 298 -9 c 0
 156 -9 81 58 81 197 c 2
 81 700 l 1
 117 700 l 1
162 802 m 1
 290 930 l 1
 305 930 l 1
 434 802 l 1
 396 802 l 1
 298 895 l 1
 200 802 l 1
 162 802 l 1
EndSplineSet
Position2: "'cpsp' Capital Spacing in Latin lookup 0 subtable" dx=5 dy=0 dh=10 dv=0
EndChar
StartChar: Udieresis
Encoding: 220 220 114
Width: 596
Flags: MW
HStem: -9 33<238 358 238 369> 833 65<192 226 192 226 372 404>
VStem: 81 36<197 700> 192 34<833 898 833 898> 372 32<833 898 833 898> 479 36<197 700>
LayerCount: 2
Back
Fore
SplineSet
192 833 m 1
 192 898 l 1
 226 898 l 1
 226 833 l 1
 192 833 l 1
372 833 m 1
 372 898 l 1
 404 898 l 1
 404 833 l 1
 372 833 l 1
117 700 m 1
 117 197 l 2
 117 73 178 24 298 24 c 0
 418 24 479 72 479 197 c 2
 479 700 l 1
 515 700 l 1
 515 197 l 2
 515 58 440 -9 298 -9 c 0
 156 -9 81 58 81 197 c 2
 81 700 l 1
 117 700 l 1
EndSplineSet
Position2: "'cpsp' Capital Spacing in Latin lookup 0 subtable" dx=5 dy=0 dh=10 dv=0
EndChar
StartChar: Thorn
Encoding: 222 222 192
Width: 556
Flags: MW
HStem: 0 168<85 316 85 316> 134 34<119 316 119 316> 545 34<119 316 119 316>
VStem: 85 34<0 134 168 545 579 700> 474 38<304.5 410>
LayerCount: 2
Back
Fore
SplineSet
316 168 m 2x78
 430 168 474 250 474 359 c 0
 474 461 434 545 316 545 c 2
 119 545 l 1
 119 168 l 1
 316 168 l 2x78
316 134 m 2
 119 134 l 1x78
 119 0 l 1
 85 0 l 1xb8
 85 700 l 1
 119 700 l 1
 119 579 l 1
 316 579 l 2
 436 579 512 513 512 359 c 0
 512 224 453 134 316 134 c 2
EndSplineSet
Position2: "'cpsp' Capital Spacing in Latin lookup 0 subtable" dx=5 dy=0 dh=10 dv=0
EndChar
StartChar: germandbls
Encoding: 223 223 188
Width: 518
Flags: MW
HStem: -9 32<283 353.5 283 362.5> -3 26 0 21G<74 108 74 74> 707 21G<192.5 284> 719 20G<180 298.5>
VStem: 74 34<0 554> 236 36<399 426.5 399 433.5> 362 36<576 644> 441 36<120.5 204>
LayerCount: 2
Back
Fore
SplineSet
108 0 m 1x3780
 74 0 l 1x3780
 74 557 l 2
 74 704 123 739 237 739 c 0
 360 739 398 694 398 603 c 0
 398 531 380 504 332 477 c 0
 287 452 272 439 272 414 c 0
 272 384 287 371 349 336 c 0
 443 283 477 259 477 166 c 0
 477 45 424 -9 301 -9 c 0x8f80
 265 -9 199 -3 199 -3 c 1x5780
 201 30 l 1
 201 30 266 23 300 23 c 0x9780
 407 23 441 72 441 169 c 0
 441 239 422 256 327 309 c 0
 266 343 236 366 236 414 c 0
 236 453 252 472 312 505 c 0
 348 525 362 549 362 603 c 0
 362 685 331 707 237 707 c 0
 148 707 108 682 108 554 c 2
 108 0 l 1x3780
EndSplineSet
EndChar
StartChar: agrave
Encoding: 224 224 162
Width: 481
Flags: MW
HStem: -9 32<164.5 259 164.5 259> 0 21G<413 413> 477 32<191 276> 701 21G<153 153> 710 20G<167 167>
VStem: 56 37<174 314 174 320> 372 35<80 100 151 465 465 465>
LayerCount: 2
Back
Fore
SplineSet
209 -9 m 0xae
 93 -9 56 78 56 237 c 0
 56 403 94 509 254 509 c 0
 299 509 407 493 407 493 c 1
 407 110 l 2
 407 50 413 0 413 0 c 1
 377 -2 l 1x6e
 377 -2 372 53 372 100 c 1
 372 100 309 -9 209 -9 c 0xae
261 477 m 0
 121 477 93 391 93 237 c 0
 93 111 116 23 213 23 c 0
 305 23 372 151 372 151 c 1
 372 465 l 1
 372 465 291 477 261 477 c 0
167 730 m 1
 348 634 l 1xae
 336 609 l 1
 153 701 l 1xb6
 167 730 l 1
EndSplineSet
EndChar
StartChar: atilde
Encoding: 227 227 165
Width: 481
Flags: MW
HStem: -9 32<164.5 259 164.5 259> 0 21G<413 413> 477 32<191 276> 630 31<326.5 349.5 326.5 351.5> 665 21G<124 124> 681 32<188.5 213.5> 700 21G<398 398>
VStem: 56 37<174 314 174 320> 372 35<80 100 151 465 465 465>
LayerCount: 2
Back
Fore
SplineSet
209 -9 m 0xab80
 93 -9 56 78 56 237 c 0
 56 403 94 509 254 509 c 0
 299 509 407 493 407 493 c 1
 407 110 l 2
 407 50 413 0 413 0 c 1
 377 -2 l 1x6b80
 377 -2 372 53 372 100 c 1
 372 100 309 -9 209 -9 c 0xab80
261 477 m 0
 121 477 93 391 93 237 c 0
 93 111 116 23 213 23 c 0
 305 23 372 151 372 151 c 1
 372 465 l 1
 372 465 291 477 261 477 c 0
398 700 m 1
 406 674 l 1
 406 674 365 630 338 630 c 0xb380
 300 630 228 681 199 681 c 0
 178 681 132 637 132 637 c 1
 124 665 l 1
 124 665 172 713 202 713 c 0xa580
 235 713 313 661 340 661 c 0xb380
 359 661 398 700 398 700 c 1
EndSplineSet
EndChar
StartChar: adieresis
Encoding: 228 228 164
Width: 481
Flags: MW
HStem: -9 32<164.5 259 164.5 259> 0 21G<413 413> 477 32<191 276> 633 65<136 170 136 170 316 348>
VStem: 56 37<174 314 174 320> 136 34<633 698 633 698> 316 32<633 698 633 698> 372 35<80 100 151 465 465 465>
LayerCount: 2
Back
Fore
SplineSet
136 633 m 1xbd
 136 698 l 1
 170 698 l 1
 170 633 l 1
 136 633 l 1xbd
316 633 m 1xbf
 316 698 l 1
 348 698 l 1
 348 633 l 1
 316 633 l 1xbf
209 -9 m 0
 93 -9 56 78 56 237 c 0
 56 403 94 509 254 509 c 0
 299 509 407 493 407 493 c 1
 407 110 l 2
 407 50 413 0 413 0 c 1
 377 -2 l 1x7d
 377 -2 372 53 372 100 c 1xbd
 372 100 309 -9 209 -9 c 0
261 477 m 0xbd
 121 477 93 391 93 237 c 0
 93 111 116 23 213 23 c 0
 305 23 372 151 372 151 c 1
 372 465 l 1
 372 465 291 477 261 477 c 0xbd
EndSplineSet
EndChar
StartChar: ccedilla
Encoding: 231 231 189
Width: 397
Flags: MW
HStem: -199 31<241.5 271 241.5 281> -84 31<238 246 246 257> -9 32<238 250 238 238> -6 29<207 207> 477 32<190 268>
VStem: 56 37<188.5 334 188.5 348.5> 207 31<-53 -9 -53 -6 -53 -6> 303 33<-140.5 -106.5>
LayerCount: 2
Back
Fore
SplineSet
250 509 m 0xef
 286 509 356 499 356 499 c 1
 354 467 l 1
 354 467 286 477 250 477 c 0
 130 477 93 407 93 261 c 0
 93 116 110 23 250 23 c 0
 286 23 354 32 354 32 c 1
 356 0 l 1
 356 0 286 -9 250 -9 c 2
 238 -9 l 1xef
 238 -53 l 1
 246 -53 l 2
 295 -53 336 -64 336 -124 c 0
 336 -178 304 -199 258 -199 c 0
 217 -199 182 -195 182 -195 c 1
 184 -164 l 1
 184 -164 226 -168 257 -168 c 0
 285 -168 303 -157 303 -124 c 0
 303 -89 280 -84 257 -84 c 2
 207 -84 l 1
 207 -6 l 1xdf
 77 9 56 104 56 261 c 0
 56 436 110 509 250 509 c 0xef
EndSplineSet
EndChar
StartChar: egrave
Encoding: 232 232 168
Width: 445
Flags: MW
HStem: -9 32<178 263 178 270.5> 238 32<92 155 155 156 92 155> 476 32<196 285> 701 21G<126 126> 710 20G<140 140>
VStem: 55 37<162.5 225 225 238> 364 36<342 421>
LayerCount: 2
Back
Fore
SplineSet
227 23 m 0xee
 299 23 378 46 378 46 c 1
 383 17 l 1
 383 17 315 -9 226 -9 c 0
 105 -9 55 66 55 249 c 0
 55 425 119 508 253 508 c 0
 337 508 400 472 400 389 c 0
 400 274 330 238 156 238 c 2
 92 238 l 1
 92 225 l 2
 92 100 129 23 227 23 c 0xee
92 270 m 1
 155 270 l 2
 307 270 364 295 364 389 c 0
 364 453 318 476 252 476 c 0
 140 476 93 405 92 270 c 1
140 730 m 1
 321 634 l 1xee
 309 609 l 1
 126 701 l 1xf6
 140 730 l 1
EndSplineSet
EndChar
StartChar: igrave
Encoding: 236 236 186
Width: 183
Flags: MW
HStem: 0 21G<74 74 74 109> 480 20G<74 109 109 109> 701 21G<-65 -65> 710 20G<-51 -51>
VStem: 74 35<0 500 0 500>
LayerCount: 2
Back
Fore
SplineSet
74 0 m 1xd8
 74 500 l 1
 109 500 l 1
 109 0 l 1
 74 0 l 1xd8
-51 730 m 1
 130 634 l 1xd8
 118 609 l 1
 -65 701 l 1xe8
 -51 730 l 1
EndSplineSet
EndChar
StartChar: iacute
Encoding: 237 237 185
Width: 183
Flags: MW
HStem: 0 21G<74 74 74 109> 480 20G<74 109 109 109> 701 21G<255 255> 710 20G<242 242>
VStem: 74 35<0 500 0 500>
LayerCount: 2
Back
Fore
SplineSet
74 0 m 1xd8
 74 500 l 1
 109 500 l 1
 109 0 l 1
 74 0 l 1xd8
73 609 m 1xe8
 60 634 l 1xe8
 242 730 l 1xd8
 255 701 l 1
 73 609 l 1xe8
EndSplineSet
EndChar
StartChar: icircumflex
Encoding: 238 238 187
Width: 183
Flags: MW
HStem: 0 21G<74 74 74 109> 480 20G<74 109 109 109> 695 35<92 92>
VStem: 74 35<0 500 0 500>
LayerCount: 2
Back
Fore
SplineSet
-38 595 m 1
 80 730 l 1
 103 730 l 1
 222 595 l 1
 180 595 l 1
 92 695 l 1
 4 595 l 1
 -38 595 l 1
74 0 m 1
 74 500 l 1
 109 500 l 1
 109 0 l 1
 74 0 l 1
EndSplineSet
EndChar
StartChar: idieresis
Encoding: 239 239 171
Width: 183
Flags: MW
HStem: 0 21G<74 74 74 109> 480 20G<74 109 109 109> 633 65<-14 20 -14 20 166 198>
VStem: -14 34<633 698 633 698> 74 35<0 500 0 500> 166 32<633 698 633 698>
LayerCount: 2
Back
Fore
SplineSet
-14 633 m 1
 -14 698 l 1
 20 698 l 1
 20 633 l 1
 -14 633 l 1
166 633 m 1
 166 698 l 1
 198 698 l 1
 198 633 l 1
 166 633 l 1
74 0 m 1
 74 500 l 1
 109 500 l 1
 109 0 l 1
 74 0 l 1
EndSplineSet
EndChar
StartChar: eth
Encoding: 240 240 191
Width: 506
Flags: MW
HStem: -9 38<192 308 192 318.5> 388 38<187.5 271> 702 21G<99 99>
VStem: 44 37<149.5 258.5 149.5 271> 416 33
LayerCount: 2
Back
Fore
SplineSet
254 632 m 1
 144 554 l 1
 125 581 l 1
 223 650 l 1
 187 669 146 686 99 702 c 1
 113 737 l 1
 165 720 213 699 257 674 c 1
 350 741 l 1
 370 714 l 1
 287 656 l 1
 385 590 449 498 449 361 c 0
 449 84 390 -9 247 -9 c 0
 115 -9 44 69 44 201 c 0
 44 341 112 426 236 426 c 0
 307 426 415 382 415 382 c 1
 408 484 360 567 254 632 c 1
238 388 m 0
 137 388 81 316 81 201 c 0
 81 98 137 29 247 29 c 0
 369 29 414 101 416 343 c 1
 410 346 304 388 238 388 c 0
EndSplineSet
EndChar
StartChar: ntilde
Encoding: 241 241 172
Width: 488
Flags: MW
HStem: 630 31<316.5 339.5 316.5 341.5> 665 21G<114 114> 681 32<178.5 203.5> 700 21G<388 388>
VStem: 109 274<0 299 0 361 0 361 0 500 0 500>
LayerCount: 2
Back
Fore
SplineSet
74 0 m 1x58
 109 0 l 1
 109 361 l 1
 109 361 187 477 269 477 c 0
 351 477 383 418 383 299 c 2
 383 0 l 1
 418 0 l 1
 418 313 l 2
 418 444 373 509 271 509 c 0
 182 509 109 407 109 407 c 1
 109 500 l 1
 74 500 l 1
 74 0 l 1x58
388 700 m 1
 396 674 l 1
 396 674 355 630 328 630 c 0x98
 290 630 218 681 189 681 c 0
 168 681 122 637 122 637 c 1
 114 665 l 1
 114 665 162 713 192 713 c 0x28
 225 713 303 661 330 661 c 0x98
 349 661 388 700 388 700 c 1
EndSplineSet
EndChar
StartChar: ograve
Encoding: 242 242 174
Width: 486
Flags: MW
HStem: -9 32<171 315 171 329.5> 477 32<184 302> 701 21G<130 130> 710 20G<144 144>
VStem: 57 36<184.5 337 184.5 343> 393 36<184.5 337>
LayerCount: 2
Back
Fore
SplineSet
243 509 m 0xdc
 391 509 429 427 429 259 c 0
 429 91 416 -9 243 -9 c 0
 70 -9 57 91 57 259 c 0
 57 427 95 509 243 509 c 0xdc
243 23 m 0
 387 23 393 110 393 259 c 0
 393 415 361 477 243 477 c 0
 125 477 93 415 93 259 c 0
 93 110 99 23 243 23 c 0
144 730 m 1
 325 634 l 1xdc
 313 609 l 1
 130 701 l 1xec
 144 730 l 1
EndSplineSet
EndChar
StartChar: ocircumflex
Encoding: 244 244 175
Width: 486
Flags: MW
HStem: -9 32<171 315 171 329.5> 477 32<184 302> 695 35<243 243>
VStem: 57 36<184.5 337 184.5 343> 393 36<184.5 337>
LayerCount: 2
Back
Fore
SplineSet
113 595 m 1
 231 730 l 1
 254 730 l 1
 373 595 l 1
 331 595 l 1
 243 695 l 1
 155 595 l 1
 113 595 l 1
243 509 m 0
 391 509 429 427 429 259 c 0
 429 91 416 -9 243 -9 c 0
 70 -9 57 91 57 259 c 0
 57 427 95 509 243 509 c 0
243 23 m 0
 387 23 393 110 393 259 c 0
 393 415 361 477 243 477 c 0
 125 477 93 415 93 259 c 0
 93 110 99 23 243 23 c 0
EndSplineSet
EndChar
StartChar: otilde
Encoding: 245 245 177
Width: 486
Flags: MW
HStem: -9 32<171 315 171 329.5> 477 32<184 302> 630 31<304.5 327.5 304.5 329.5> 665 21G<102 102> 681 32<166.5 191.5> 700 21G<376 376>
VStem: 57 36<184.5 337 184.5 343> 393 36<184.5 337>
LayerCount: 2
Back
Fore
SplineSet
243 509 m 0xd7
 391 509 429 427 429 259 c 0
 429 91 416 -9 243 -9 c 0
 70 -9 57 91 57 259 c 0
 57 427 95 509 243 509 c 0xd7
243 23 m 0
 387 23 393 110 393 259 c 0
 393 415 361 477 243 477 c 0
 125 477 93 415 93 259 c 0
 93 110 99 23 243 23 c 0
376 700 m 1
 384 674 l 1
 384 674 343 630 316 630 c 0xe7
 278 630 206 681 177 681 c 0
 156 681 110 637 110 637 c 1
 102 665 l 1
 102 665 150 713 180 713 c 0xcb
 213 713 291 661 318 661 c 0xe7
 337 661 376 700 376 700 c 1
EndSplineSet
EndChar
StartChar: ucircumflex
Encoding: 251 251 180
Width: 488
Flags: MW
HStem: -9 32<178 260 178 261.5> 0 21G<379 414 379 379> 480 20G<70 105 105 105 379 414 414 414> 695 35<244 244> 710 20G<232 255 255 255>
VStem: 70 35<197 201 201 500> 379 35<0 93 93 93 139 500 0 500>
LayerCount: 2
Back
Fore
SplineSet
114 595 m 1xb6
 232 730 l 1
 255 730 l 1
 374 595 l 1
 332 595 l 1
 244 695 l 1
 156 595 l 1
 114 595 l 1xb6
379 500 m 1
 414 500 l 1
 414 0 l 1
 379 0 l 1x6e
 379 93 l 1
 379 93 306 -9 217 -9 c 0
 113 -9 70 56 70 197 c 2
 70 500 l 1
 105 500 l 1
 105 201 l 2
 105 82 137 23 219 23 c 0
 301 23 379 139 379 139 c 1
 379 500 l 1
EndSplineSet
EndChar
StartChar: yacute
Encoding: 253 253 154
Width: 442
Flags: MW
HStem: -230 21G<164 200 164 164> 0 32<200 232 174 240> 480 20G<31 68 68 68 374 412 412 412> 701 21G<358 358> 710 20G<345 345>
VStem: 31 381<500 500>
LayerCount: 2
Back
Fore
SplineSet
31 500 m 1xec
 68 500 l 1
 200 32 l 1
 240 32 l 1
 374 500 l 1
 412 500 l 1
 200 -230 l 1
 164 -230 l 1
 232 0 l 1
 174 0 l 1
 31 500 l 1xec
176 609 m 1xf4
 163 634 l 1xf4
 345 730 l 1xec
 358 701 l 1
 176 609 l 1xf4
EndSplineSet
EndChar
StartChar: thorn
Encoding: 254 254 447
Width: 481
Flags: MW
HStem: -9 34<199.5 287 199.5 301> 474 35<223 310>
VStem: 74 34<-228 1 37 362 409 728> 388 38<175.5 306>
LayerCount: 2
Back
Fore
SplineSet
108 362 m 1
 108 37 l 1
 108 37 175 25 224 25 c 0
 350 25 388 103 388 248 c 0
 388 364 359 474 261 474 c 0
 180 474 108 362 108 362 c 1
261 509 m 0
 397 509 426 372 426 248 c 0
 426 88 378 -9 224 -9 c 0
 175 -9 108 1 108 1 c 1
 108 -228 l 1
 74 -228 l 1
 74 728 l 1
 108 728 l 1
 108 409 l 1
 118 423 185 509 261 509 c 0
EndSplineSet
EndChar
StartChar: ydieresis
Encoding: 255 255 152
Width: 442
Flags: MW
HStem: -230 21G<164 200 164 164> 0 32<200 232 174 240> 480 20G<31 68 68 68 374 412 412 412> 633 65<115 149 115 149 295 327>
VStem: 115 34<633 698 633 698> 295 32<633 698 633 698>
LayerCount: 2
Back
Fore
SplineSet
115 633 m 1
 115 698 l 1
 149 698 l 1
 149 633 l 1
 115 633 l 1
295 633 m 1
 295 698 l 1
 327 698 l 1
 327 633 l 1
 295 633 l 1
31 500 m 1
 68 500 l 1
 200 32 l 1
 240 32 l 1
 374 500 l 1
 412 500 l 1
 200 -230 l 1
 164 -230 l 1
 232 0 l 1
 174 0 l 1
 31 500 l 1
EndSplineSet
EndChar
StartChar: amacron
Encoding: 257 257 301
Width: 481
Flags: MW
HStem: -9 32<164.5 259 164.5 259> 0 21G<413 413> 477 32<191 276> 647 26<127 379 127 379>
VStem: 56 37<174 314 174 320> 372 35<80 100 151 465 465 465>
LayerCount: 2
Back
Fore
SplineSet
209 -9 m 0xbc
 93 -9 56 78 56 237 c 0
 56 403 94 509 254 509 c 0
 299 509 407 493 407 493 c 1
 407 110 l 2
 407 50 413 0 413 0 c 1
 377 -2 l 1x7c
 377 -2 372 53 372 100 c 1
 372 100 309 -9 209 -9 c 0xbc
261 477 m 0
 121 477 93 391 93 237 c 0
 93 111 116 23 213 23 c 0
 305 23 372 151 372 151 c 1
 372 465 l 1
 372 465 291 477 261 477 c 0
127 647 m 1
 127 673 l 1
 379 673 l 1
 379 647 l 1
 127 647 l 1
EndSplineSet
EndChar
StartChar: Abreve
Encoding: 258 258 18
Width: 554
Flags: MW
HStem: 0 21G<28 28 28 64 490 490 490 526> 215 33<136 417 136 427 127 417> 666 34<258 258 258 296> 803 30<250.5 303 250.5 312>
VStem: 152 32<892.5 920 892.5 920> 370 32<892.5 920>
LayerCount: 2
Back
Fore
SplineSet
152 920 m 1
 184 920 l 1
 184 865 224 833 277 833 c 0
 329 833 370 865 370 920 c 1
 402 920 l 1
 402 844 347 803 277 803 c 0
 207 803 152 844 152 920 c 1
28 0 m 1
 232 700 l 1
 322 700 l 1
 526 0 l 1
 490 0 l 1
 427 215 l 1
 127 215 l 1
 64 0 l 1
 28 0 l 1
258 666 m 1
 136 248 l 1
 417 248 l 1
 296 666 l 1
 258 666 l 1
EndSplineSet
Position2: "'cpsp' Capital Spacing in Latin lookup 0 subtable" dx=5 dy=0 dh=10 dv=0
EndChar
StartChar: abreve
Encoding: 259 259 302
Width: 481
Flags: MW
HStem: -9 32<164.5 259 164.5 259> 0 21G<413 413> 477 32<191 276> 595 28<216.5 277.5 216.5 286>
VStem: 56 37<174 314 174 320> 122 28<693 721 693 721> 344 28<693 721> 372 35<80 100 151 465 465 465>
LayerCount: 2
Back
Fore
SplineSet
209 -9 m 0xb9
 93 -9 56 78 56 237 c 0
 56 403 94 509 254 509 c 0
 299 509 407 493 407 493 c 1
 407 110 l 2
 407 50 413 0 413 0 c 1
 377 -2 l 1x79
 377 -2 372 53 372 100 c 1
 372 100 309 -9 209 -9 c 0xb9
261 477 m 0
 121 477 93 391 93 237 c 0
 93 111 116 23 213 23 c 0
 305 23 372 151 372 151 c 1
 372 465 l 1
 372 465 291 477 261 477 c 0
122 721 m 1xbe
 150 721 l 1
 150 665 186 623 247 623 c 0
 308 623 344 665 344 721 c 1
 372 721 l 1
 372 643 325 595 247 595 c 0
 169 595 122 643 122 721 c 1xbe
EndSplineSet
EndChar
StartChar: Aogonek
Encoding: 260 260 23
Width: 553
Flags: MW
HStem: -198 34<477 497 477 500> 0 21G<28 28 28 64 522 522 522 526> 215 33<136 417 136 427 127 417> 666 34<258 258 258 296>
VStem: 413 36<-135.5 -107.5 -135.5 -105>
LayerCount: 2
Back
Fore
SplineSet
28 0 m 1
 232 700 l 1
 322 700 l 1
 524 5 l 1
 527 5 l 1
 525 3 l 1
 526 0 l 1
 522 0 l 1
 479 -50 449 -91 449 -124 c 0
 449 -147 466 -164 488 -164 c 0
 506 -164 545 -157 545 -157 c 1
 548 -190 l 1
 548 -190 514 -198 486 -198 c 0
 438 -198 413 -168 413 -127 c 0
 413 -83 458 -27 488 6 c 1
 427 215 l 1
 127 215 l 1
 64 0 l 1
 28 0 l 1
258 666 m 1
 136 248 l 1
 417 248 l 1
 296 666 l 1
 258 666 l 1
EndSplineSet
Position2: "'cpsp' Capital Spacing in Latin lookup 0 subtable" dx=5 dy=0 dh=10 dv=0
EndChar
StartChar: aogonek
Encoding: 261 261 304
Width: 481
Flags: MW
HStem: -198 34<362 382 362 385> -9 21G<151 259> -9 32<164.5 259 164.5 259> 0 21G<407 413 407 407> 477 32<191 276>
VStem: 56 37<174 314 174 320> 298 36<-135.5 -107.5 -135.5 -104.5> 372 35<82.5 100 151 465 465 465>
LayerCount: 2
Back
Fore
SplineSet
430 -157 m 1xaf
 433 -190 l 1
 433 -190 399 -198 371 -198 c 0
 323 -198 298 -168 298 -127 c 0
 298 -82 347 -23 376 10 c 1xcf
 374 28 372 65 372 100 c 1
 372 100 309 -9 209 -9 c 0xaf
 93 -9 56 78 56 237 c 0
 56 403 94 509 254 509 c 0
 299 509 407 493 407 493 c 1
 407 110 l 2
 407 50 413 0 413 0 c 1
 407 0 l 1x9f
 364 -51 334 -91 334 -124 c 0
 334 -147 351 -164 373 -164 c 0
 391 -164 430 -157 430 -157 c 1xaf
261 477 m 0
 121 477 93 391 93 237 c 0
 93 111 116 23 213 23 c 0xaf
 305 23 372 151 372 151 c 1
 372 465 l 1
 372 465 291 477 261 477 c 0
EndSplineSet
EndChar
StartChar: cacute
Encoding: 263 263 306
Width: 397
Flags: MW
HStem: -9 32<180 268 180 268> 477 32<190 268> 701 21G<365 365> 710 20G<352 352>
VStem: 56 37<188.5 334 188.5 348.5>
LayerCount: 2
Back
Fore
SplineSet
250 509 m 0xd8
 286 509 356 499 356 499 c 1
 354 467 l 1
 354 467 286 477 250 477 c 0
 130 477 93 407 93 261 c 0
 93 116 110 23 250 23 c 0
 286 23 354 32 354 32 c 1
 356 0 l 1
 356 0 286 -9 250 -9 c 0
 82 -9 56 88 56 261 c 0
 56 436 110 509 250 509 c 0xd8
183 609 m 1xe8
 170 634 l 1xe8
 352 730 l 1xd8
 365 701 l 1
 183 609 l 1xe8
EndSplineSet
EndChar
StartChar: Ccircumflex
Encoding: 264 264 33
Width: 504
Flags: MW
HStem: -9 34<209.5 325.5 209.5 329.5> 675 34<208 330.5>
VStem: 62 38<253.5 440.5 253.5 451>
LayerCount: 2
Back
Fore
SplineSet
459 45 m 1
 462 11 l 1
 462 11 367 -9 292 -9 c 0
 102 -9 62 129 62 347 c 0
 62 555 100 709 292 709 c 0
 382 709 462 689 462 689 c 1
 459 655 l 1
 459 655 369 675 292 675 c 0
 124 675 100 534 100 347 c 0
 100 160 127 25 292 25 c 0
 359 25 459 45 459 45 c 1
160 803 m 1
 288 931 l 1
 303 931 l 1
 432 803 l 1
 394 803 l 1
 296 896 l 1
 198 803 l 1
 160 803 l 1
EndSplineSet
Position2: "'cpsp' Capital Spacing in Latin lookup 0 subtable" dx=5 dy=0 dh=10 dv=0
EndChar
StartChar: ccircumflex
Encoding: 265 265 307
Width: 397
Flags: MW
HStem: -9 32<180 268 180 268> 477 32<190 268> 695 35<238 238> 710 20G<230 245 245 245>
VStem: 56 37<188.5 334 188.5 348.5>
LayerCount: 2
Back
Fore
SplineSet
250 509 m 0xd8
 286 509 356 499 356 499 c 1
 354 467 l 1
 354 467 286 477 250 477 c 0
 130 477 93 407 93 261 c 0
 93 116 110 23 250 23 c 0
 286 23 354 32 354 32 c 1
 356 0 l 1
 356 0 286 -9 250 -9 c 0
 82 -9 56 88 56 261 c 0
 56 436 110 509 250 509 c 0xd8
112 595 m 1xe8
 230 730 l 1
 245 730 l 1
 364 595 l 1
 326 595 l 1
 238 695 l 1
 150 595 l 1
 112 595 l 1xe8
EndSplineSet
EndChar
StartChar: cdotaccent
Encoding: 267 267 309
Width: 397
Flags: MW
HStem: -9 32<180 268 180 268> 477 32<190 268> 620 58<216 246 216 246>
VStem: 56 37<188.5 334 188.5 348.5> 216 30<620 678 620 678>
LayerCount: 2
Back
Fore
SplineSet
250 509 m 0
 286 509 356 499 356 499 c 1
 354 467 l 1
 354 467 286 477 250 477 c 0
 130 477 93 407 93 261 c 0
 93 116 110 23 250 23 c 0
 286 23 354 32 354 32 c 1
 356 0 l 1
 356 0 286 -9 250 -9 c 0
 82 -9 56 88 56 261 c 0
 56 436 110 509 250 509 c 0
216 620 m 1
 216 678 l 1
 246 678 l 1
 246 620 l 1
 216 620 l 1
EndSplineSet
EndChar
StartChar: ccaron
Encoding: 269 269 308
Width: 397
Flags: MW
HStem: -9 32<180 268 180 268> 477 32<190 268> 710 20G<113 150 150 150 326 363 363 363>
VStem: 56 37<188.5 334 188.5 348.5>
LayerCount: 2
Back
Fore
SplineSet
245 595 m 1
 231 595 l 1
 113 730 l 1
 150 730 l 1
 238 627 l 1
 326 730 l 1
 363 730 l 1
 245 595 l 1
250 509 m 0
 286 509 356 499 356 499 c 1
 354 467 l 1
 354 467 286 477 250 477 c 0
 130 477 93 407 93 261 c 0
 93 116 110 23 250 23 c 0
 286 23 354 32 354 32 c 1
 356 0 l 1
 356 0 286 -9 250 -9 c 0
 82 -9 56 88 56 261 c 0
 56 436 110 509 250 509 c 0
EndSplineSet
EndChar
StartChar: Dcaron
Encoding: 270 270 36
Width: 604
Flags: MW
HStem: 700 231<142 182 142 321 85 182> 803 31<280 280 280 288 272 280>
VStem: 85 457<0 479 240 479 240 700>
LayerCount: 2
Back
Fore
SplineSet
85 0 m 1xa0
 321 0 l 2
 487 0 542 120 542 360 c 0
 542 598 479 700 321 700 c 2
 85 700 l 1
 85 0 l 1xa0
504 360 m 0
 504 152 461 34 321 34 c 2
 121 34 l 1
 121 666 l 1
 321 666 l 2
 461 666 504 568 504 360 c 0
418 931 m 1
 288 803 l 1
 272 803 l 1x60
 142 931 l 1
 182 931 l 1xa0
 280 834 l 1x60
 378 931 l 1
 418 931 l 1
EndSplineSet
Position2: "'cpsp' Capital Spacing in Latin lookup 0 subtable" dx=5 dy=0 dh=10 dv=0
EndChar
StartChar: Dcroat
Encoding: 272 272 37
Width: 608
Flags: MW
HStem: 0 34<125 325 125 325> 332 38<12 89 12 89 12 125 125 285> 666 34<125 325 125 125>
VStem: 89 36<34 332 34 332 34 332 370 666> 508 38<256 464>
LayerCount: 2
Back
Fore
SplineSet
325 0 m 2
 89 0 l 1
 89 332 l 1
 12 332 l 1
 12 370 l 1
 89 370 l 1
 89 700 l 1
 325 700 l 2
 483 700 546 598 546 360 c 0
 546 120 491 0 325 0 c 2
508 360 m 0
 508 568 465 666 325 666 c 2
 125 666 l 1
 125 370 l 1
 285 370 l 1
 285 332 l 1
 125 332 l 1
 125 34 l 1
 325 34 l 2
 465 34 508 152 508 360 c 0
EndSplineSet
Position2: "'cpsp' Capital Spacing in Latin lookup 0 subtable" dx=5 dy=0 dh=10 dv=0
EndChar
StartChar: Ebreve
Encoding: 276 276 40
Width: 510
Flags: MW
HStem: 0 33<121 462 121 462> 343 33<121 406 121 406> 667 33<121 462 121 121> 804 30<242.5 295 242.5 304>
VStem: 85 36<33 343 376 667> 144 32<893.5 921 893.5 921> 362 32<893.5 921>
LayerCount: 2
Back
Fore
SplineSet
144 921 m 1
 176 921 l 1
 176 866 216 834 269 834 c 0
 321 834 362 866 362 921 c 1
 394 921 l 1
 394 845 339 804 269 804 c 0
 199 804 144 845 144 921 c 1
85 0 m 1xfa
 85 700 l 1
 462 700 l 1
 462 667 l 1
 121 667 l 1
 121 376 l 1
 406 376 l 1
 406 343 l 1
 121 343 l 1
 121 33 l 1
 462 33 l 1
 462 0 l 1
 85 0 l 1xfa
EndSplineSet
Position2: "'cpsp' Capital Spacing in Latin lookup 0 subtable" dx=5 dy=0 dh=10 dv=0
EndChar
StartChar: ebreve
Encoding: 277 277 314
Width: 445
Flags: MW
HStem: -9 32<178 263 178 270.5> 238 32<92 155 155 156 92 155> 476 32<196 285> 595 28<211.5 272.5 211.5 281>
VStem: 55 37<162.5 225 225 238> 117 28<693 721 693 721> 339 28<693 721> 364 36<342 421>
LayerCount: 2
Back
Fore
SplineSet
227 23 m 0xf9
 299 23 378 46 378 46 c 1
 383 17 l 1
 383 17 315 -9 226 -9 c 0
 105 -9 55 66 55 249 c 0
 55 425 119 508 253 508 c 0
 337 508 400 472 400 389 c 0
 400 274 330 238 156 238 c 2
 92 238 l 1
 92 225 l 2
 92 100 129 23 227 23 c 0xf9
92 270 m 1
 155 270 l 2
 307 270 364 295 364 389 c 0
 364 453 318 476 252 476 c 0
 140 476 93 405 92 270 c 1
117 721 m 1xfe
 145 721 l 1
 145 665 181 623 242 623 c 0
 303 623 339 665 339 721 c 1
 367 721 l 1
 367 643 320 595 242 595 c 0
 164 595 117 643 117 721 c 1xfe
EndSplineSet
EndChar
StartChar: Edotaccent
Encoding: 278 278 44
Width: 510
Flags: MW
HStem: 0 33<121 462 121 462> 343 33<121 406 121 406> 667 33<121 462 121 121> 869 58<257 287 257 287>
VStem: 85 36<33 343 376 667> 257 30<869 927 869 927>
LayerCount: 2
Back
Fore
SplineSet
257 869 m 1
 257 927 l 1
 287 927 l 1
 287 869 l 1
 257 869 l 1
85 0 m 1
 85 700 l 1
 462 700 l 1
 462 667 l 1
 121 667 l 1
 121 376 l 1
 406 376 l 1
 406 343 l 1
 121 343 l 1
 121 33 l 1
 462 33 l 1
 462 0 l 1
 85 0 l 1
EndSplineSet
Position2: "'cpsp' Capital Spacing in Latin lookup 0 subtable" dx=5 dy=0 dh=10 dv=0
EndChar
StartChar: Eogonek
Encoding: 280 280 47
Width: 510
Flags: MW
HStem: -198 34<391 411 391 414> 0 33<121 396 436 436 436 462> 343 33<121 406 121 406> 667 33<121 462 121 121>
VStem: 85 36<33 343 376 667> 327 36<-135.5 -107.5 -135.5 -106.5>
LayerCount: 2
Back
Fore
SplineSet
85 0 m 1
 85 700 l 1
 462 700 l 1
 462 667 l 1
 121 667 l 1
 121 376 l 1
 406 376 l 1
 406 343 l 1
 121 343 l 1
 121 33 l 1
 462 33 l 1
 462 0 l 1
 436 0 l 1
 393 -50 363 -91 363 -124 c 0
 363 -147 380 -164 402 -164 c 0
 420 -164 459 -157 459 -157 c 1
 462 -190 l 1
 462 -190 428 -198 400 -198 c 0
 352 -198 327 -168 327 -127 c 0
 327 -86 367 -34 396 0 c 1
 85 0 l 1
EndSplineSet
Position2: "'cpsp' Capital Spacing in Latin lookup 0 subtable" dx=5 dy=0 dh=10 dv=0
EndChar
StartChar: Ecaron
Encoding: 282 282 41
Width: 510
Flags: MW
HStem: 0 33<121 462 121 462> 343 33<121 406 121 406> 667 33<121 462 121 121> 803 31<275 275 275 283 267 275>
VStem: 85 36<33 343 376 667>
LayerCount: 2
Back
Fore
SplineSet
413 931 m 1
 283 803 l 1
 267 803 l 1
 137 931 l 1
 177 931 l 1
 275 834 l 1
 373 931 l 1
 413 931 l 1
85 0 m 1
 85 700 l 1
 462 700 l 1
 462 667 l 1
 121 667 l 1
 121 376 l 1
 406 376 l 1
 406 343 l 1
 121 343 l 1
 121 33 l 1
 462 33 l 1
 462 0 l 1
 85 0 l 1
EndSplineSet
Position2: "'cpsp' Capital Spacing in Latin lookup 0 subtable" dx=5 dy=0 dh=10 dv=0
EndChar
StartChar: ecaron
Encoding: 283 283 312
Width: 445
Flags: MW
HStem: -9 32<178 263 178 270.5> 238 32<92 155 155 156 92 155> 476 32<196 285> 710 20G<114 151 151 151 327 364 364 364>
VStem: 55 37<162.5 225 225 238> 364 36<342 421>
LayerCount: 2
Back
Fore
SplineSet
227 23 m 0
 299 23 378 46 378 46 c 1
 383 17 l 1
 383 17 315 -9 226 -9 c 0
 105 -9 55 66 55 249 c 0
 55 425 119 508 253 508 c 0
 337 508 400 472 400 389 c 0
 400 274 330 238 156 238 c 2
 92 238 l 1
 92 225 l 2
 92 100 129 23 227 23 c 0
92 270 m 1
 155 270 l 2
 307 270 364 295 364 389 c 0
 364 453 318 476 252 476 c 0
 140 476 93 405 92 270 c 1
246 595 m 1
 232 595 l 1
 114 730 l 1
 151 730 l 1
 239 627 l 1
 327 730 l 1
 364 730 l 1
 246 595 l 1
EndSplineSet
EndChar
StartChar: Gcircumflex
Encoding: 284 284 51
Width: 576
Flags: MW
HStem: -9 33<223 338.5 223 342.5> 316 33<337 508 337 472> 676 33<211.5 348> 895 35<314 314>
VStem: 61 38<265 440.5 265 451> 472 36<44 316 316 316>
LayerCount: 2
Back
Fore
SplineSet
184 795 m 1
 302 930 l 1
 325 930 l 1
 444 795 l 1
 402 795 l 1
 314 895 l 1
 226 795 l 1
 184 795 l 1
337 316 m 1
 337 349 l 1
 508 349 l 1
 508 16 l 1
 508 16 380 -9 305 -9 c 0
 115 -9 61 157 61 347 c 0
 61 555 97 709 305 709 c 0
 405 709 508 684 508 684 c 1
 504 653 l 1
 504 653 391 676 305 676 c 0
 118 676 99 534 99 347 c 0
 99 183 141 24 305 24 c 0
 372 24 472 44 472 44 c 1
 472 316 l 1
 337 316 l 1
EndSplineSet
Position2: "'cpsp' Capital Spacing in Latin lookup 0 subtable" dx=5 dy=0 dh=10 dv=0
EndChar
StartChar: Gbreve
Encoding: 286 286 50
Width: 576
Flags: MW
HStem: -9 33<223 338.5 223 342.5> 316 33<337 508 337 472> 676 33<211.5 348> 790 36<282 339 282 347>
VStem: 61 38<265 440.5 265 451> 177 33<916.5 921 916.5 921> 405 32<894 921> 472 36<44 316 316 316>
LayerCount: 2
Back
Fore
SplineSet
177 921 m 1
 210 921 l 1
 210 912 211 903 213 895 c 0
 223 855 256 826 308 826 c 0
 370 826 405 867 405 921 c 1
 437 921 l 1
 437 846 386 790 308 790 c 0
 243 790 194 831 181 886 c 0
 178 897 177 909 177 921 c 1
337 316 m 1
 337 349 l 1
 508 349 l 1
 508 16 l 1
 508 16 380 -9 305 -9 c 0
 115 -9 61 157 61 347 c 0
 61 555 97 709 305 709 c 0
 405 709 508 684 508 684 c 1
 504 653 l 1
 504 653 391 676 305 676 c 0
 118 676 99 534 99 347 c 0
 99 183 141 24 305 24 c 0
 372 24 472 44 472 44 c 1
 472 316 l 1
 337 316 l 1
EndSplineSet
Position2: "'cpsp' Capital Spacing in Latin lookup 0 subtable" dx=5 dy=0 dh=10 dv=0
EndChar
StartChar: gbreve
Encoding: 287 287 318
Width: 463
Flags: MW
HStem: -239 32<187.5 283 187.5 294> 29 33<249.5 304.5> 178 34<204.5 261.5 170.5 267.5> 467 31 477 32<173 239.5 164 262.5> 595 28<183.5 244.5 183.5 253>
VStem: 49 36<-145.5 -72 -145.5 -70.5> 57 36<302 382 302 392.5> 89 28<693 721 693 721> 126 36<94 120 91 121> 311 28<693 721> 345 36<302 368 290 383.5> 398 36<-110.5 -23>
LayerCount: 2
Back
Fore
SplineSet
232 -239 m 0xee68
 129 -239 49 -219 49 -102 c 0xee68
 49 -39 102 25 148 53 c 1
 129 68 126 83 126 105 c 0
 126 137 153 185 153 185 c 1
 84 204 57 262 57 342 c 0
 57 443 113 509 215 509 c 0xed68
 264 509 300 497 300 497 c 1
 442 499 l 1
 442 467 l 1
 333 467 l 1
 362 444 381 394 381 342 c 0xf558
 381 238 322 178 213 178 c 0
 196 178 186 180 186 180 c 1
 186 180 162 134 162 106 c 0
 162 76 174 62 268 62 c 0
 370 62 434 39 434 -65 c 0
 434 -169 356 -239 232 -239 c 0xee68
264 29 m 0
 235 29 201 32 183 37 c 1
 136 17 85 -42 85 -102 c 0
 85 -189 143 -207 232 -207 c 0
 334 -207 398 -156 398 -65 c 0
 398 19 345 29 264 29 c 0
213 212 m 0xed58
 310 212 345 262 345 342 c 0
 345 425 310 477 215 477 c 0
 131 477 93 422 93 342 c 0
 93 262 128 212 213 212 c 0xed58
89 721 m 1xece8
 117 721 l 1
 117 665 153 623 214 623 c 0
 275 623 311 665 311 721 c 1
 339 721 l 1
 339 643 292 595 214 595 c 0
 136 595 89 643 89 721 c 1xece8
EndSplineSet
EndChar
StartChar: gdotaccent
Encoding: 289 289 319
Width: 463
Flags: MW
HStem: -239 32<187.5 283 187.5 294> 29 33<249.5 304.5> 178 34<204.5 261.5 170.5 267.5> 467 31 477 32<173 239.5 164 262.5> 620 58<201 231 201 231>
VStem: 49 36<-145.5 -72 -145.5 -70.5> 57 36<302 382 302 392.5> 126 36<94 120 91 121> 201 30<620 678 620 678> 345 36<302 368 290 383.5> 398 36<-110.5 -23>
LayerCount: 2
Back
Fore
SplineSet
232 -239 m 0xeed0
 129 -239 49 -219 49 -102 c 0xeed0
 49 -39 102 25 148 53 c 1
 129 68 126 83 126 105 c 0
 126 137 153 185 153 185 c 1
 84 204 57 262 57 342 c 0
 57 443 113 509 215 509 c 0xedd0
 264 509 300 497 300 497 c 1
 442 499 l 1
 442 467 l 1
 333 467 l 1
 362 444 381 394 381 342 c 0xf5f0
 381 238 322 178 213 178 c 0
 196 178 186 180 186 180 c 1
 186 180 162 134 162 106 c 0
 162 76 174 62 268 62 c 0
 370 62 434 39 434 -65 c 0
 434 -169 356 -239 232 -239 c 0xeed0
264 29 m 0
 235 29 201 32 183 37 c 1
 136 17 85 -42 85 -102 c 0
 85 -189 143 -207 232 -207 c 0
 334 -207 398 -156 398 -65 c 0
 398 19 345 29 264 29 c 0
213 212 m 0xedf0
 310 212 345 262 345 342 c 0
 345 425 310 477 215 477 c 0
 131 477 93 422 93 342 c 0
 93 262 128 212 213 212 c 0xedf0
201 620 m 1
 201 678 l 1
 231 678 l 1
 231 620 l 1
 201 620 l 1
EndSplineSet
EndChar
StartChar: Gcommaaccent
Encoding: 290 290 52
Width: 575
Flags: MW
HStem: -9 33<222 337.5 222 341.5> 316 33<336 507 336 471> 676 33<210.5 347>
VStem: 60 38<265 440.5 265 451> 471 36<44 316 316 316>
LayerCount: 2
Back
Fore
SplineSet
336 316 m 1
 336 349 l 1
 507 349 l 1
 507 16 l 1
 507 16 379 -9 304 -9 c 0
 114 -9 60 157 60 347 c 0
 60 555 96 709 304 709 c 0
 404 709 507 684 507 684 c 1
 503 653 l 1
 503 653 390 676 304 676 c 0
 117 676 98 534 98 347 c 0
 98 183 140 24 304 24 c 0
 371 24 471 44 471 44 c 1
 471 316 l 1
 336 316 l 1
305 -73 m 1
 270 -265 l 1
 295 -265 l 1
 339 -73 l 1
 305 -73 l 1
EndSplineSet
Position2: "'cpsp' Capital Spacing in Latin lookup 0 subtable" dx=5 dy=0 dh=10 dv=0
EndChar
StartChar: gcommaaccent
Encoding: 291 291 320
Width: 463
Flags: MW
HStem: -239 32<187.5 283 187.5 294> 29 33<249.5 304.5> 178 34<204.5 261.5 170.5 267.5> 467 31 477 32<173 239.5 164 262.5> 588 192<201 270 201 270>
VStem: 49 36<-145.5 -72 -145.5 -70.5> 57 36<302 382 302 392.5> 126 36<94 120 91 121> 345 36<302 368 290 383.5> 398 36<-110.5 -23>
LayerCount: 2
Back
Fore
SplineSet
244 780 m 1xeda0
 270 780 l 1
 234 588 l 1
 201 588 l 1
 244 780 l 1xeda0
232 -239 m 0xeea0
 129 -239 49 -219 49 -102 c 0xeea0
 49 -39 102 25 148 53 c 1
 129 68 126 83 126 105 c 0
 126 137 153 185 153 185 c 1
 84 204 57 262 57 342 c 0
 57 443 113 509 215 509 c 0xeda0
 264 509 300 497 300 497 c 1
 442 499 l 1
 442 467 l 1
 333 467 l 1
 362 444 381 394 381 342 c 0xf5e0
 381 238 322 178 213 178 c 0
 196 178 186 180 186 180 c 1
 186 180 162 134 162 106 c 0
 162 76 174 62 268 62 c 0
 370 62 434 39 434 -65 c 0
 434 -169 356 -239 232 -239 c 0xeea0
264 29 m 0
 235 29 201 32 183 37 c 1
 136 17 85 -42 85 -102 c 0
 85 -189 143 -207 232 -207 c 0
 334 -207 398 -156 398 -65 c 0
 398 19 345 29 264 29 c 0
213 212 m 0xede0
 310 212 345 262 345 342 c 0
 345 425 310 477 215 477 c 0
 131 477 93 422 93 342 c 0
 93 262 128 212 213 212 c 0xede0
EndSplineSet
EndChar
StartChar: hcircumflex
Encoding: 293 293 321
Width: 488
Flags: MW
HStem: 0 21G<74 109 74 74 383 383 383 418> 477 32<228 310> 710 20G<74 109 109 109>
VStem: 74 35<0 362 406 730> 383 35<0 299 299 313 0 358.5>
LayerCount: 2
Back
Fore
SplineSet
109 0 m 1
 74 0 l 1
 74 730 l 1
 109 730 l 1
 109 406 l 1
 109 406 182 509 271 509 c 0
 373 509 418 444 418 313 c 2
 418 0 l 1
 383 0 l 1
 383 299 l 2
 383 418 351 477 269 477 c 0
 187 477 109 362 109 362 c 1
 109 0 l 1
105 773 m 1
 233 901 l 1
 248 901 l 1
 377 773 l 1
 339 773 l 1
 241 866 l 1
 143 773 l 1
 105 773 l 1
EndSplineSet
EndChar
StartChar: Hbar
Encoding: 294 294 55
Width: 648
Flags: MW
HStem: 0 21G<97 131 97 97 516 551 516 516> 332 38<131 516 131 516> 517 36<9 97 9 97 9 131 131 516 551 639>
VStem: 97 34<0 332 370 517 553 700> 516 35<0 332 332 332 370 517 0 517 553 700>
LayerCount: 2
Back
Fore
SplineSet
9 517 m 1
 9 553 l 1
 97 553 l 1
 97 700 l 1
 131 700 l 1
 131 553 l 1
 516 553 l 1
 516 700 l 1
 551 700 l 1
 551 553 l 1
 639 553 l 1
 639 517 l 1
 551 517 l 1
 551 0 l 1
 516 0 l 1
 516 332 l 1
 131 332 l 1
 131 0 l 1
 97 0 l 1
 97 517 l 1
 9 517 l 1
131 370 m 1
 516 370 l 1
 516 517 l 1
 131 517 l 1
 131 370 l 1
EndSplineSet
Position2: "'cpsp' Capital Spacing in Latin lookup 0 subtable" dx=5 dy=0 dh=10 dv=0
EndChar
StartChar: hbar
Encoding: 295 295 322
Width: 488
Flags: MW
HStem: 0 21G<74 109 74 74 383 418 383 383> 477 32<228 310> 611 32<8 74 8 74 109 260> 611 119<8 109 8 109 74 109 74 260>
VStem: 74 35<0 362 406 611 643 730> 383 35<0 299 299 313 0 358.5>
LayerCount: 2
Back
Fore
SplineSet
8 611 m 1xec
 8 643 l 1
 74 643 l 1xec
 74 730 l 1
 109 730 l 1xdc
 109 643 l 1
 260 643 l 1
 260 611 l 1
 109 611 l 1
 109 406 l 1
 109 406 182 509 271 509 c 0
 373 509 418 444 418 313 c 2
 418 0 l 1
 383 0 l 1
 383 299 l 2
 383 418 351 477 269 477 c 0
 187 477 109 362 109 362 c 1
 109 0 l 1
 74 0 l 1
 74 611 l 1
 8 611 l 1xec
EndSplineSet
EndChar
StartChar: Itilde
Encoding: 296 296 66
Width: 206
Flags: MW
HStem: 0 21G<85 85 85 121> 818 31<172 195.5 172 198> 882 30<24.5 50>
VStem: 85 36<0 700 0 700>
LayerCount: 2
Back
Fore
SplineSet
254 899 m 1
 263 875 l 1
 263 875 211 818 185 818 c 0
 145 818 65 882 35 882 c 0
 14 882 -41 828 -41 828 c 1
 -49 853 l 1
 -49 853 8 912 37 912 c 0
 78 912 157 849 187 849 c 0
 204 849 254 899 254 899 c 1
85 0 m 1
 85 700 l 1
 121 700 l 1
 121 0 l 1
 85 0 l 1
EndSplineSet
Position2: "'cpsp' Capital Spacing in Latin lookup 0 subtable" dx=5 dy=0 dh=10 dv=0
EndChar
StartChar: itilde
Encoding: 297 297 323
Width: 183
Flags: MW
HStem: 0 21G<74 74 74 109> 480 20G<74 109 109 109> 630 31<153.5 176.5 153.5 178.5> 665 21G<-49 -49> 681 32<15.5 40.5> 700 21G<225 225>
VStem: 74 35<0 500 0 500>
LayerCount: 2
Back
Fore
SplineSet
74 0 m 1xd6
 74 500 l 1
 109 500 l 1
 109 0 l 1
 74 0 l 1xd6
225 700 m 1
 233 674 l 1
 233 674 192 630 165 630 c 0xe6
 127 630 55 681 26 681 c 0
 5 681 -41 637 -41 637 c 1
 -49 665 l 1
 -49 665 -1 713 29 713 c 0xca
 62 713 140 661 167 661 c 0xe6
 186 661 225 700 225 700 c 1
EndSplineSet
EndChar
StartChar: Imacron
Encoding: 298 298 64
Width: 206
Flags: MW
HStem: 0 21G<85 85 85 121> 845 26<-32 239 -32 239>
VStem: 85 36<0 700 0 700>
LayerCount: 2
Back
Fore
SplineSet
-32 845 m 1
 -32 871 l 1
 239 871 l 1
 239 845 l 1
 -32 845 l 1
85 0 m 1
 85 700 l 1
 121 700 l 1
 121 0 l 1
 85 0 l 1
EndSplineSet
Position2: "'cpsp' Capital Spacing in Latin lookup 0 subtable" dx=5 dy=0 dh=10 dv=0
EndChar
StartChar: imacron
Encoding: 299 299 324
Width: 183
Flags: MW
HStem: 0 21G<74 74 74 109> 480 20G<74 109 109 109> 647 26<-34 218 -34 218>
VStem: 74 35<0 500 0 500>
LayerCount: 2
Back
Fore
SplineSet
74 0 m 1
 74 500 l 1
 109 500 l 1
 109 0 l 1
 74 0 l 1
-34 647 m 1
 -34 673 l 1
 218 673 l 1
 218 647 l 1
 -34 647 l 1
EndSplineSet
EndChar
StartChar: Ibreve
Encoding: 300 300 59
Width: 206
Flags: MW
HStem: 0 21G<85 85 85 121> 803 30<75.5 128 75.5 137>
VStem: -23 32<892.5 920 892.5 920> 85 36<0 700 0 700> 195 32<892.5 920>
LayerCount: 2
Back
Fore
SplineSet
-23 920 m 1
 9 920 l 1
 9 865 49 833 102 833 c 0
 154 833 195 865 195 920 c 1
 227 920 l 1
 227 844 172 803 102 803 c 0
 32 803 -23 844 -23 920 c 1
85 0 m 1
 85 700 l 1
 121 700 l 1
 121 0 l 1
 85 0 l 1
EndSplineSet
Position2: "'cpsp' Capital Spacing in Latin lookup 0 subtable" dx=5 dy=0 dh=10 dv=0
EndChar
StartChar: ibreve
Encoding: 301 301 325
Width: 183
Flags: MW
HStem: 0 21G<74 74 74 109> 480 20G<74 109 109 109> 595 28<61.5 122.5 61.5 131>
VStem: -33 28<693 721 693 721> 74 35<0 500 0 500> 189 28<693 721>
LayerCount: 2
Back
Fore
SplineSet
74 0 m 1
 74 500 l 1
 109 500 l 1
 109 0 l 1
 74 0 l 1
-33 721 m 1
 -5 721 l 1
 -5 665 31 623 92 623 c 0
 153 623 189 665 189 721 c 1
 217 721 l 1
 217 643 170 595 92 595 c 0
 14 595 -33 643 -33 721 c 1
EndSplineSet
EndChar
StartChar: Iogonek
Encoding: 302 302 65
Width: 206
Flags: MW
HStem: -198 34<72 92 72 95>
VStem: 8 36<-135.5 -107 -135.5 -104.5> 85 36<9 700 0 700>
LayerCount: 2
Back
Fore
SplineSet
140 -157 m 1
 143 -190 l 1
 143 -190 109 -198 81 -198 c 0
 33 -198 8 -168 8 -127 c 0
 8 -82 56 -24 85 9 c 1
 85 700 l 1
 121 700 l 1
 121 0 l 1
 75 -53 44 -90 44 -124 c 0
 44 -147 61 -164 83 -164 c 0
 101 -164 140 -157 140 -157 c 1
EndSplineSet
Position2: "'cpsp' Capital Spacing in Latin lookup 0 subtable" dx=5 dy=0 dh=10 dv=0
EndChar
StartChar: iogonek
Encoding: 303 303 326
Width: 184
Flags: MW
HStem: -198 34<60 80 60 83> 0 21G<110 110> 480 20G<75 110 110 110> 640 58<74 111 74 111>
VStem: -4 36<-135.5 -107 -135.5 -105> 75 35<8 500 0 500>
LayerCount: 2
Back
Fore
SplineSet
128 -157 m 1
 131 -190 l 1
 131 -190 97 -198 69 -198 c 0
 21 -198 -4 -168 -4 -127 c 0
 -4 -83 45 -25 75 8 c 1
 75 500 l 1
 110 500 l 1
 110 0 l 1
 66 -43 32 -90 32 -124 c 0
 32 -147 49 -164 71 -164 c 0
 89 -164 128 -157 128 -157 c 1
74 640 m 1
 74 698 l 1
 111 698 l 1
 111 640 l 1
 74 640 l 1
EndSplineSet
EndChar
StartChar: Idotaccent
Encoding: 304 304 62
Width: 206
Flags: MW
HStem: 0 21G<85 85 85 121> 869 58<87 117 87 117>
VStem: 85 36<0 700 0 700> 87 30<869 927 869 927>
LayerCount: 2
Back
Fore
SplineSet
87 869 m 1xd0
 87 927 l 1
 117 927 l 1
 117 869 l 1
 87 869 l 1xd0
85 0 m 1xe0
 85 700 l 1
 121 700 l 1
 121 0 l 1
 85 0 l 1xe0
EndSplineSet
Position2: "'cpsp' Capital Spacing in Latin lookup 0 subtable" dx=5 dy=0 dh=10 dv=0
EndChar
StartChar: dotlessi
Encoding: 305 305 184
Width: 183
Flags: MW
HStem: 0 21G<74 74 74 109> 480 20G<74 109 109 109>
VStem: 74 35<0 500 0 500>
LayerCount: 2
Back
Fore
SplineSet
74 0 m 1
 74 500 l 1
 109 500 l 1
 109 0 l 1
 74 0 l 1
EndSplineSet
EndChar
StartChar: Jcircumflex
Encoding: 308 308 68
Width: 258
Flags: MW
HStem: -71 33<17 76.5 17 86>
VStem: 141 36<37 700>
LayerCount: 2
Back
Fore
SplineSet
176 700 m 1
 177 106 l 2
 177 -32 155 -71 17 -71 c 1
 17 -38 l 1
 136 -38 141 -3 141 116 c 2
 141 700 l 1
 176 700 l 1
19 803 m 1
 147 931 l 1
 162 931 l 1
 291 803 l 1
 253 803 l 1
 155 896 l 1
 57 803 l 1
 19 803 l 1
EndSplineSet
Position2: "'cpsp' Capital Spacing in Latin lookup 0 subtable" dx=5 dy=0 dh=10 dv=0
EndChar
StartChar: jcircumflex
Encoding: 309 309 327
Width: 183
Flags: MW
HStem: -239 21G<-32 -32> 480 20G<74 109 109 109> 695 35<90 90> 710 20G<82 97 97 97>
VStem: 74 35<0 500>
LayerCount: 2
Back
Fore
SplineSet
74 0 m 2xd8
 74 500 l 1
 109 500 l 1
 109 0 l 2
 109 -136 96 -160 -32 -239 c 1
 -48 -209 l 1
 70 -138 74 -118 74 0 c 2xd8
-36 595 m 1xe8
 82 730 l 1
 97 730 l 1
 216 595 l 1
 178 595 l 1
 90 695 l 1
 2 595 l 1
 -36 595 l 1xe8
EndSplineSet
EndChar
StartChar: Kcommaaccent
Encoding: 310 310 70
Width: 508
Flags: MW
HStem: 0 21G<85 121 85 85 449 491 449 449> 329 33<121 228 121 228>
VStem: 85 36<0 329 0 362 362 700>
LayerCount: 2
Back
Fore
SplineSet
246 -73 m 1
 211 -265 l 1
 236 -265 l 1
 280 -73 l 1
 246 -73 l 1
449 0 m 1
 228 329 l 1
 121 329 l 1
 121 0 l 1
 85 0 l 1
 85 700 l 1
 121 700 l 1
 121 362 l 1
 228 362 l 1
 437 700 l 1
 478 700 l 1
 257 349 l 1
 491 0 l 1
 449 0 l 1
EndSplineSet
Position2: "'cpsp' Capital Spacing in Latin lookup 0 subtable" dx=5 dy=0 dh=10 dv=0
EndChar
StartChar: kcommaaccent
Encoding: 311 311 328
Width: 435
Flags: MW
HStem: -265 192<150 219 150 219> 0 21G<74 109 74 74 367 367 367 409> 257 32<109 191 109 191> 480 20G<364 407 407 407> 710 20G<74 109 109 109>
VStem: 74 35<0 257 289 730>
LayerCount: 2
Back
Fore
SplineSet
150 -265 m 1
 185 -73 l 1
 219 -73 l 1
 175 -265 l 1
 150 -265 l 1
109 0 m 1
 74 0 l 1
 74 730 l 1
 109 730 l 1
 109 289 l 1
 191 289 l 1
 364 500 l 1
 407 500 l 1
 222 274 l 1
 409 0 l 1
 367 0 l 1
 191 257 l 1
 109 257 l 1
 109 0 l 1
EndSplineSet
EndChar
StartChar: Lacute
Encoding: 313 313 72
Width: 446
Flags: MW
HStem: 0 33<121 431 121 431>
VStem: 85 36<33 700 33 700 33 700>
LayerCount: 2
Back
Fore
SplineSet
147 798 m 1
 133 822 l 1
 315 919 l 1
 329 890 l 1
 147 798 l 1
431 0 m 1
 85 0 l 1
 85 700 l 1
 121 700 l 1
 121 33 l 1
 431 33 l 1
 431 0 l 1
EndSplineSet
Position2: "'cpsp' Capital Spacing in Latin lookup 0 subtable" dx=5 dy=0 dh=10 dv=0
EndChar
StartChar: lacute
Encoding: 314 314 329
Width: 195
Flags: MW
HStem: 0 21G<80 80 80 115> 710 20G<80 115 115 115>
VStem: 80 35<0 730 0 730>
LayerCount: 2
Back
Fore
SplineSet
80 0 m 1
 80 730 l 1
 115 730 l 1
 115 0 l 1
 80 0 l 1
81 798 m 1
 67 822 l 1
 249 919 l 1
 263 890 l 1
 81 798 l 1
EndSplineSet
EndChar
StartChar: Lcommaaccent
Encoding: 315 315 74
Width: 446
Flags: MW
HStem: -73 106<235 235 235 269> 0 33<121 431 121 431>
VStem: 85 36<33 700 33 700 33 700>
LayerCount: 2
Back
Fore
SplineSet
235 -73 m 1xa0
 200 -265 l 1
 225 -265 l 1
 269 -73 l 1
 235 -73 l 1xa0
431 0 m 1x60
 85 0 l 1
 85 700 l 1
 121 700 l 1
 121 33 l 1
 431 33 l 1
 431 0 l 1x60
EndSplineSet
Position2: "'cpsp' Capital Spacing in Latin lookup 0 subtable" dx=5 dy=0 dh=10 dv=0
EndChar
StartChar: lcommaaccent
Encoding: 316 316 331
Width: 195
Flags: MW
HStem: 0 21G<80 80 80 115> 710 20G<80 115 115 115>
VStem: 80 35<0 730 0 730>
LayerCount: 2
Back
Fore
SplineSet
79 -73 m 1
 44 -265 l 1
 69 -265 l 1
 113 -73 l 1
 79 -73 l 1
80 0 m 1
 80 730 l 1
 115 730 l 1
 115 0 l 1
 80 0 l 1
EndSplineSet
EndChar
StartChar: Lcaron
Encoding: 317 317 73
Width: 457
Flags: MW
HStem: 0 33<121 431 121 431> 480 220<363 395>
VStem: 85 36<33 700 33 700 33 700> 363 32<480 700 480 700>
LayerCount: 2
Back
Fore
SplineSet
395 700 m 1
 395 480 l 1
 363 480 l 1
 363 700 l 1
 395 700 l 1
431 0 m 1
 85 0 l 1
 85 700 l 1
 121 700 l 1
 121 33 l 1
 431 33 l 1
 431 0 l 1
EndSplineSet
Position2: "'cpsp' Capital Spacing in Latin lookup 0 subtable" dx=5 dy=0 dh=10 dv=0
EndChar
StartChar: lcaron
Encoding: 318 318 330
Width: 200
Flags: MW
HStem: 0 21G<80 80 80 115> 480 220<181 213 181 213> 710 20G<80 115 115 115>
VStem: 80 35<0 730 0 730> 181 32<480 700 480 700>
LayerCount: 2
Back
Fore
SplineSet
213 700 m 1
 213 480 l 1
 181 480 l 1
 181 700 l 1
 213 700 l 1
80 0 m 1
 80 730 l 1
 115 730 l 1xb8
 115 0 l 1
 80 0 l 1
EndSplineSet
EndChar
StartChar: Lslash
Encoding: 321 321 75
Width: 447
Flags: MW
HStem: 0 33<122 432 122 432>
VStem: 86 36<33 305 305 305 375 700>
LayerCount: 2
Back
Fore
SplineSet
432 0 m 1
 86 0 l 1
 86 305 l 1
 29 263 l 1
 10 293 l 1
 86 349 l 1
 86 700 l 1
 122 700 l 1
 122 375 l 1
 281 493 l 1
 300 464 l 1
 122 332 l 1
 122 33 l 1
 432 33 l 1
 432 0 l 1
EndSplineSet
Position2: "'cpsp' Capital Spacing in Latin lookup 0 subtable" dx=5 dy=0 dh=10 dv=0
EndChar
StartChar: lslash
Encoding: 322 322 190
Width: 265
Flags: MW
HStem: 0 21G<113 113 113 148> 710 20G<113 148 148 148>
VStem: 113 35<0 317 317 317 386 730>
LayerCount: 2
Back
Fore
SplineSet
113 0 m 1
 113 317 l 1
 40 263 l 1
 21 293 l 1
 113 360 l 1
 113 730 l 1
 148 730 l 1
 148 386 l 1
 222 441 l 1
 243 413 l 1
 148 343 l 1
 148 0 l 1
 113 0 l 1
EndSplineSet
EndChar
StartChar: nacute
Encoding: 324 324 332
Width: 488
Flags: MW
HStem: 701 21G<351 351> 710 20G<338 338>
VStem: 109 274<0 299 0 361 0 361 0 500 0 500>
LayerCount: 2
Back
Fore
SplineSet
74 0 m 1x60
 109 0 l 1
 109 361 l 1
 109 361 187 477 269 477 c 0
 351 477 383 418 383 299 c 2
 383 0 l 1
 418 0 l 1
 418 313 l 2
 418 444 373 509 271 509 c 0
 182 509 109 407 109 407 c 1
 109 500 l 1
 74 500 l 1
 74 0 l 1x60
169 609 m 1xa0
 156 634 l 1xa0
 338 730 l 1x60
 351 701 l 1
 169 609 l 1xa0
EndSplineSet
EndChar
StartChar: Ncommaaccent
Encoding: 325 325 80
Width: 615
Flags: MW
HStem: 0 33<449 494 472 494 472 530> 664 36<121 142 121 121>
VStem: 85 36<0 664 0 700> 494 36<33 700 0 700>
LayerCount: 2
Back
Fore
SplineSet
303 -73 m 1
 268 -265 l 1
 293 -265 l 1
 337 -73 l 1
 303 -73 l 1
85 0 m 1
 85 700 l 1
 165 700 l 1
 472 33 l 1
 494 33 l 1
 494 700 l 1
 530 700 l 1
 530 0 l 1
 449 0 l 1
 142 664 l 1
 121 664 l 1
 121 0 l 1
 85 0 l 1
EndSplineSet
Position2: "'cpsp' Capital Spacing in Latin lookup 0 subtable" dx=5 dy=0 dh=10 dv=0
EndChar
StartChar: ncaron
Encoding: 328 328 333
Width: 488
Flags: MW
HStem: 0 21G<74 109 74 74 383 383 383 418> 477 32<228 310> 480 20G<74 109 109 109> 710 20G<127 164 164 164 340 377 377 377>
VStem: 74 35<0 361 407 500> 383 35<0 299 299 313 0 358.5>
LayerCount: 2
Back
Fore
SplineSet
109 0 m 1xdc
 74 0 l 1
 74 500 l 1
 109 500 l 1xbc
 109 407 l 1
 109 407 182 509 271 509 c 0
 373 509 418 444 418 313 c 2
 418 0 l 1
 383 0 l 1
 383 299 l 2
 383 418 351 477 269 477 c 0
 187 477 109 361 109 361 c 1
 109 0 l 1xdc
259 595 m 1
 245 595 l 1
 127 730 l 1
 164 730 l 1
 252 627 l 1
 340 730 l 1
 377 730 l 1
 259 595 l 1
EndSplineSet
EndChar
StartChar: Eng
Encoding: 330 330 300
Width: 615
Flags: MW
HStem: -171 33<370 426.5 370 438> 0 33<449 494 472 494 472 494> 664 36<121 142 121 121>
VStem: 85 36<0 664 0 700> 494 36<0 700 33 700 0 700>
LayerCount: 2
Back
Fore
SplineSet
85 0 m 1
 85 700 l 1
 165 700 l 1
 472 33 l 1
 494 33 l 1
 494 700 l 1
 530 700 l 1
 530 0 l 2
 529 -133 506 -171 370 -171 c 1
 370 -138 l 1
 483 -138 493 -106 494 0 c 1
 449 0 l 1
 142 664 l 1
 121 664 l 1
 121 0 l 1
 85 0 l 1
EndSplineSet
Position2: "'cpsp' Capital Spacing in Latin lookup 0 subtable" dx=5 dy=0 dh=10 dv=0
EndChar
StartChar: eng
Encoding: 331 331 448
Width: 487
Flags: MW
HStem: 0 21G<74 107 74 74> 473 36<227.5 289> 480 20G<74 107 107 107>
VStem: 74 33<0 374 420 500> 384 33<-4 248>
LayerCount: 2
Back
Fore
SplineSet
107 0 m 1xd8
 74 0 l 1
 74 500 l 1
 107 500 l 1xb8
 107 420 l 1
 137 451 192 509 263 509 c 0
 336 509 382 485 400 426 c 0
 418 368 417 327 417 248 c 2
 417 -5 l 2
 417 -121 389 -160 276 -228 c 1
 263 -194 l 1
 361 -133 384 -100 384 -4 c 2
 384 248 l 2
 384 327 379 391 362 425 c 0
 345 459 315 473 263 473 c 0
 181 473 107 374 107 374 c 1
 107 0 l 1xd8
EndSplineSet
EndChar
StartChar: Omacron
Encoding: 332 332 89
Width: 626
Flags: MW
HStem: -9 34<218 336.5 218 345> 675 34<290.5 408> 835 26<177 448 177 448>
VStem: 63 38<246.5 435.5> 525 38<273 463.5>
LayerCount: 2
Back
Fore
SplineSet
313 25 m 0
 360 25 396 31 425 45 c 0
 512 87 525 191 525 355 c 0
 525 572 503 675 313 675 c 0
 268 675 232 670 204 658 c 0
 113 620 101 521 101 355 c 0
 101 138 123 25 313 25 c 0
313 -9 m 0
 99 -9 63 117 63 355 c 0
 63 516 79 621 156 672 c 0
 193 697 244 709 313 709 c 0
 527 709 563 593 563 355 c 0
 563 188 546 76 461 24 c 0
 425 2 377 -9 313 -9 c 0
177 835 m 1
 177 861 l 1
 448 861 l 1
 448 835 l 1
 177 835 l 1
EndSplineSet
Position2: "'cpsp' Capital Spacing in Latin lookup 0 subtable" dx=5 dy=0 dh=10 dv=0
EndChar
StartChar: obreve
Encoding: 335 335 336
Width: 486
Flags: MW
HStem: -9 32<171 315 171 329.5> 477 32<184 302> 595 28<212.5 273.5 212.5 282>
VStem: 57 36<184.5 337 184.5 343> 118 28<693 721 693 721> 340 28<693 721> 393 36<184.5 337>
LayerCount: 2
Back
Fore
SplineSet
243 509 m 0
 391 509 429 427 429 259 c 0
 429 91 416 -9 243 -9 c 0
 70 -9 57 91 57 259 c 0
 57 427 95 509 243 509 c 0
243 23 m 0
 387 23 393 110 393 259 c 0
 393 415 361 477 243 477 c 0
 125 477 93 415 93 259 c 0
 93 110 99 23 243 23 c 0
118 721 m 1xfe
 146 721 l 1
 146 665 182 623 243 623 c 0
 304 623 340 665 340 721 c 1
 368 721 l 1
 368 643 321 595 243 595 c 0
 165 595 118 643 118 721 c 1xfe
EndSplineSet
EndChar
StartChar: OE
Encoding: 338 338 93
Width: 877
Flags: MW
HStem: -9 38<251.5 319 251.5 326> -1 39<491 829 491 829 458 829> 341 38<491 773 491 773> 661 39<457 829> 662 38<491 829 491 491> 671 38<224 325.5 212.5 331>
VStem: 61 35<312.5 450.5 312.5 460> 457 34<38 341 379 661 661 661>
LayerCount: 2
Back
Fore
SplineSet
829 -1 m 1x6b
 458 -1 l 1x6b
 410 -5 343 -9 309 -9 c 0
 179 -9 112 46 82 151 c 0
 67 203 61 268 61 345 c 0
 61 575 116 709 309 709 c 0xa7
 342 709 413 705 457 700 c 1
 829 700 l 1
 829 662 l 1
 491 662 l 1
 491 379 l 1
 773 379 l 1
 773 341 l 1
 491 341 l 1
 491 38 l 1
 829 38 l 1
 829 -1 l 1x6b
309 29 m 0xa7
 329 29 415 34 457 37 c 1
 457 661 l 1xb3
 422 665 353 671 309 671 c 0
 139 671 96 554 96 347 c 0
 96 278 101 219 113 172 c 0
 138 78 194 29 309 29 c 0xa7
EndSplineSet
Position2: "'cpsp' Capital Spacing in Latin lookup 0 subtable" dx=5 dy=0 dh=10 dv=0
EndChar
StartChar: oe
Encoding: 339 339 226
Width: 824
Flags: MW
HStem: -9 36<215 298.5 545.5 615.5> 234 36<439 739 439 774 439 739> 473 36<189.5 283 556.5 623.5>
VStem: 57 34<227.5 343.5 218.5 353> 405 34<211.5 234 270 280.5> 739 35<234 300>
LayerCount: 2
Back
Fore
SplineSet
582 27 m 0
 649 27 754 36 754 36 c 1
 756 0 l 1
 756 0 650 -9 581 -9 c 0
 498 -9 447 36 423 98 c 1
 399 26 347 -9 250 -9 c 0
 152 -9 101 19 77 88 c 0
 59 139 57 194 57 261 c 0
 57 445 110 509 250 509 c 0
 338 509 397 469 424 389 c 1
 454 475 519 509 594 509 c 0
 677 509 734 475 759 392 c 0
 769 359 774 318 774 269 c 2
 774 234 l 1
 439 234 l 1
 439 189 443 151 452 120 c 0
 470 59 509 27 582 27 c 0
250 27 m 0
 396 27 405 125 405 259 c 0
 405 302 403 350 385 392 c 0
 361 450 316 473 250 473 c 0
 129 473 91 426 91 261 c 0
 91 176 96 117 118 80 c 0
 140 43 180 27 250 27 c 0
439 270 m 1
 739 270 l 1
 739 330 731 374 716 406 c 0
 693 454 653 473 594 473 c 0
 500 473 439 418 439 270 c 1
EndSplineSet
EndChar
StartChar: Racute
Encoding: 340 340 97
Width: 568
Flags: MW
HStem: 323 344<121 312 121 312> 700 21G<85 312 85 85> 700 122<186 186 186 312 85 186>
VStem: 85 441<0 700 0 0>
LayerCount: 2
Back
Fore
SplineSet
335 290 m 1xd0
 484 0 l 1
 526 0 l 1
 374 295 l 1
 448 315 508 364 508 499 c 0
 508 630 443 700 312 700 c 2
 85 700 l 1
 85 0 l 1
 121 0 l 1
 121 290 l 1
 335 290 l 1xd0
470 499 m 0
 470 383 421 323 312 323 c 2
 121 323 l 1
 121 667 l 1
 312 667 l 2
 421 667 470 608 470 499 c 0
200 798 m 1xb0
 186 822 l 1
 368 919 l 1
 382 890 l 1
 200 798 l 1xb0
EndSplineSet
Position2: "'cpsp' Capital Spacing in Latin lookup 0 subtable" dx=5 dy=0 dh=10 dv=0
EndChar
StartChar: racute
Encoding: 341 341 338
Width: 304
Flags: MW
HStem: 0 21G<74 74 74 109> 480 20G<74 109 109 109> 489 20G<285 285> 701 21G<255 255> 710 20G<242 242>
VStem: 74 35<0 388 420 500>
LayerCount: 2
Back
Fore
SplineSet
74 0 m 1xac
 74 500 l 1
 109 500 l 1
 109 420 l 1xd4
 109 420 192 485 285 509 c 1
 285 470 l 1
 208 451 109 388 109 388 c 1
 109 0 l 1
 74 0 l 1xac
73 609 m 1
 60 634 l 1xb4
 242 730 l 1xac
 255 701 l 1
 73 609 l 1
EndSplineSet
EndChar
StartChar: Rcaron
Encoding: 344 344 98
Width: 568
Flags: MW
HStem: 323 344<121 312 121 312> 700 226<123 163 123 312 85 163> 798 31<261 261 261 269 253 261>
VStem: 85 441<0 700 0 0>
LayerCount: 2
Back
Fore
SplineSet
399 926 m 1xd0
 269 798 l 1
 253 798 l 1xb0
 123 926 l 1
 163 926 l 1xd0
 261 829 l 1xb0
 359 926 l 1
 399 926 l 1xd0
335 290 m 1
 484 0 l 1
 526 0 l 1
 374 295 l 1
 448 315 508 364 508 499 c 0
 508 630 443 700 312 700 c 2
 85 700 l 1xd0
 85 0 l 1
 121 0 l 1
 121 290 l 1
 335 290 l 1
470 499 m 0
 470 383 421 323 312 323 c 2
 121 323 l 1
 121 667 l 1
 312 667 l 2
 421 667 470 608 470 499 c 0
EndSplineSet
Position2: "'cpsp' Capital Spacing in Latin lookup 0 subtable" dx=5 dy=0 dh=10 dv=0
EndChar
StartChar: rcaron
Encoding: 345 345 340
Width: 304
Flags: MW
HStem: 0 21G<74 74 74 109> 480 20G<74 109 109 109> 489 20G<285 285> 710 20G<39 76 76 76 252 289 289 289>
VStem: 74 35<0 388 420 500>
LayerCount: 2
Back
Fore
SplineSet
74 0 m 1xb8
 74 500 l 1
 109 500 l 1
 109 420 l 1xd8
 109 420 192 485 285 509 c 1
 285 470 l 1
 208 451 109 388 109 388 c 1
 109 0 l 1
 74 0 l 1xb8
171 595 m 1
 157 595 l 1
 39 730 l 1
 76 730 l 1
 164 627 l 1
 252 730 l 1
 289 730 l 1
 171 595 l 1
EndSplineSet
EndChar
StartChar: scircumflex
Encoding: 349 349 342
Width: 423
Flags: MW
HStem: -9 32<178 246.5 178 256.5> 477 32<173 235.5> 695 35<218 218> 710 20G<210 225 225 225>
VStem: 49 36<341 413.5 341 426> 341 36<95.5 181.5>
LayerCount: 2
Back
Fore
SplineSet
361 499 m 1xdc
 359 467 l 1
 359 467 268 477 203 477 c 0
 143 477 85 451 85 376 c 0
 85 306 130 290 211 276 c 0
 309 259 377 245 377 145 c 0
 377 26 310 -9 203 -9 c 0
 150 -9 52 6 52 6 c 1
 56 39 l 1
 56 39 154 23 202 23 c 0
 291 23 341 49 341 142 c 0
 341 221 280 229 202 243 c 0
 117 258 49 277 49 374 c 0
 49 478 127 509 203 509 c 0
 277 509 361 499 361 499 c 1xdc
92 595 m 1xec
 210 730 l 1
 225 730 l 1
 344 595 l 1
 306 595 l 1
 218 695 l 1
 130 595 l 1
 92 595 l 1xec
EndSplineSet
EndChar
StartChar: Scedilla
Encoding: 350 350 103
Width: 498
Flags: MW
HStem: -199 31<268.5 298 268.5 308> -84 31<265 273 273 284> -9 33<234 234 265 265> 676 33<200 288>
VStem: 52 38<474 580 474 590> 234 31<-53 -9 -53 -9 -53 -9> 330 33<-140.5 -106.5> 410 38<146 250>
LayerCount: 2
Back
Fore
SplineSet
434 691 m 1
 431 660 l 1
 431 660 324 676 252 676 c 0
 148 676 90 632 90 528 c 0
 90 420 152 399 260 380 c 0
 378 359 448 322 448 204 c 0
 448 74 390 -4 265 -9 c 1
 265 -53 l 1
 273 -53 l 2
 322 -53 363 -64 363 -124 c 0
 363 -178 331 -199 285 -199 c 0
 244 -199 209 -195 209 -195 c 1
 211 -164 l 1
 211 -164 253 -168 284 -168 c 0
 312 -168 330 -157 330 -124 c 0
 330 -89 307 -84 284 -84 c 2
 234 -84 l 1
 234 -9 l 1
 162 -6 56 7 56 7 c 1
 60 39 l 1
 60 39 183 24 253 24 c 0
 363 24 410 91 410 201 c 0
 410 299 352 330 254 346 c 0
 128 367 52 402 52 528 c 0
 52 652 128 709 252 709 c 0
 324 709 434 691 434 691 c 1
EndSplineSet
Substitution2: "'locl' Localized Forms in Latin lookup 0 subtable" Scommaaccent
Position2: "'cpsp' Capital Spacing in Latin lookup 0 subtable" dx=5 dy=0 dh=10 dv=0
EndChar
StartChar: scedilla
Encoding: 351 351 343
Width: 424
Flags: MW
HStem: -199 31<220.5 250 220.5 260> -84 31<217 225 225 236> -9 32<186 186 217 217> 477 32<173 235.5>
VStem: 49 36<341 413.5 341 426> 186 31<-53 -9 -53 -9 -53 -9> 282 33<-140.5 -106.5> 341 36<95.5 181.5>
LayerCount: 2
Back
Fore
SplineSet
315 -124 m 0
 315 -178 283 -199 237 -199 c 0
 196 -199 161 -195 161 -195 c 1
 163 -164 l 1
 163 -164 205 -168 236 -168 c 0
 264 -168 282 -157 282 -124 c 0
 282 -89 259 -84 236 -84 c 2xff
 186 -84 l 1
 186 -9 l 1
 131 -6 52 6 52 6 c 1
 56 39 l 1
 56 39 154 23 202 23 c 0
 291 23 341 49 341 142 c 0
 341 221 280 229 202 243 c 0
 117 258 49 277 49 374 c 0
 49 478 127 509 203 509 c 0
 277 509 361 499 361 499 c 1
 359 467 l 1
 359 467 268 477 203 477 c 0
 143 477 85 451 85 376 c 0
 85 306 130 290 211 276 c 0
 309 259 377 245 377 145 c 0xfd
 377 31 316 -6 217 -9 c 1
 217 -53 l 1
 225 -53 l 2
 274 -53 315 -64 315 -124 c 0
EndSplineSet
Substitution2: "'locl' Localized Forms in Latin lookup 0 subtable" scommaaccent
EndChar
StartChar: Scaron
Encoding: 352 352 102
Width: 498
Flags: MW
HStem: -9 33<218 308 218 319.5> 676 33<200 288> 803 31<269 269 269 277 261 269>
VStem: 52 38<474 580 474 590> 410 38<146 250>
LayerCount: 2
Back
Fore
SplineSet
407 931 m 1
 277 803 l 1
 261 803 l 1
 131 931 l 1
 171 931 l 1
 269 834 l 1
 367 931 l 1
 407 931 l 1
434 691 m 1
 431 660 l 1
 431 660 324 676 252 676 c 0
 148 676 90 632 90 528 c 0
 90 420 152 399 260 380 c 0
 378 359 448 322 448 204 c 0
 448 70 386 -9 253 -9 c 0
 183 -9 56 7 56 7 c 1
 60 39 l 1
 60 39 183 24 253 24 c 0
 363 24 410 91 410 201 c 0
 410 299 352 330 254 346 c 0
 128 367 52 402 52 528 c 0
 52 652 128 709 252 709 c 0
 324 709 434 691 434 691 c 1
EndSplineSet
Position2: "'cpsp' Capital Spacing in Latin lookup 0 subtable" dx=5 dy=0 dh=10 dv=0
EndChar
StartChar: Tcedilla
Encoding: 354 354 450
Width: 481
Flags: MW
HStem: -199 31<262.5 292 262.5 302> -84 31<259 267 267 278> 0 21G<225 228 225 225 259 259 259 261> 667 33<14 225 14 467 261 261 261 467>
VStem: 225 36<0 667 0 667> 324 33<-140.5 -106.5>
LayerCount: 2
Back
Fore
SplineSet
357 -124 m 0
 357 -178 325 -199 279 -199 c 0
 238 -199 203 -195 203 -195 c 1
 205 -164 l 1
 205 -164 247 -168 278 -168 c 0
 306 -168 324 -157 324 -124 c 0
 324 -89 301 -84 278 -84 c 2
 228 -84 l 1
 228 0 l 1
 225 0 l 1
 225 667 l 1
 14 667 l 1
 14 700 l 1
 467 700 l 1
 467 667 l 1
 261 667 l 1
 261 0 l 1
 259 0 l 1
 259 -53 l 1
 267 -53 l 2
 316 -53 357 -64 357 -124 c 0
EndSplineSet
Substitution2: "'locl' Localized Forms in Latin lookup 0 subtable" Tcommaaccent
EndChar
StartChar: tcedilla
Encoding: 355 355 451
Width: 320
Flags: MW
HStem: -199 31<218.5 248 218.5 258> -84 31<215 223 223 234> -9 32<215 223 215 215> -5 21G<184 184> 468 32<29 103 29 103 138 299>
VStem: 103 35<132 133 133 468 500 662> 184 31<-53 -9 -53 -5 -53 -5> 280 33<-140.5 -106.5>
LayerCount: 2
Back
Fore
SplineSet
313 -124 m 0xef
 313 -178 281 -199 235 -199 c 0
 194 -199 159 -195 159 -195 c 1
 161 -164 l 1
 161 -164 203 -168 234 -168 c 0
 262 -168 280 -157 280 -124 c 0
 280 -89 257 -84 234 -84 c 2
 184 -84 l 1
 184 -5 l 1xdf
 124 9 103 60 103 132 c 2
 103 468 l 1
 29 468 l 1
 29 500 l 1
 103 500 l 1
 103 662 l 1
 138 662 l 1
 138 500 l 1
 299 500 l 1
 299 468 l 1
 138 468 l 1
 138 133 l 2
 138 63 163 23 224 23 c 0
 251 23 308 30 308 30 c 1
 310 -1 l 1
 310 -1 256 -9 223 -9 c 2
 215 -9 l 1
 215 -53 l 1
 223 -53 l 2
 272 -53 313 -64 313 -124 c 0xef
EndSplineSet
Substitution2: "'locl' Localized Forms in Latin lookup 0 subtable" tcommaaccent
EndChar
StartChar: Tcaron
Encoding: 356 356 108
Width: 481
Flags: MW
HStem: 0 21G<225 261 225 225> 667 33<14 467 14 225 261 261 261 467> 798 31<242 242 242 250 234 242>
VStem: 225 36<0 667 0 667>
LayerCount: 2
Back
Fore
SplineSet
380 926 m 1
 250 798 l 1
 234 798 l 1
 104 926 l 1
 144 926 l 1
 242 829 l 1
 340 926 l 1
 380 926 l 1
14 667 m 1
 14 700 l 1
 467 700 l 1
 467 667 l 1
 261 667 l 1
 261 0 l 1
 225 0 l 1
 225 667 l 1
 14 667 l 1
EndSplineSet
Position2: "'cpsp' Capital Spacing in Latin lookup 0 subtable" dx=5 dy=0 dh=10 dv=0
EndChar
StartChar: tcaron
Encoding: 357 357 345
Width: 364
Flags: MW
HStem: -9 32<193.5 237.5 193.5 239.5> 468 32<29 103 29 103 138 299> 480 20
VStem: 103 35<132 133 133 468 500 662> 336 32<480 700 480 700>
LayerCount: 2
Back
Fore
SplineSet
299 468 m 1xd8
 138 468 l 1
 138 133 l 2
 138 63 163 23 224 23 c 0
 251 23 308 30 308 30 c 1
 310 -1 l 1
 310 -1 256 -9 223 -9 c 0
 133 -9 103 46 103 132 c 2
 103 468 l 1
 29 468 l 1
 29 500 l 1
 103 500 l 1
 103 662 l 1
 138 662 l 1
 138 500 l 1
 299 500 l 1
 299 468 l 1xd8
368 700 m 1
 368 480 l 1
 336 480 l 1xb8
 336 700 l 1
 368 700 l 1
EndSplineSet
EndChar
StartChar: Tbar
Encoding: 358 358 107
Width: 487
Flags: MW
HStem: 0 21G<227 263 227 227> 327 36<59 227 59 227 263 437> 667 33<16 469 16 227 263 263 263 469>
VStem: 227 36<0 327 0 327 363 667>
LayerCount: 2
Back
Fore
SplineSet
16 667 m 1
 16 700 l 1
 469 700 l 1
 469 667 l 1
 263 667 l 1
 263 363 l 1
 437 363 l 1
 437 327 l 1
 263 327 l 1
 263 0 l 1
 227 0 l 1
 227 327 l 1
 59 327 l 1
 59 363 l 1
 227 363 l 1
 227 667 l 1
 16 667 l 1
EndSplineSet
Position2: "'cpsp' Capital Spacing in Latin lookup 0 subtable" dx=5 dy=0 dh=10 dv=0
EndChar
StartChar: tbar
Encoding: 359 359 347
Width: 325
Flags: MW
HStem: -9 32<196.5 240.5 196.5 242.5> 271 32<48 106 48 106 141 300> 468 32<32 106 32 106 141 302>
VStem: 106 35<132 133 133 271 303 468 500 662>
LayerCount: 2
Back
Fore
SplineSet
302 468 m 1
 141 468 l 1
 141 303 l 1
 300 303 l 1
 300 271 l 1
 141 271 l 1
 141 133 l 2
 141 63 166 23 227 23 c 0
 254 23 311 30 311 30 c 1
 313 -1 l 1
 313 -1 259 -9 226 -9 c 0
 136 -9 106 46 106 132 c 2
 106 271 l 1
 48 271 l 1
 48 303 l 1
 106 303 l 1
 106 468 l 1
 32 468 l 1
 32 500 l 1
 106 500 l 1
 106 662 l 1
 141 662 l 1
 141 500 l 1
 302 500 l 1
 302 468 l 1
EndSplineSet
EndChar
StartChar: Utilde
Encoding: 360 360 120
Width: 596
Flags: MW
HStem: -9 33<238 358 238 369> 818 31<368 391.5 368 394> 882 30<220.5 246>
VStem: 81 36<197 700> 479 36<197 700>
LayerCount: 2
Back
Fore
SplineSet
117 700 m 1
 117 197 l 2
 117 73 178 24 298 24 c 0
 418 24 479 72 479 197 c 2
 479 700 l 1
 515 700 l 1
 515 197 l 2
 515 58 440 -9 298 -9 c 0
 156 -9 81 58 81 197 c 2
 81 700 l 1
 117 700 l 1
450 899 m 1
 459 875 l 1
 459 875 407 818 381 818 c 0
 341 818 261 882 231 882 c 0
 210 882 155 828 155 828 c 1
 147 853 l 1
 147 853 204 912 233 912 c 0
 274 912 353 849 383 849 c 0
 400 849 450 899 450 899 c 1
EndSplineSet
Position2: "'cpsp' Capital Spacing in Latin lookup 0 subtable" dx=5 dy=0 dh=10 dv=0
EndChar
StartChar: utilde
Encoding: 361 361 348
Width: 488
Flags: MW
HStem: -9 32<178 260 178 261.5> 0 21G<379 414 379 379> 480 20G<70 105 105 105 379 414 414 414> 630 31<305.5 328.5 305.5 330.5> 665 21G<103 103> 681 32<167.5 192.5> 700 21G<377 377>
VStem: 70 35<197 201 201 500> 379 35<0 93 93 93 139 500 0 500>
LayerCount: 2
Back
Fore
SplineSet
377 700 m 1xab80
 385 674 l 1
 385 674 344 630 317 630 c 0xb380
 279 630 207 681 178 681 c 0
 157 681 111 637 111 637 c 1
 103 665 l 1
 103 665 151 713 181 713 c 0xa580
 214 713 292 661 319 661 c 0xb380
 338 661 377 700 377 700 c 1xab80
379 500 m 1
 414 500 l 1
 414 0 l 1
 379 0 l 1x6b80
 379 93 l 1
 379 93 306 -9 217 -9 c 0
 113 -9 70 56 70 197 c 2
 70 500 l 1
 105 500 l 1
 105 201 l 2
 105 82 137 23 219 23 c 0
 301 23 379 139 379 139 c 1
 379 500 l 1
EndSplineSet
EndChar
StartChar: Ubreve
Encoding: 364 364 112
Width: 596
Flags: MW
HStem: -9 33<238 358 238 369> 804 30<271.5 324 271.5 333>
VStem: 81 36<197 700> 173 32<893.5 921 893.5 921> 391 32<893.5 921> 479 36<197 700>
LayerCount: 2
Back
Fore
SplineSet
117 700 m 1
 117 197 l 2
 117 73 178 24 298 24 c 0
 418 24 479 72 479 197 c 2
 479 700 l 1
 515 700 l 1
 515 197 l 2
 515 58 440 -9 298 -9 c 0
 156 -9 81 58 81 197 c 2
 81 700 l 1
 117 700 l 1
173 921 m 1
 205 921 l 1
 205 866 245 834 298 834 c 0
 350 834 391 866 391 921 c 1
 423 921 l 1
 423 845 368 804 298 804 c 0
 228 804 173 845 173 921 c 1
EndSplineSet
Position2: "'cpsp' Capital Spacing in Latin lookup 0 subtable" dx=5 dy=0 dh=10 dv=0
EndChar
StartChar: ubreve
Encoding: 365 365 350
Width: 488
Flags: MW
HStem: -9 32<178 260 178 261.5> 0 21G<379 414 379 379> 480 20G<70 105 105 105 379 414 414 414> 595 28<210.5 271.5 210.5 280>
VStem: 70 35<197 201 201 500> 116 28<693 721 693 721> 338 28<693 721> 379 35<0 93 93 93 139 500 0 500>
LayerCount: 2
Back
Fore
SplineSet
379 500 m 1xb9
 414 500 l 1
 414 0 l 1
 379 0 l 1x7d
 379 93 l 1
 379 93 306 -9 217 -9 c 0
 113 -9 70 56 70 197 c 2
 70 500 l 1
 105 500 l 1
 105 201 l 2
 105 82 137 23 219 23 c 0
 301 23 379 139 379 139 c 1
 379 500 l 1xb9
116 721 m 1
 144 721 l 1
 144 665 180 623 241 623 c 0
 302 623 338 665 338 721 c 1
 366 721 l 1xbf
 366 643 319 595 241 595 c 0
 163 595 116 643 116 721 c 1
EndSplineSet
EndChar
StartChar: Uring
Encoding: 366 366 119
Width: 596
Flags: MW
HStem: -9 33<238 358 238 369> 757 29<280 318 280 325.5> 905 29<280 318>
VStem: 81 36<197 700> 213 25<826 864.5 826 874> 359 26<826 864.5> 479 36<197 700>
LayerCount: 2
Back
Fore
SplineSet
117 700 m 1
 117 197 l 2
 117 73 178 24 298 24 c 0
 418 24 479 72 479 197 c 2
 479 700 l 1
 515 700 l 1
 515 197 l 2
 515 58 440 -9 298 -9 c 0
 156 -9 81 58 81 197 c 2
 81 700 l 1
 117 700 l 1
385 845 m 0
 385 788 352 757 299 757 c 0
 244 757 213 788 213 845 c 0
 213 903 244 934 299 934 c 0
 352 934 385 903 385 845 c 0
238 845 m 0
 238 807 261 786 299 786 c 0
 337 786 359 807 359 845 c 0
 359 884 337 905 299 905 c 0
 261 905 238 884 238 845 c 0
EndSplineSet
Position2: "'cpsp' Capital Spacing in Latin lookup 0 subtable" dx=5 dy=0 dh=10 dv=0
EndChar
StartChar: uring
Encoding: 367 367 351
Width: 488
Flags: MW
HStem: -9 32<178 260 178 261.5> 0 21G<379 414 379 379> 480 20G<70 105 105 105 379 414 414 414> 556 29<225 257 225 266> 707 21G<225 257>
VStem: 70 35<197 201 201 500> 155 27<630 664 630 672> 297 27<630 664> 379 35<0 93 93 93 139 500 0 500>
LayerCount: 2
Back
Fore
SplineSet
155 647 m 0xbf80
 155 697 190 738 241 738 c 0
 291 738 324 697 324 647 c 0
 324 592 291 556 241 556 c 0
 190 556 155 592 155 647 c 0xbf80
182 647 m 0
 182 613 209 585 241 585 c 0
 273 585 297 613 297 647 c 0
 297 681 273 707 241 707 c 0
 209 707 182 681 182 647 c 0
379 500 m 1
 414 500 l 1
 414 0 l 1
 379 0 l 1x7f80
 379 93 l 1
 379 93 306 -9 217 -9 c 0
 113 -9 70 56 70 197 c 2
 70 500 l 1
 105 500 l 1
 105 201 l 2
 105 82 137 23 219 23 c 0
 301 23 379 139 379 139 c 1
 379 500 l 1
EndSplineSet
EndChar
StartChar: Uhungarumlaut
Encoding: 368 368 116
Width: 596
Flags: MW
HStem: -9 33<238 358 238 369>
VStem: 81 36<197 700> 479 36<197 700>
LayerCount: 2
Back
Fore
SplineSet
117 700 m 1
 117 197 l 2
 117 73 178 24 298 24 c 0
 418 24 479 72 479 197 c 2
 479 700 l 1
 515 700 l 1
 515 197 l 2
 515 58 440 -9 298 -9 c 0
 156 -9 81 58 81 197 c 2
 81 700 l 1
 117 700 l 1
152 766 m 1
 142 788 l 1
 324 876 l 1
 333 852 l 1
 152 766 l 1
331 765 m 1
 323 789 l 1
 503 875 l 1
 513 853 l 1
 331 765 l 1
EndSplineSet
Position2: "'cpsp' Capital Spacing in Latin lookup 0 subtable" dx=5 dy=0 dh=10 dv=0
EndChar
StartChar: Uogonek
Encoding: 370 370 118
Width: 598
Flags: MW
HStem: -198 34<292 312 292 315> -9 33
VStem: 82 36<197 700> 228 36<-135.5 -108.5 -135.5 -108> 480 36<197 700>
LayerCount: 2
Back
Fore
SplineSet
118 700 m 1
 118 197 l 2
 118 73 179 24 299 24 c 0
 419 24 480 72 480 197 c 2
 480 700 l 1
 516 700 l 1
 516 197 l 2
 516 68 452 1 330 -8 c 1
 290 -55 264 -93 264 -124 c 0
 264 -147 281 -164 303 -164 c 0
 321 -164 360 -157 360 -157 c 1
 363 -190 l 1
 363 -190 329 -198 301 -198 c 0
 253 -198 228 -168 228 -127 c 0
 228 -89 262 -43 290 -9 c 1
 154 -6 82 61 82 197 c 2
 82 700 l 1
 118 700 l 1
EndSplineSet
Position2: "'cpsp' Capital Spacing in Latin lookup 0 subtable" dx=5 dy=0 dh=10 dv=0
EndChar
StartChar: uogonek
Encoding: 371 371 353
Width: 488
Flags: MW
HStem: -198 34<365 385 365 388> -9 32<178 260 178 261.5> 480 20G<70 105 105 105 379 414 414 414>
VStem: 70 35<197 201 201 500> 301 36<-135.5 -107 -135.5 -105> 379 35<8 93 93 93 139 500 0 500>
LayerCount: 2
Back
Fore
SplineSet
379 500 m 1
 414 500 l 1
 414 0 l 1
 369 -48 337 -90 337 -124 c 0
 337 -147 354 -164 376 -164 c 0
 394 -164 433 -157 433 -157 c 1
 436 -190 l 1
 436 -190 402 -198 374 -198 c 0
 326 -198 301 -168 301 -127 c 0
 301 -83 349 -25 379 8 c 1
 379 93 l 1
 379 93 306 -9 217 -9 c 0
 113 -9 70 56 70 197 c 2
 70 500 l 1
 105 500 l 1
 105 201 l 2
 105 82 137 23 219 23 c 0
 301 23 379 139 379 139 c 1
 379 500 l 1
EndSplineSet
EndChar
StartChar: wcircumflex
Encoding: 373 373 356
Width: 710
Flags: MW
HStem: 0 32<187 206 187 232 159 206 504 523> 444 46<355 355> 480 20G<35 72 72 72 638 675 675 675> 695 35<353 353> 710 20G<345 360 360 360>
VStem: 35 640<500 500>
LayerCount: 2
Back
Fore
SplineSet
35 500 m 1xac
 72 500 l 1xb4
 187 32 l 1
 206 32 l 1
 336 490 l 1
 374 490 l 1xcc
 504 32 l 1
 523 32 l 1
 638 500 l 1
 675 500 l 1xac
 551 0 l 1
 478 0 l 1
 355 444 l 1xcc
 232 0 l 1
 159 0 l 1
 35 500 l 1xac
227 595 m 1
 345 730 l 1
 360 730 l 1
 479 595 l 1
 441 595 l 1
 353 695 l 1
 265 595 l 1
 227 595 l 1
EndSplineSet
EndChar
StartChar: ycircumflex
Encoding: 375 375 359
Width: 442
Flags: MW
HStem: -230 21G<164 200 164 164> 0 32<200 232 174 240> 480 20G<31 68 68 68 374 412 412 412> 695 35<216 216> 710 20G<208 223 223 223>
VStem: 31 381<500 500>
LayerCount: 2
Back
Fore
SplineSet
31 500 m 1xec
 68 500 l 1
 200 32 l 1
 240 32 l 1
 374 500 l 1
 412 500 l 1
 200 -230 l 1
 164 -230 l 1
 232 0 l 1
 174 0 l 1
 31 500 l 1xec
90 595 m 1xf4
 208 730 l 1
 223 730 l 1
 342 595 l 1
 304 595 l 1
 216 695 l 1
 128 595 l 1
 90 595 l 1xf4
EndSplineSet
EndChar
StartChar: zacute
Encoding: 378 378 360
Width: 423
Flags: MW
HStem: 701 21G<319 319> 710 20G<306 306>
VStem: 41 341<0 32 0 32 469 500>
LayerCount: 2
Back
Fore
SplineSet
41 500 m 1x60
 41 468 l 1
 339 468 l 1
 41 32 l 1
 41 0 l 1
 382 0 l 1
 382 32 l 1
 83 32 l 1
 382 469 l 1
 382 500 l 1
 41 500 l 1x60
137 609 m 1xa0
 124 634 l 1xa0
 306 730 l 1x60
 319 701 l 1
 137 609 l 1xa0
EndSplineSet
EndChar
StartChar: zdotaccent
Encoding: 380 380 361
Width: 423
Flags: MW
HStem: 500 178<41 229 199 229 199 382>
VStem: 199 30<620 678 620 678>
LayerCount: 2
Back
Fore
SplineSet
41 500 m 1
 41 468 l 1
 339 468 l 1
 41 32 l 1
 41 0 l 1
 382 0 l 1
 382 32 l 1
 83 32 l 1
 382 469 l 1
 382 500 l 1
 41 500 l 1
199 620 m 1
 199 678 l 1
 229 678 l 1
 229 620 l 1
 199 620 l 1
EndSplineSet
EndChar
StartChar: Zcaron
Encoding: 381 381 135
Width: 501
Flags: MW
HStem: -1 33<77 458 77 458> 667 33<43 458 43 423> 797 31<260 260 260 268 252 260>
VStem: 43 34<32 56 32 71 32 71> 423 35<641 667 667 667>
LayerCount: 2
Back
Fore
SplineSet
398 925 m 1
 268 797 l 1
 252 797 l 1
 122 925 l 1
 162 925 l 1
 260 828 l 1
 358 925 l 1
 398 925 l 1
43 667 m 1
 43 700 l 1
 458 700 l 1
 458 627 l 1
 77 56 l 1
 77 32 l 1
 458 32 l 1
 458 -1 l 1
 43 -1 l 1
 43 71 l 1
 423 641 l 1
 423 667 l 1
 43 667 l 1
EndSplineSet
Position2: "'cpsp' Capital Spacing in Latin lookup 0 subtable" dx=5 dy=0 dh=10 dv=0
EndChar
StartChar: zcaron
Encoding: 382 382 155
Width: 423
Flags: MW
HStem: 0 32<83 382 41 41> 468 32<41 382 41 339> 710 20G<91 128 128 128 304 341 341 341>
VStem: 41 341<0 32 0 32 469 500>
LayerCount: 2
Back
Fore
SplineSet
223 595 m 1
 209 595 l 1
 91 730 l 1
 128 730 l 1
 216 627 l 1
 304 730 l 1
 341 730 l 1
 223 595 l 1
41 468 m 1
 41 500 l 1
 382 500 l 1
 382 469 l 1
 83 32 l 1
 382 32 l 1
 382 0 l 1
 41 0 l 1
 41 32 l 1
 339 468 l 1
 41 468 l 1
EndSplineSet
EndChar
StartChar: florin
Encoding: 402 402 225
Width: 560
Flags: MW
HStem: -243 37<134.5 174.5 134.5 186> -238 32 349 36<121 233 121 233 268 439 121 268> 635 37<315.5 368>
VStem: 233 35<-63 349 385 438>
LayerCount: 2
Back
Fore
SplineSet
268 349 m 1x78
 268 -63 l 2
 268 -197 224 -243 148 -243 c 0xb8
 115 -243 89 -238 89 -238 c 1
 91 -203 l 1
 91 -203 121 -206 148 -206 c 0
 201 -206 233 -171 233 -63 c 2
 233 349 l 1
 121 349 l 1
 121 385 l 1
 233 385 l 1
 233 456 l 2
 233 622 270 672 354 672 c 0
 397 672 460 667 460 667 c 1
 458 632 l 1
 458 632 382 635 354 635 c 0
 277 635 268 562 268 438 c 2
 268 385 l 1
 439 385 l 1
 439 349 l 1
 268 349 l 1x78
EndSplineSet
EndChar
StartChar: aringacute
Encoding: 507 507 303
Width: 481
Flags: MW
HStem: -9 32<164.5 259 164.5 259> 0 21G<413 413> 477 32<191 276> 556 29<241 273 241 282> 707 21G<241 273>
VStem: 56 37<174 314 174 320> 171 27<630 664 630 672> 313 27<630 664> 372 35<80 100 151 465 465 465>
LayerCount: 2
Back
Fore
SplineSet
173 774 m 1xbf80
 157 804 l 1
 339 900 l 1
 355 866 l 1
 173 774 l 1xbf80
209 -9 m 0
 93 -9 56 78 56 237 c 0
 56 403 94 509 254 509 c 0
 299 509 407 493 407 493 c 1
 407 110 l 2
 407 50 413 0 413 0 c 1
 377 -2 l 1x7f80
 377 -2 372 53 372 100 c 1
 372 100 309 -9 209 -9 c 0
261 477 m 0
 121 477 93 391 93 237 c 0
 93 111 116 23 213 23 c 0
 305 23 372 151 372 151 c 1
 372 465 l 1
 372 465 291 477 261 477 c 0
171 647 m 0
 171 697 206 738 257 738 c 0
 307 738 340 697 340 647 c 0
 340 592 307 556 257 556 c 0
 206 556 171 592 171 647 c 0
198 647 m 0
 198 613 225 585 257 585 c 0
 289 585 313 613 313 647 c 0
 313 681 289 707 257 707 c 0
 225 707 198 681 198 647 c 0
EndSplineSet
EndChar
StartChar: AEacute
Encoding: 508 508 27
Width: 791
Flags: MW
HStem: 0 33<403 744 403 744> 215 32<134 367 134 367 126 367> 343 33<403 687 403 687> 667 33<256 256 256 367 403 744 403 403>
VStem: 367 36<33 215 215 215 247 343 376 667>
LayerCount: 2
Back
Fore
SplineSet
367 0 m 1
 367 215 l 1
 126 215 l 1
 63 0 l 1
 28 0 l 1
 232 700 l 1
 744 700 l 1
 744 667 l 1
 403 667 l 1
 403 376 l 1
 687 376 l 1
 687 343 l 1
 403 343 l 1
 403 33 l 1
 744 33 l 1
 744 0 l 1
 367 0 l 1
256 667 m 1
 134 247 l 1
 367 247 l 1
 367 667 l 1
 256 667 l 1
388 798 m 1
 374 822 l 1
 556 919 l 1
 570 890 l 1
 388 798 l 1
EndSplineSet
Position2: "'cpsp' Capital Spacing in Latin lookup 0 subtable" dx=5 dy=0 dh=10 dv=0
EndChar
StartChar: aeacute
Encoding: 509 509 305
Width: 772
Flags: MW
HStem: -9 36<134.5 207.5 498.5 564> 234 36<390 687 390 722 390 687> 270 33<352 352> 471 38<215.5 286.5 212.5 303> 701 21G<506 506> 710 20G<493 493>
VStem: 46 36<112 173 112 180> 353 37<303 341.5> 687 35<234 300>
LayerCount: 2
Back
Fore
SplineSet
531 27 m 0xd780
 597 27 702 36 702 36 c 1
 704 0 l 1
 704 0 599 -9 531 -9 c 0
 466 -9 423 13 396 50 c 1
 333 24 249 -9 166 -9 c 0
 77 -9 46 58 46 138 c 0
 46 222 74 258 150 275 c 0
 198 286 263 294 353 303 c 1xb780
 353 383 356 471 250 471 c 0
 181 471 73 462 73 462 c 1
 71 499 l 1
 71 499 175 509 250 509 c 0
 323 509 367 476 382 412 c 1
 418 484 475 509 544 509 c 0
 631 509 689 471 711 379 c 0
 719 345 722 310 722 269 c 2
 722 234 l 1
 390 234 l 1
 390 193 393 159 400 130 c 0
 417 63 455 27 531 27 c 0xd780
167 27 m 0
 253 27 362 68 380 76 c 1
 356 132 352 201 352 270 c 1
 275 263 203 252 180 248 c 0xb780
 111 236 82 208 82 138 c 0
 82 86 102 27 167 27 c 0
390 270 m 1
 687 270 l 1
 687 330 680 374 665 406 c 0
 643 454 603 473 544 473 c 0
 449 473 390 413 390 270 c 1
324 609 m 1xdb80
 311 634 l 1xdb80
 493 730 l 1xd780
 506 701 l 1
 324 609 l 1xdb80
EndSplineSet
EndChar
StartChar: Oslashacute
Encoding: 510 510 91
Width: 626
Flags: MW
HStem: -9 34<289.5 336.5 289.5 345> 667 21G<477 477> 675 34<290.5 338.5>
VStem: 63 38<283.5 435.5> 525 38<273 423.5>
LayerCount: 2
Back
Fore
SplineSet
131 -110 m 1xd8
 99 -97 l 1
 156 30 l 1
 79 85 63 194 63 355 c 0
 63 516 79 621 156 672 c 0
 193 697 244 709 313 709 c 0xb8
 369 709 413 701 447 685 c 1
 494 791 l 1
 526 778 l 1
 477 667 l 1
 547 614 563 510 563 355 c 0
 563 188 546 76 461 24 c 0
 425 2 377 -9 313 -9 c 0
 261 -9 219 -1 186 13 c 1
 131 -110 l 1xd8
171 64 m 1
 297 347 l 1
 432 652 l 1
 403 667 364 675 313 675 c 0
 268 675 232 670 204 658 c 0
 113 620 101 521 101 355 c 0
 101 212 110 114 171 64 c 1
313 25 m 0
 360 25 396 31 425 45 c 0
 512 87 525 191 525 355 c 0
 525 492 516 583 461 632 c 1
 329 334 l 1
 200 45 l 1
 229 32 266 25 313 25 c 0
265 793 m 1
 249 822 l 1
 431 919 l 1
 447 885 l 1
 265 793 l 1
EndSplineSet
Position2: "'cpsp' Capital Spacing in Latin lookup 0 subtable" dx=5 dy=0 dh=10 dv=0
EndChar
StartChar: oslashacute
Encoding: 511 511 280
Width: 486
Flags: MW
HStem: -9 32<229 315 229 329.5> 477 32<184 256.5> 701 21G<337 337> 710 20G<324 324>
VStem: 57 36<206.5 337 206.5 343> 393 36<184.5 309.5>
LayerCount: 2
Back
Fore
SplineSet
243 509 m 0xdc
 274 509 300 505 322 498 c 1
 363 604 l 1
 393 593 l 1
 350 486 l 1
 411 451 429 375 429 259 c 0
 429 91 416 -9 243 -9 c 0
 210 -9 183 -6 161 1 c 1
 118 -113 l 1
 89 -103 l 1
 134 12 l 1
 64 50 57 136 57 259 c 0
 57 427 95 509 243 509 c 0xdc
243 23 m 0
 387 23 393 110 393 259 c 0
 393 360 379 422 337 453 c 1
 254 242 l 1
 173 32 l 1
 192 26 215 23 243 23 c 0
147 45 m 1
 229 254 l 1
 310 467 l 1
 292 474 270 477 243 477 c 0
 125 477 93 415 93 259 c 0
 93 154 96 80 147 45 c 1
155 609 m 1xec
 142 634 l 1xec
 324 730 l 1xdc
 337 701 l 1
 155 609 l 1xec
EndSplineSet
EndChar
StartChar: Scommaaccent
Encoding: 536 536 105
Width: 497
Flags: MW
HStem: -9 33<217 307 217 318.5> 676 33<199 287>
VStem: 51 38<474 580 474 590> 409 38<146 250>
LayerCount: 2
Back
Fore
SplineSet
246 -73 m 1
 211 -265 l 1
 236 -265 l 1
 280 -73 l 1
 246 -73 l 1
433 691 m 1
 430 660 l 1
 430 660 323 676 251 676 c 0
 147 676 89 632 89 528 c 0
 89 420 151 399 259 380 c 0
 377 359 447 322 447 204 c 0
 447 70 385 -9 252 -9 c 0
 182 -9 55 7 55 7 c 1
 59 39 l 1
 59 39 182 24 252 24 c 0
 362 24 409 91 409 201 c 0
 409 299 351 330 253 346 c 0
 127 367 51 402 51 528 c 0
 51 652 127 709 251 709 c 0
 323 709 433 691 433 691 c 1
EndSplineSet
Position2: "'cpsp' Capital Spacing in Latin lookup 0 subtable" dx=5 dy=0 dh=10 dv=0
EndChar
StartChar: Tcommaaccent
Encoding: 538 538 109
Width: 481
Flags: MW
HStem: 0 21G<225 261 225 225> 667 33<14 467 14 225 261 261 261 467>
VStem: 225 36<0 667 0 667>
LayerCount: 2
Back
Fore
SplineSet
223 -73 m 1
 188 -265 l 1
 213 -265 l 1
 257 -73 l 1
 223 -73 l 1
14 667 m 1
 14 700 l 1
 467 700 l 1
 467 667 l 1
 261 667 l 1
 261 0 l 1
 225 0 l 1
 225 667 l 1
 14 667 l 1
EndSplineSet
Position2: "'cpsp' Capital Spacing in Latin lookup 0 subtable" dx=5 dy=0 dh=10 dv=0
EndChar
StartChar: circumflex
Encoding: 710 710 6
Width: 791
Flags: MW
HStem: 695 35<387 387>
VStem: 261 252<595 595>
LayerCount: 2
Back
Fore
SplineSet
261 595 m 1
 379 730 l 1
 394 730 l 1
 513 595 l 1
 475 595 l 1
 387 695 l 1
 299 595 l 1
 261 595 l 1
EndSplineSet
EndChar
StartChar: caron
Encoding: 711 711 4
Width: 791
Flags: MW
HStem: 710 20G<262 299 299 299 475 512 512 512>
VStem: 262 250<730 730>
LayerCount: 2
Back
Fore
SplineSet
394 595 m 1
 380 595 l 1
 262 730 l 1
 299 730 l 1
 387 627 l 1
 475 730 l 1
 512 730 l 1
 394 595 l 1
EndSplineSet
EndChar
StartChar: breve
Encoding: 728 728 3
Width: 424
Flags: MW
HStem: 595 28<179.5 240.5 179.5 249>
VStem: 85 28<693 721 693 721> 307 28<693 721>
LayerCount: 2
Back
Fore
SplineSet
85 721 m 1
 113 721 l 1
 113 665 149 623 210 623 c 0
 271 623 307 665 307 721 c 1
 335 721 l 1
 335 643 288 595 210 595 c 0
 132 595 85 643 85 721 c 1
EndSplineSet
EndChar
StartChar: dotaccent
Encoding: 729 729 9
Width: 204
Flags: MW
HStem: 620 58<86 116 86 116>
VStem: 86 30<620 678 620 678>
LayerCount: 2
Back
Fore
SplineSet
86 620 m 1
 86 678 l 1
 116 678 l 1
 116 620 l 1
 86 620 l 1
EndSplineSet
EndChar
StartChar: ring
Encoding: 730 730 14
Width: 791
Flags: MW
HStem: 556 29<238 270 238 279> 707 21G<238 270>
VStem: 168 27<630 664 630 672> 310 27<630 664>
LayerCount: 2
Back
Fore
SplineSet
168 647 m 0
 168 697 203 738 254 738 c 0
 304 738 337 697 337 647 c 0
 337 592 304 556 254 556 c 0
 203 556 168 592 168 647 c 0
195 647 m 0
 195 613 222 585 254 585 c 0
 286 585 310 613 310 647 c 0
 310 681 286 707 254 707 c 0
 222 707 195 681 195 647 c 0
EndSplineSet
EndChar
StartChar: ogonek
Encoding: 731 731 13
Width: 412
Flags: MW
HStem: -198 34<223 243 223 246>
VStem: 159 36<-135.5 -107 -135.5 -104.5>
LayerCount: 2
Back
Fore
SplineSet
291 -157 m 1
 294 -190 l 1
 294 -190 260 -198 232 -198 c 0
 184 -198 159 -168 159 -127 c 0
 159 -82 208 -23 237 10 c 1
 273 5 l 1
 227 -48 195 -90 195 -124 c 0
 195 -147 212 -164 234 -164 c 0
 252 -164 291 -157 291 -157 c 1
EndSplineSet
EndChar
StartChar: tilde
Encoding: 732 732 15
Width: 414
Flags: MW
HStem: 630 31<279.5 302.5 279.5 304.5> 665 21G<77 77> 681 32<141.5 166.5> 700 21G<351 351>
VStem: 77 282<665 674>
LayerCount: 2
Back
Fore
SplineSet
351 700 m 1x58
 359 674 l 1
 359 674 318 630 291 630 c 0x98
 253 630 181 681 152 681 c 0
 131 681 85 637 85 637 c 1
 77 665 l 1
 77 665 125 713 155 713 c 0x28
 188 713 266 661 293 661 c 0x98
 312 661 351 700 351 700 c 1x58
EndSplineSet
EndChar
StartChar: hungarumlaut
Encoding: 733 733 10
Width: 651
Flags: MW
HStem: 595 129<294 328>
VStem: 140 343<620 699>
LayerCount: 2
Back
Fore
SplineSet
328 595 m 1
 313 620 l 1
 468 724 l 1
 483 699 l 1
 328 595 l 1
155 595 m 1
 140 620 l 1
 294 724 l 1
 309 699 l 1
 155 595 l 1
EndSplineSet
EndChar
StartChar: pi
Encoding: 960 960 206
Width: 560
Flags: MW
HStem: 0 32<479.5 518 479.5 518> 468 32<180 384 180 180>
VStem: 384 35<154 468 468 468>
LayerCount: 2
Back
Fore
SplineSet
384 154 m 2
 384 468 l 1
 180 468 l 1
 151 0 l 1
 115 0 l 1
 145 467 l 1
 58 466 24 455 24 455 c 1
 24 487 l 1
 24 487 80 500 161 500 c 2
 385 500 l 2
 468 500 530 516 530 516 c 1
 530 484 l 1
 530 484 499 471 419 469 c 1
 419 154 l 2
 419 51 441 32 518 32 c 1
 518 0 l 1
 417 0 384 30 384 154 c 2
EndSplineSet
EndChar
StartChar: Wgrave
Encoding: 7808 7808 126
Width: 809
Flags: MW
HStem: 0 33<208 242 208 269 179 242 569 603>
VStem: 38 731<700 700>
LayerCount: 2
Back
Fore
SplineSet
291 919 m 1
 472 822 l 1
 460 798 l 1
 277 890 l 1
 291 919 l 1
38 700 m 1
 72 700 l 1
 208 33 l 1
 242 33 l 1
 384 690 l 1
 422 690 l 1
 569 33 l 1
 603 33 l 1
 735 700 l 1
 769 700 l 1
 632 0 l 1
 541 0 l 1
 403 641 l 1
 269 0 l 1
 179 0 l 1
 38 700 l 1
EndSplineSet
Position2: "'cpsp' Capital Spacing in Latin lookup 0 subtable" dx=5 dy=0 dh=10 dv=0
EndChar
StartChar: wgrave
Encoding: 7809 7809 354
Width: 710
Flags: MW
HStem: 0 32<187 206 187 232 159 206 504 523> 444 46<355 355> 480 20G<35 72 72 72 638 675 675 675> 701 21G<229 229> 710 20G<243 243>
VStem: 35 640<500 500>
LayerCount: 2
Back
Fore
SplineSet
243 730 m 1xac
 424 634 l 1xac
 412 609 l 1
 229 701 l 1xb4
 243 730 l 1xac
35 500 m 1
 72 500 l 1xac
 187 32 l 1
 206 32 l 1
 336 490 l 1
 374 490 l 1xcc
 504 32 l 1
 523 32 l 1
 638 500 l 1
 675 500 l 1xac
 551 0 l 1
 478 0 l 1
 355 444 l 1xcc
 232 0 l 1
 159 0 l 1
 35 500 l 1
EndSplineSet
EndChar
StartChar: wacute
Encoding: 7811 7811 355
Width: 710
Flags: MW
HStem: 0 32<187 206 187 232 159 206 504 523> 444 46<355 355> 480 20G<35 72 72 72 638 675 675 675> 701 21G<469 469> 710 20G<456 456>
VStem: 35 640<500 500>
LayerCount: 2
Back
Fore
SplineSet
35 500 m 1xac
 72 500 l 1xb4
 187 32 l 1
 206 32 l 1
 336 490 l 1
 374 490 l 1xcc
 504 32 l 1
 523 32 l 1
 638 500 l 1
 675 500 l 1xac
 551 0 l 1
 478 0 l 1
 355 444 l 1xcc
 232 0 l 1
 159 0 l 1
 35 500 l 1xac
287 609 m 1
 274 634 l 1xb4
 456 730 l 1xac
 469 701 l 1
 287 609 l 1
EndSplineSet
EndChar
StartChar: Wdieresis
Encoding: 7812 7812 125
Width: 809
Flags: MW
HStem: 0 33<208 242 208 269 179 242 569 603> 831 66<299 327 299 327 479 506>
VStem: 299 28<831 897 831 897> 479 27<831 897 831 897>
LayerCount: 2
Back
Fore
SplineSet
299 831 m 1
 299 897 l 1
 327 897 l 1
 327 831 l 1
 299 831 l 1
479 831 m 1
 479 897 l 1
 506 897 l 1
 506 831 l 1
 479 831 l 1
38 700 m 1
 72 700 l 1
 208 33 l 1
 242 33 l 1
 384 690 l 1
 422 690 l 1
 569 33 l 1
 603 33 l 1
 735 700 l 1
 769 700 l 1
 632 0 l 1
 541 0 l 1
 403 641 l 1
 269 0 l 1
 179 0 l 1
 38 700 l 1
EndSplineSet
Position2: "'cpsp' Capital Spacing in Latin lookup 0 subtable" dx=5 dy=0 dh=10 dv=0
EndChar
StartChar: wdieresis
Encoding: 7813 7813 357
Width: 710
Flags: MW
HStem: 0 32<187 206 187 232 159 206 504 523> 444 46<355 355> 480 20G<35 72 72 72 638 675 675 675> 633 65<251 280 251 280 426 453>
VStem: 251 29<633 698 633 698> 426 27<633 698 633 698>
LayerCount: 2
Back
Fore
SplineSet
35 500 m 1xbc
 72 500 l 1xbc
 187 32 l 1
 206 32 l 1
 336 490 l 1
 374 490 l 1xdc
 504 32 l 1
 523 32 l 1
 638 500 l 1
 675 500 l 1xbc
 551 0 l 1
 478 0 l 1
 355 444 l 1xdc
 232 0 l 1
 159 0 l 1
 35 500 l 1xbc
251 633 m 1
 251 698 l 1
 280 698 l 1
 280 633 l 1
 251 633 l 1
426 633 m 1
 426 698 l 1
 453 698 l 1
 453 633 l 1
 426 633 l 1
EndSplineSet
EndChar
StartChar: uni1EAB
Encoding: 7851 7851 369
Width: 481
Flags: MW
HStem: -9 32<164.5 259 164.5 259> 0 21G<413 413> 477 32<191 276> 665 21G<246 246> 665 35<246 246> 730 31<317.5 340.5 317.5 342.5> 781 32<179.5 204.5>
VStem: 56 37<174 314 174 320> 372 35<80 100 151 465 465 465>
LayerCount: 2
Back
Fore
SplineSet
209 -9 m 0xb580
 93 -9 56 78 56 237 c 0
 56 403 94 509 254 509 c 0
 299 509 407 493 407 493 c 1
 407 110 l 2
 407 50 413 0 413 0 c 1
 377 -2 l 1x7580
 377 -2 372 53 372 100 c 1
 372 100 309 -9 209 -9 c 0xb580
261 477 m 0
 121 477 93 391 93 237 c 0
 93 111 116 23 213 23 c 0
 305 23 372 151 372 151 c 1
 372 465 l 1
 372 465 291 477 261 477 c 0
389 800 m 1
 397 774 l 1
 397 774 356 730 329 730 c 0xb580
 291 730 219 781 190 781 c 0
 169 781 123 737 123 737 c 1
 115 765 l 1
 115 765 163 813 193 813 c 0xb780
 226 813 304 761 331 761 c 0
 350 761 389 800 389 800 c 1
120 565 m 1
 238 700 l 1
 253 700 l 1xad80
 372 565 l 1
 334 565 l 1
 246 665 l 1
 158 565 l 1
 120 565 l 1
EndSplineSet
EndChar
StartChar: uni1EB0
Encoding: 7856 7856 365
Width: 554
Flags: MW
HStem: 0 21G<28 28 28 64 490 490 490 526> 215 33<136 417 136 427 127 417> 666 34<258 258 258 296> 764 30<250.5 303 250.5 312>
VStem: 152 32<853.5 881 853.5 881> 370 32<853.5 881>
LayerCount: 2
Back
Fore
SplineSet
194 1060 m 1
 375 964 l 1
 363 939 l 1
 180 1031 l 1
 194 1060 l 1
28 0 m 1
 232 700 l 1
 322 700 l 1
 526 0 l 1
 490 0 l 1
 427 215 l 1
 127 215 l 1
 64 0 l 1
 28 0 l 1
258 666 m 1
 136 248 l 1
 417 248 l 1
 296 666 l 1
 258 666 l 1
152 881 m 1
 184 881 l 1
 184 826 224 794 277 794 c 0
 329 794 370 826 370 881 c 1
 402 881 l 1
 402 805 347 764 277 764 c 0
 207 764 152 805 152 881 c 1
EndSplineSet
EndChar
StartChar: uni1EC5
Encoding: 7877 7877 367
Width: 445
Flags: MW
HStem: -9 32<178 263 178 270.5> 238 32<92 155 155 156 92 155> 476 32<196 285> 665 21G<239 239> 665 35<239 239> 730 31<306.5 329.5 306.5 331.5> 781 32<168.5 193.5>
VStem: 55 37<162.5 225 225 238> 364 36<342 421>
LayerCount: 2
Back
Fore
SplineSet
227 23 m 0xf580
 299 23 378 46 378 46 c 1
 383 17 l 1
 383 17 315 -9 226 -9 c 0
 105 -9 55 66 55 249 c 0
 55 425 119 508 253 508 c 0
 337 508 400 472 400 389 c 0
 400 274 330 238 156 238 c 2
 92 238 l 1
 92 225 l 2
 92 100 129 23 227 23 c 0xf580
92 270 m 1
 155 270 l 2
 307 270 364 295 364 389 c 0
 364 453 318 476 252 476 c 0
 140 476 93 405 92 270 c 1
113 565 m 1
 231 700 l 1
 246 700 l 1xed80
 365 565 l 1
 327 565 l 1
 239 665 l 1
 151 565 l 1
 113 565 l 1
378 800 m 1xf580
 386 774 l 1
 386 774 345 730 318 730 c 0xf580
 280 730 208 781 179 781 c 0
 158 781 112 737 112 737 c 1
 104 765 l 1
 104 765 152 813 182 813 c 0xf780
 215 813 293 761 320 761 c 0
 339 761 378 800 378 800 c 1xf580
EndSplineSet
EndChar
StartChar: uni1ED7
Encoding: 7895 7895 368
Width: 486
Flags: MW
HStem: -9 32<171 315 171 329.5> 477 32<184 302> 665 21G<238 238> 665 35<238 238> 730 31<306.5 329.5 306.5 331.5> 781 32<168.5 193.5>
VStem: 57 36<184.5 337 184.5 343> 393 36<184.5 337>
LayerCount: 2
Back
Fore
SplineSet
243 509 m 0xeb
 391 509 429 427 429 259 c 0
 429 91 416 -9 243 -9 c 0
 70 -9 57 91 57 259 c 0
 57 427 95 509 243 509 c 0xeb
243 23 m 0
 387 23 393 110 393 259 c 0
 393 415 361 477 243 477 c 0
 125 477 93 415 93 259 c 0
 93 110 99 23 243 23 c 0
378 800 m 1
 386 774 l 1
 386 774 345 730 318 730 c 0xeb
 280 730 208 781 179 781 c 0
 158 781 112 737 112 737 c 1
 104 765 l 1
 104 765 152 813 182 813 c 0xef
 215 813 293 761 320 761 c 0
 339 761 378 800 378 800 c 1
112 565 m 1
 230 700 l 1
 245 700 l 1xdb
 364 565 l 1
 326 565 l 1
 238 665 l 1
 150 565 l 1
 112 565 l 1
EndSplineSet
EndChar
StartChar: Ygrave
Encoding: 7922 7922 132
Width: 495
Flags: MW
HStem: 0 21G<230 266 230 230>
VStem: 230 36<0 300 0 300>
LayerCount: 2
Back
Fore
SplineSet
154 919 m 1
 335 822 l 1
 323 798 l 1
 140 890 l 1
 154 919 l 1
476 700 m 1
 266 300 l 1
 266 0 l 1
 230 0 l 1
 230 300 l 1
 17 700 l 1
 58 700 l 1
 248 342 l 1
 435 700 l 1
 476 700 l 1
EndSplineSet
Position2: "'cpsp' Capital Spacing in Latin lookup 0 subtable" dx=5 dy=0 dh=10 dv=0
EndChar
StartChar: ygrave
Encoding: 7923 7923 358
Width: 442
Flags: MW
HStem: -230 21G<164 200 164 164> 0 32<200 232 174 240> 480 20G<31 68 68 68 374 412 412 412> 701 21G<104 104> 710 20G<118 118>
VStem: 31 381<500 500>
LayerCount: 2
Back
Fore
SplineSet
118 730 m 1xec
 299 634 l 1xec
 287 609 l 1
 104 701 l 1xf4
 118 730 l 1xec
31 500 m 1
 68 500 l 1
 200 32 l 1
 240 32 l 1
 374 500 l 1
 412 500 l 1
 200 -230 l 1
 164 -230 l 1
 232 0 l 1
 174 0 l 1
 31 500 l 1
EndSplineSet
EndChar
StartChar: uni1EF8
Encoding: 7928 7928 366
Width: 495
Flags: MW
HStem: 0 21G<230 266 230 230> 830 31<313.5 336.5 313.5 338.5> 881 32<175.5 200.5>
VStem: 230 36<0 300 0 300>
LayerCount: 2
Back
Fore
SplineSet
385 900 m 1
 393 874 l 1
 393 874 352 830 325 830 c 0xd0
 287 830 215 881 186 881 c 0
 165 881 119 837 119 837 c 1
 111 865 l 1
 111 865 159 913 189 913 c 0xf0
 222 913 300 861 327 861 c 0
 346 861 385 900 385 900 c 1
476 700 m 1
 266 300 l 1
 266 0 l 1
 230 0 l 1
 230 300 l 1
 17 700 l 1
 58 700 l 1
 248 342 l 1
 435 700 l 1
 476 700 l 1
EndSplineSet
EndChar
StartChar: uni1EF9
Encoding: 7929 7929 364
Width: 442
Flags: MW
HStem: -230 21G<164 200 164 164> 0 32<200 232 174 240> 480 20G<31 68 68 68 374 412 412 412> 630 31<285.5 308.5 285.5 310.5> 665 21G<83 83> 681 32<147.5 172.5> 700 21G<357 357>
VStem: 31 381<500 500>
LayerCount: 2
Back
Fore
SplineSet
357 700 m 1xeb
 365 674 l 1
 365 674 324 630 297 630 c 0xf3
 259 630 187 681 158 681 c 0
 137 681 91 637 91 637 c 1
 83 665 l 1
 83 665 131 713 161 713 c 0xe5
 194 713 272 661 299 661 c 0xf3
 318 661 357 700 357 700 c 1xeb
31 500 m 1
 68 500 l 1
 200 32 l 1
 240 32 l 1
 374 500 l 1
 412 500 l 1
 200 -230 l 1
 164 -230 l 1
 232 0 l 1
 174 0 l 1
 31 500 l 1
EndSplineSet
EndChar
StartChar: endash
Encoding: 8211 8211 143
Width: 642
Flags: MW
HStem: 252 34<71 571 71 571>
VStem: 71 500<252 286 252 286>
LayerCount: 2
Back
Fore
SplineSet
71 286 m 1
 571 286 l 1
 571 252 l 1
 71 252 l 1
 71 286 l 1
EndSplineSet
Substitution2: "'case' Case-Sensitive Forms in Latin lookup 4 subtable" endash.cap
EndChar
StartChar: emdash
Encoding: 8212 8212 212
Width: 1142
Flags: MW
HStem: 252 34<71 1071 71 1071>
VStem: 71 1000<252 286 252 286>
LayerCount: 2
Back
Fore
SplineSet
71 286 m 1
 1071 286 l 1
 1071 252 l 1
 71 252 l 1
 71 286 l 1
EndSplineSet
Substitution2: "'case' Case-Sensitive Forms in Latin lookup 4 subtable" emdash.cap
EndChar
StartChar: quoteleft
Encoding: 8216 8216 243
Width: 183
Flags: MW
HStem: 497 203<56 128 56 128>
VStem: 56 72
LayerCount: 2
Back
Fore
SplineSet
102 700 m 1
 128 700 l 1
 92 497 l 1
 56 497 l 1
 102 700 l 1
EndSplineSet
EndChar
StartChar: quoteright
Encoding: 8217 8217 244
Width: 181
Flags: MW
HStem: 497 203<58 130 58 130>
VStem: 58 72
LayerCount: 2
Back
Fore
SplineSet
84 497 m 1
 58 497 l 1
 94 700 l 1
 130 700 l 1
 84 497 l 1
EndSplineSet
EndChar
StartChar: quotesinglbase
Encoding: 8218 8218 283
Width: 171
Flags: MW
HStem: -152 203<30 102 30 102>
VStem: 30 72
LayerCount: 2
Back
Fore
SplineSet
76 51 m 1
 102 51 l 1
 66 -152 l 1
 30 -152 l 1
 76 51 l 1
EndSplineSet
EndChar
StartChar: quotedblleft
Encoding: 8220 8220 210
Width: 320
Flags: MW
HStem: 497 203<56 128 56 128 102 193 102 229>
VStem: 56 209<497 700>
LayerCount: 2
Back
Fore
SplineSet
102 700 m 1
 128 700 l 1
 92 497 l 1
 56 497 l 1
 102 700 l 1
239 700 m 1
 265 700 l 1
 229 497 l 1
 193 497 l 1
 239 700 l 1
EndSplineSet
EndChar
StartChar: quotedblright
Encoding: 8221 8221 255
Width: 318
Flags: MW
HStem: 497 203<58 130 58 130 94 195 94 221>
VStem: 58 209<497 700>
LayerCount: 2
Back
Fore
SplineSet
84 497 m 1
 58 497 l 1
 94 700 l 1
 130 700 l 1
 84 497 l 1
221 497 m 1
 195 497 l 1
 231 700 l 1
 267 700 l 1
 221 497 l 1
EndSplineSet
EndChar
StartChar: quotedblbase
Encoding: 8222 8222 380
Width: 281
Flags: MW
HStem: -152 203<30 102 30 102 76 140 76 176>
VStem: 30 182
LayerCount: 2
Back
Fore
SplineSet
76 51 m 1
 102 51 l 1
 66 -152 l 1
 30 -152 l 1
 76 51 l 1
186 51 m 1
 212 51 l 1
 176 -152 l 1
 140 -152 l 1
 186 51 l 1
EndSplineSet
EndChar
StartChar: dagger
Encoding: 8224 8224 251
Width: 441
Flags: MW
HStem: 464 34<32 203 32 203 238 409>
VStem: 203 35<-78 464 -78 464 498 698>
LayerCount: 2
Back
Fore
SplineSet
32 464 m 1
 32 498 l 1
 203 498 l 1
 203 698 l 1
 238 698 l 1
 238 498 l 1
 409 498 l 1
 409 464 l 1
 238 464 l 1
 238 -78 l 1
 203 -78 l 1
 203 464 l 1
 32 464 l 1
EndSplineSet
EndChar
StartChar: daggerdbl
Encoding: 8225 8225 227
Width: 491
Flags: MW
HStem: 122 34<57 228 57 228 263 434> 464 34<57 228 57 228 263 434>
VStem: 228 35<-78 122 -78 122 156 464 498 698>
LayerCount: 2
Back
Fore
SplineSet
228 -78 m 1
 228 122 l 1
 57 122 l 1
 57 156 l 1
 228 156 l 1
 228 464 l 1
 57 464 l 1
 57 498 l 1
 228 498 l 1
 228 698 l 1
 263 698 l 1
 263 498 l 1
 434 498 l 1
 434 464 l 1
 263 464 l 1
 263 156 l 1
 434 156 l 1
 434 122 l 1
 263 122 l 1
 263 -78 l 1
 228 -78 l 1
EndSplineSet
EndChar
StartChar: bullet
Encoding: 8226 8226 207
Width: 476
Flags: MW
HStem: 110 290<113 363 113 363>
VStem: 113 250<110 400 110 400>
LayerCount: 2
Back
Fore
SplineSet
113 110 m 1
 113 400 l 1
 363 400 l 1
 363 110 l 1
 113 110 l 1
EndSplineSet
EndChar
StartChar: ellipsis
Encoding: 8230 8230 268
Width: 657
Flags: MW
HStem: 0 83<71 107 71 107 311 347 550 586>
VStem: 71 36<0 83 0 83> 311 36<0 83 0 83> 550 36<0 83 0 83>
LayerCount: 2
Back
Fore
SplineSet
71 0 m 1
 71 83 l 1
 107 83 l 1
 107 0 l 1
 71 0 l 1
311 0 m 1
 311 83 l 1
 347 83 l 1
 347 0 l 1
 311 0 l 1
550 0 m 1
 550 83 l 1
 586 83 l 1
 586 0 l 1
 550 0 l 1
EndSplineSet
EndChar
StartChar: perthousand
Encoding: 8240 8240 274
Width: 817
Flags: MW
HStem: 0 32<395.5 445 395.5 450 653.5 703> 240 32<395.5 445 653.5 703> 461 208<116.5 166> 701 21G<110 171.5 359 359>
VStem: 73 136<534 601 533 601.5> 317 35<104.5 172.5 104.5 186.5> 488 35<104 172> 575 35<104.5 172.5 104.5 186.5> 746 35<104 172>
LayerCount: 2
Back
Fore
SplineSet
141 669 m 0
 191 669 209 635 209 567 c 0
 209 499 191 461 141 461 c 0
 92 461 73 500 73 568 c 0
 73 635 92 669 141 669 c 0
175 8 m 1
 359 701 l 1
 392 693 l 1
 207 1 l 1
 175 8 l 1
38 568 m 0
 38 471 80 429 141 429 c 0
 201 429 244 471 244 567 c 0
 244 663 202 701 141 701 c 0
 79 701 38 663 38 568 c 0
317 139 m 0
 317 234 358 272 420 272 c 0
 481 272 523 234 523 138 c 0
 523 42 480 0 420 0 c 0
 359 0 317 42 317 139 c 0
352 139 m 0
 352 70 371 32 420 32 c 0
 470 32 488 70 488 138 c 0
 488 206 470 240 420 240 c 0
 371 240 352 206 352 139 c 0
575 139 m 0
 575 234 616 272 678 272 c 0
 739 272 781 234 781 138 c 0
 781 42 738 0 678 0 c 0
 617 0 575 42 575 139 c 0
610 139 m 0
 610 70 629 32 678 32 c 0
 728 32 746 70 746 138 c 0
 746 206 728 240 678 240 c 0
 629 240 610 206 610 139 c 0
EndSplineSet
EndChar
StartChar: guilsinglleft
Encoding: 8249 8249 381
Width: 272
Flags: MW
HStem: 105 286<201 201>
VStem: 45 27<253 253 253 263 253 263>
LayerCount: 2
Back
Fore
SplineSet
201 391 m 1
 201 357 l 1
 72 253 l 1
 201 139 l 1
 201 105 l 1
 45 242 l 1
 45 263 l 1
 201 391 l 1
EndSplineSet
EndChar
StartChar: guilsinglright
Encoding: 8250 8250 382
Width: 272
Flags: MW
HStem: 104 286<71 71>
VStem: 200 27<242 242>
LayerCount: 2
Back
Fore
SplineSet
71 104 m 1
 71 138 l 1
 200 242 l 1
 71 356 l 1
 71 390 l 1
 227 253 l 1
 227 232 l 1
 71 104 l 1
EndSplineSet
EndChar
StartChar: fraction
Encoding: 8260 8260 419
Width: -15
Flags: MW
HStem: -3 21G<-125 -125>
VStem: -158 295
LayerCount: 2
Back
Fore
SplineSet
-125 -3 m 1
 -158 10 l 1
 104 698 l 1
 137 685 l 1
 -125 -3 l 1
EndSplineSet
EndChar
StartChar: zerosuperior
Encoding: 8304 8304 256
Width: 280
Flags: MW
HStem: 469 34<116 154.5> 765 34<124.5 165.5>
VStem: 27 37<585.5 670> 215 37<599.5 679.5>
LayerCount: 2
Back
Fore
SplineSet
139 799 m 0
 209 799 252 758 252 635 c 0
 252 564 237 521 212 496 c 0
 193 477 169 469 140 469 c 0
 74 469 27 509 27 635 c 0
 27 705 42 749 67 773 c 0
 86 791 110 799 139 799 c 0
139 765 m 0
 88 765 64 727 64 635 c 0
 64 536 92 503 140 503 c 0
 188 503 215 535 215 635 c 0
 215 724 192 765 139 765 c 0
EndSplineSet
Substitution2: "Single Substitution lookup 5 subtable" zeroinferior
EndChar
StartChar: foursuperior
Encoding: 8308 8308 260
Width: 280
Flags: MW
HStem: 535 34<71 177 71 177 213 250>
VStem: 177 36<478 535 478 535 569 656>
LayerCount: 2
Back
Fore
SplineSet
177 478 m 1
 177 535 l 1
 31 535 l 1
 31 567 l 1
 120 790 l 1
 158 790 l 1
 71 569 l 1
 177 569 l 1
 177 656 l 1
 213 656 l 1
 213 569 l 1
 250 569 l 1
 250 535 l 1
 213 535 l 1
 213 478 l 1
 177 478 l 1
EndSplineSet
Substitution2: "Single Substitution lookup 5 subtable" fourinferior
EndChar
StartChar: fivesuperior
Encoding: 8309 8309 261
Width: 280
Flags: MW
HStem: 469 35<122.5 161.5 122.5 172> 640 35<129 164> 755 35<91 231 91 91>
VStem: 52.5 35 206 39<552 601>
LayerCount: 2
Back
Fore
SplineSet
57 790 m 1
 231 790 l 1
 231 755 l 1
 91 755 l 1
 84 653 l 1
 84 653 106 675 149 675 c 0
 200 675 245 651 245 576 c 0
 245 504 200 469 144 469 c 0
 99 469 45 481 45 481 c 1
 48 516 l 1
 48 516 101 504 144 504 c 0
 179 504 206 528 206 576 c 0
 206 626 179 640 149 640 c 0
 109 640 79 618 79 618 c 1
 48 620 l 1
 57 790 l 1
EndSplineSet
Substitution2: "Single Substitution lookup 5 subtable" fiveinferior
EndChar
StartChar: sixsuperior
Encoding: 8310 8310 262
Width: 280
Flags: MW
HStem: 469 34<118 169.5 118 177> 646 34<134.5 169.5> 765 34<127.5 171.5 116 172>
VStem: 35 38 211 38<558 604>
LayerCount: 2
Back
Fore
SplineSet
233 790 m 1
 231 758 l 1
 231 758 191 765 153 765 c 0
 102 765 75 738 74 661 c 1
 91 668 122 680 147 680 c 0
 216 680 249 643 249 579 c 0
 249 512 210 469 144 469 c 0
 70 469 35 513 35 635 c 0
 35 758 79 799 153 799 c 0
 190 799 233 790 233 790 c 1
146 646 m 0
 122 646 93 635 73 624 c 1
 74 547 92 503 144 503 c 0
 195 503 211 537 211 579 c 0
 211 629 193 646 146 646 c 0
EndSplineSet
Substitution2: "Single Substitution lookup 5 subtable" sixinferior
EndChar
StartChar: sevensuperior
Encoding: 8311 8311 263
Width: 280
Flags: MW
HStem: 756 34<33 227 33 189>
VStem: 189 38<731 756 756 756>
LayerCount: 2
Back
Fore
SplineSet
33 756 m 1
 33 790 l 1
 227 790 l 1
 227 729 l 1
 115 470 l 1
 77 479 l 1
 189 731 l 1
 189 756 l 1
 33 756 l 1
EndSplineSet
Substitution2: "Single Substitution lookup 5 subtable" seveninferior
EndChar
StartChar: eightsuperior
Encoding: 8312 8312 264
Width: 280
Flags: MW
HStem: 469 34<117 163 117 174.5> 623 37<122 158 122 158> 765 34<114.5 165.5>
VStem: 27 38<540.5 581.5 540.5 587> 32 38<700 733 700 745.5> 210 38<699.5 732.5> 215 38<540.5 579.5>
LayerCount: 2
Back
Fore
SplineSet
140 799 m 0xec
 209 799 248 775 248 717 c 0xf4
 248 674 236 655 193 642 c 1
 233 630 253 614 253 560 c 0
 253 493 209 469 140 469 c 0
 71 469 27 493 27 560 c 0xf2
 27 614 49 626 88 642 c 1
 50 656 32 674 32 717 c 0
 32 774 70 799 140 799 c 0xec
140 503 m 0xf2
 186 503 215 521 215 560 c 0
 215 599 198 613 158 623 c 1
 122 623 l 1
 84 613 65 603 65 560 c 0
 65 521 94 503 140 503 c 0xf2
140 765 m 0xec
 89 765 70 749 70 717 c 0
 70 683 84 672 122 660 c 1
 158 660 l 1
 198 671 210 683 210 716 c 0
 210 749 191 765 140 765 c 0xec
EndSplineSet
Substitution2: "Single Substitution lookup 5 subtable" eightinferior
EndChar
StartChar: ninesuperior
Encoding: 8313 8313 265
Width: 280
Flags: MW
HStem: 469 34<108.5 155.5 108.5 166.5> 589 34<112 149.5 112 150> 765 34<117 164.5>
VStem: 31 38<674.5 718.5 674.5 728> 211 36<606 606 642 642>
LayerCount: 2
Back
Fore
SplineSet
45 479 m 1
 48 510 l 1
 48 510 90 503 127 503 c 0
 184 503 210 537 211 606 c 1
 211 606 168 589 132 589 c 0
 70 589 31 631 31 694 c 0
 31 762 78 799 138 799 c 0
 211 799 247 747 247 631 c 0
 247 507 206 469 127 469 c 0
 90 469 45 479 45 479 c 1
133 623 m 0
 166 623 211 642 211 642 c 1
 209 718 191 765 138 765 c 0
 96 765 69 742 69 695 c 0
 69 654 91 623 133 623 c 0
EndSplineSet
Substitution2: "Single Substitution lookup 5 subtable" nineinferior
EndChar
StartChar: zeroinferior
Encoding: 8320 8320 422
Width: 280
Flags: MW
HStem: -9 34<116 154.5> 287 34<124.5 165.5>
VStem: 27 37<107.5 192> 215 37<121.5 201.5>
LayerCount: 2
Back
Fore
SplineSet
139 321 m 0
 209 321 252 280 252 157 c 0
 252 86 237 43 212 18 c 0
 193 -1 169 -9 140 -9 c 0
 74 -9 27 31 27 157 c 0
 27 227 42 271 67 295 c 0
 86 313 110 321 139 321 c 0
139 287 m 0
 88 287 64 249 64 157 c 0
 64 58 92 25 140 25 c 0
 188 25 215 57 215 157 c 0
 215 246 192 287 139 287 c 0
EndSplineSet
Substitution2: "'frac' Diagonal Fractions in Latin lookup 1 subtable" zerosuperior
EndChar
StartChar: oneinferior
Encoding: 8321 8321 423
Width: 280
Flags: MW
HStem: 0 21G<160 196 160 160> 273 39<160 196>
VStem: 160 36<0 273 273 273 0 312>
LayerCount: 2
Back
Fore
SplineSet
61 245 m 1
 160 312 l 1
 196 312 l 1
 196 0 l 1
 160 0 l 1
 160 273 l 1
 78 217 l 1
 61 245 l 1
EndSplineSet
Substitution2: "'frac' Diagonal Fractions in Latin lookup 1 subtable" onesuperior
EndChar
StartChar: twoinferior
Encoding: 8322 8322 424
Width: 280
Flags: MW
HStem: 0 34<93 241 46 46> 287 34<124 157>
VStem: 198 36<217 255>
LayerCount: 2
Back
Fore
SplineSet
241 0 m 1
 46 0 l 1
 46 34 l 1
 144 138 l 2
 173 169 198 197 198 237 c 0
 198 273 173 287 141 287 c 0
 107 287 51 275 51 275 c 1
 49 308 l 1
 49 308 100 321 142 321 c 0
 202 321 234 293 234 236 c 0
 234 189 208 156 169 115 c 2
 93 34 l 1
 241 34 l 1
 241 0 l 1
EndSplineSet
Substitution2: "'frac' Diagonal Fractions in Latin lookup 1 subtable" twosuperior
EndChar
StartChar: threeinferior
Encoding: 8323 8323 425
Width: 280
Flags: MW
HStem: -9 34<119.5 166 119 175.5> 144 34<82 147 82 147> 287 34<117 162>
VStem: 198 37<223.5 256> 207 37<66 106>
LayerCount: 2
Back
Fore
SplineSet
41 310 m 1xe8
 41 310 94 321 139 321 c 0
 204 321 235 297 235 241 c 0xf0
 235 185 194 166 187 163 c 1
 222 153 244 140 244 84 c 0
 244 20 207 -9 144 -9 c 0
 95 -9 37 2 37 2 c 1
 40 34 l 1
 40 34 94 25 144 25 c 0
 188 25 207 49 207 83 c 0
 207 129 181 144 147 144 c 2xe8
 82 144 l 1
 82 178 l 1
 147 178 l 2
 169 178 198 206 198 241 c 0
 198 271 184 287 140 287 c 0xf0
 94 287 44 278 44 278 c 1
 41 310 l 1xe8
EndSplineSet
Substitution2: "'frac' Diagonal Fractions in Latin lookup 1 subtable" threesuperior
EndChar
StartChar: fourinferior
Encoding: 8324 8324 426
Width: 280
Flags: MW
HStem: 0 91<80 186 80 222> 57 34<80 186 80 186 222 259>
VStem: 186 36<0 57 0 57 91 178>
LayerCount: 2
Back
Fore
SplineSet
186 0 m 1xa0
 186 57 l 1
 40 57 l 1
 40 89 l 1
 129 312 l 1
 167 312 l 1
 80 91 l 1
 186 91 l 1
 186 178 l 1
 222 178 l 1
 222 91 l 1
 259 91 l 1
 259 57 l 1
 222 57 l 1x60
 222 0 l 1
 186 0 l 1xa0
EndSplineSet
Substitution2: "'frac' Diagonal Fractions in Latin lookup 1 subtable" foursuperior
EndChar
StartChar: fiveinferior
Encoding: 8325 8325 427
Width: 280
Flags: MW
HStem: -9 35<115.5 154.5 115.5 165> 162 35<122 157> 277 35<84 224 84 84>
VStem: 45.5 35 199 39<74 123>
LayerCount: 2
Back
Fore
SplineSet
50 312 m 1
 224 312 l 1
 224 277 l 1
 84 277 l 1
 77 175 l 1
 77 175 99 197 142 197 c 0
 193 197 238 173 238 98 c 0
 238 26 193 -9 137 -9 c 0
 92 -9 38 3 38 3 c 1
 41 38 l 1
 41 38 94 26 137 26 c 0
 172 26 199 50 199 98 c 0
 199 148 172 162 142 162 c 0
 102 162 72 140 72 140 c 1
 41 142 l 1
 50 312 l 1
EndSplineSet
Substitution2: "'frac' Diagonal Fractions in Latin lookup 1 subtable" fivesuperior
EndChar
StartChar: sixinferior
Encoding: 8326 8326 428
Width: 280
Flags: MW
HStem: -9 34<115 166.5 115 174> 168 34<131.5 166.5> 287 34<124.5 168.5 113 169>
VStem: 32 38 208 38<80 126>
LayerCount: 2
Back
Fore
SplineSet
230 312 m 1
 228 280 l 1
 228 280 188 287 150 287 c 0
 99 287 72 260 71 183 c 1
 88 190 119 202 144 202 c 0
 213 202 246 165 246 101 c 0
 246 34 207 -9 141 -9 c 0
 67 -9 32 35 32 157 c 0
 32 280 76 321 150 321 c 0
 187 321 230 312 230 312 c 1
143 168 m 0
 119 168 90 157 70 146 c 1
 71 69 89 25 141 25 c 0
 192 25 208 59 208 101 c 0
 208 151 190 168 143 168 c 0
EndSplineSet
Substitution2: "'frac' Diagonal Fractions in Latin lookup 1 subtable" sixsuperior
EndChar
StartChar: seveninferior
Encoding: 8327 8327 429
Width: 280
Flags: MW
HStem: -8 21G<126 126> 278 34<44 238 44 200>
VStem: 200 38<253 278 278 278>
LayerCount: 2
Back
Fore
SplineSet
44 278 m 1
 44 312 l 1
 238 312 l 1
 238 251 l 1
 126 -8 l 1
 88 1 l 1
 200 253 l 1
 200 278 l 1
 44 278 l 1
EndSplineSet
Substitution2: "'frac' Diagonal Fractions in Latin lookup 1 subtable" sevensuperior
EndChar
StartChar: eightinferior
Encoding: 8328 8328 430
Width: 280
Flags: MW
HStem: -9 34<117 163 117 174.5> 145 37<122 158 122 158> 287 34<114.5 165.5>
VStem: 27 38<62.5 103.5 62.5 109> 32 38<222 255 222 267.5> 210 38<221.5 254.5> 215 38<62.5 101.5>
LayerCount: 2
Back
Fore
SplineSet
140 321 m 0xec
 209 321 248 297 248 239 c 0xf4
 248 196 236 177 193 164 c 1
 233 152 253 136 253 82 c 0
 253 15 209 -9 140 -9 c 0
 71 -9 27 15 27 82 c 0xf2
 27 136 49 148 88 164 c 1
 50 178 32 196 32 239 c 0
 32 296 70 321 140 321 c 0xec
140 25 m 0xf2
 186 25 215 43 215 82 c 0
 215 121 198 135 158 145 c 1
 122 145 l 1
 84 135 65 125 65 82 c 0
 65 43 94 25 140 25 c 0xf2
140 287 m 0xec
 89 287 70 271 70 239 c 0
 70 205 84 194 122 182 c 1
 158 182 l 1
 198 193 210 205 210 238 c 0
 210 271 191 287 140 287 c 0xec
EndSplineSet
Substitution2: "'frac' Diagonal Fractions in Latin lookup 1 subtable" eightsuperior
EndChar
StartChar: nineinferior
Encoding: 8329 8329 431
Width: 280
Flags: MW
HStem: -9 34<106.5 153.5 106.5 164.5> 111 34<110 147.5 110 148> 287 34<115 162.5>
VStem: 29 38<196.5 240.5 196.5 250> 209 36<128 128 164 164>
LayerCount: 2
Back
Fore
SplineSet
43 1 m 1
 46 32 l 1
 46 32 88 25 125 25 c 0
 182 25 208 59 209 128 c 1
 209 128 166 111 130 111 c 0
 68 111 29 153 29 216 c 0
 29 284 76 321 136 321 c 0
 209 321 245 269 245 153 c 0
 245 29 204 -9 125 -9 c 0
 88 -9 43 1 43 1 c 1
131 145 m 0
 164 145 209 164 209 164 c 1
 207 240 189 287 136 287 c 0
 94 287 67 264 67 217 c 0
 67 176 89 145 131 145 c 0
EndSplineSet
Substitution2: "'frac' Diagonal Fractions in Latin lookup 1 subtable" ninesuperior
EndChar
StartChar: Euro
Encoding: 8364 8364 246
Width: 560
Flags: MW
HStem: -9 33<260.5 354.5 260.5 358.5> 227 32<55 107 55 110 55 107 145 145 145 444> 389 32<55 107 55 109 144 444> 638 32<258 359.5>
VStem: 107 35<259 259> 110 35<227 227>
LayerCount: 2
Back
Fore
SplineSet
481 43 m 1xf8
 484 10 l 1
 484 10 394 -9 323 -9 c 0
 174 -9 123 80 110 227 c 1
 55 227 l 1
 55 259 l 1
 107 259 l 1
 106 281 106 304 106 328 c 0
 106 349 106 369 107 389 c 1
 55 389 l 1
 55 421 l 1
 109 421 l 1
 122 568 171 670 323 670 c 0
 408 670 484 651 484 651 c 1
 481 619 l 1
 481 619 396 638 323 638 c 0
 193 638 154 549 144 421 c 1
 444 421 l 1
 444 389 l 1
 142 389 l 1
 141 369 141 349 141 328 c 0
 141 304 141 281 142 259 c 1xf8
 444 259 l 1
 444 227 l 1
 145 227 l 1xf4
 157 104 198 24 323 24 c 0
 386 24 481 43 481 43 c 1xf8
EndSplineSet
EndChar
StartChar: trademark
Encoding: 8482 8482 159
Width: 676
Flags: MW
HStem: 342 37<461 461 461 478 443 461> 590 31<92 292 92 176 209 209 209 292>
VStem: 176 33<332 590 332 590> 327 32<331 589 331 621> 566 32<331 589 589 589>
LayerCount: 2
Back
Fore
SplineSet
92 590 m 1
 92 621 l 1
 292 621 l 1
 292 590 l 1
 209 590 l 1
 209 332 l 1
 176 332 l 1
 176 590 l 1
 92 590 l 1
327 331 m 1
 327 621 l 1
 377 621 l 1
 461 379 l 1
 548 621 l 1
 598 621 l 1
 598 331 l 1
 566 331 l 1
 566 589 l 1
 478 342 l 1
 443 342 l 1
 359 589 l 1
 359 331 l 1
 327 331 l 1
EndSplineSet
EndChar
StartChar: Omega
Encoding: 8486 8486 279
Width: 560
Flags: MW
HStem: -9 34<41 190 41 230 41 190 369 519> 636 34<204.5 354.5>
VStem: 71 38<310 450 309 467> 451 38<310 450>
LayerCount: 2
Back
Fore
SplineSet
41 25 m 1
 190 25 l 1
 190 25 71 250 71 370 c 0
 71 564 107 670 280 670 c 0
 453 670 489 564 489 370 c 0
 489 250 369 25 369 25 c 1
 519 25 l 1
 519 -9 l 1
 330 -9 l 1
 330 20 l 1
 330 20 451 258 451 360 c 0
 451 540 429 636 280 636 c 0
 129 636 109 540 109 360 c 0
 109 258 230 20 230 20 c 1
 230 -9 l 1
 41 -9 l 1
 41 25 l 1
EndSplineSet
EndChar
StartChar: Delta
Encoding: 8710 8710 278
Width: 560
Flags: MW
HStem: 0 34<100 459 100 501> 626 34<267 292 267 267>
VStem: 60 441<0 26 0 26>
LayerCount: 2
Back
Fore
SplineSet
60 26 m 1
 242 660 l 1
 318 660 l 1
 500 26 l 1
 501 0 l 1
 60 0 l 1
 60 26 l 1
292 626 m 1
 267 626 l 1
 100 34 l 1
 459 34 l 1
 292 626 l 1
EndSplineSet
EndChar
StartChar: product
Encoding: 8719 8719 409
Width: 560
Flags: MW
HStem: 716 34<30 110 30 530 146 414 146 146 450 450 450 530>
VStem: 110 36<-151 716 -151 716> 414 36<-151 716 -151 716>
LayerCount: 2
Back
Fore
SplineSet
414 -151 m 1
 414 716 l 1
 146 716 l 1
 146 -151 l 1
 110 -151 l 1
 110 716 l 1
 30 716 l 1
 30 750 l 1
 530 750 l 1
 530 716 l 1
 450 716 l 1
 450 -151 l 1
 414 -151 l 1
EndSplineSet
EndChar
StartChar: summation
Encoding: 8721 8721 146
Width: 560
Flags: MW
HStem: -151 34<91 504 91 504> 715 34<91 504 91 91>
VStem: 54 37<-117 -85 -117 -76 -117 -76 688 715> 340 35<314 314>
LayerCount: 2
Back
Fore
SplineSet
340 314 m 1
 54 676 l 1
 54 749 l 1
 504 749 l 1
 504 715 l 1
 91 715 l 1
 91 688 l 1
 375 328 l 1
 375 298 l 1
 91 -85 l 1
 91 -117 l 1
 504 -117 l 1
 504 -151 l 1
 54 -151 l 1
 54 -76 l 1
 340 314 l 1
EndSplineSet
EndChar
StartChar: minus
Encoding: 8722 8722 182
Width: 560
Flags: MW
HStem: 234 34<69 491 69 491>
VStem: 69 422<234 268 234 268>
LayerCount: 2
Back
Fore
SplineSet
69 234 m 1
 69 268 l 1
 491 268 l 1
 491 234 l 1
 69 234 l 1
EndSplineSet
EndChar
StartChar: radical
Encoding: 8730 8730 408
Width: 560
Flags: MW
HStem: -140 32<251 259 251 284 224 259> 416 34<6 99 6 67>
VStem: 6 559<416 768 450 768>
LayerCount: 2
Back
Fore
SplineSet
6 416 m 1
 6 450 l 1
 99 450 l 1
 251 -108 l 1
 259 -108 l 1
 528 768 l 1
 565 768 l 1
 284 -140 l 1
 224 -140 l 1
 67 416 l 1
 6 416 l 1
EndSplineSet
EndChar
StartChar: approxequal
Encoding: 8776 8776 363
Width: 560
Flags: MW
HStem: 112 34<356 396 356 404> 185 34<163 203> 274 34<356 396 356 404> 347 34<163 203>
VStem: 67 424<165 167 167 327>
LayerCount: 2
Back
Fore
SplineSet
480 360 m 1
 491 329 l 1
 491 329 429 274 379 274 c 0
 322 274 225 347 181 347 c 0
 145 347 78 295 78 295 c 1
 67 327 l 1
 67 327 130 381 180 381 c 0
 237 381 334 308 378 308 c 0
 414 308 480 360 480 360 c 1
480 198 m 1
 491 167 l 1
 491 167 429 112 379 112 c 0
 322 112 225 185 181 185 c 0
 145 185 78 133 78 133 c 1
 67 165 l 1
 67 165 130 219 180 219 c 0
 237 219 334 146 378 146 c 0
 414 146 480 198 480 198 c 1
EndSplineSet
EndChar
StartChar: notequal
Encoding: 8800 8800 222
Width: 560
Flags: MW
HStem: -9 21G<175 175> 149 34<67 206 67 221 258 491 67 243> 318 34<67 295 67 280 67 317 332 491> 489 20G<363 363>
VStem: 67 424<149 183 149 183 318 352 149 352>
LayerCount: 2
Back
Fore
SplineSet
67 318 m 1
 67 352 l 1
 295 352 l 1
 363 509 l 1
 395 496 l 1
 332 352 l 1
 491 352 l 1
 491 318 l 1
 317 318 l 1
 258 183 l 1
 491 183 l 1
 491 149 l 1
 243 149 l 1
 175 -9 l 1
 143 4 l 1
 206 149 l 1
 67 149 l 1
 67 183 l 1
 221 183 l 1
 280 318 l 1
 67 318 l 1
EndSplineSet
EndChar
StartChar: lessequal
Encoding: 8804 8804 275
Width: 560
Flags: MW
HStem: 24 34<65 489 65 489>
VStem: 65 46<309 309 309 326 309 326>
LayerCount: 2
Back
Fore
SplineSet
489 446 m 1
 111 309 l 1
 489 161 l 1
 489 122 l 1
 65 290 l 1
 65 326 l 1
 489 485 l 1
 489 446 l 1
65 24 m 1
 65 58 l 1
 489 58 l 1
 489 24 l 1
 65 24 l 1
EndSplineSet
EndChar
StartChar: lozenge
Encoding: 9674 9674 410
Width: 560
Flags: MW
HStem: 0 34<266 293 266 318 242 293> 626 34<266 293 266 266>
VStem: 60 440<332 332>
LayerCount: 2
Back
Fore
SplineSet
60 332 m 1
 242 660 l 1
 318 660 l 1
 500 332 l 1
 318 0 l 1
 242 0 l 1
 60 332 l 1
458 332 m 1
 293 626 l 1
 266 626 l 1
 102 332 l 1
 266 34 l 1
 293 34 l 1
 458 332 l 1
EndSplineSet
EndChar
StartChar: dotlessj
Encoding: 63166 63166 406
Width: 183
Flags: MW
HStem: -239 21G<-32 -32> 480 20G<74 109 109 109>
VStem: 74 35<0 500>
LayerCount: 2
Back
Fore
SplineSet
74 0 m 2
 74 500 l 1
 109 500 l 1
 109 0 l 2
 109 -136 96 -160 -32 -239 c 1
 -48 -209 l 1
 70 -138 74 -118 74 0 c 2
EndSplineSet
EndChar
StartChar: commaaccent
Encoding: 63171 63171 7
Width: 161
Flags: MW
HStem: -265 192<40 109 40 109>
VStem: 40 69
LayerCount: 2
Back
Fore
SplineSet
40 -265 m 1
 75 -73 l 1
 109 -73 l 1
 65 -265 l 1
 40 -265 l 1
EndSplineSet
EndChar
StartChar: acute.cap.001
Encoding: 65593 -1 452
Width: 490
Flags: MW
HStem: 798 121
VStem: 140 196<822 890>
LayerCount: 2
Back
Fore
SplineSet
154 798 m 1
 140 822 l 1
 322 919 l 1
 336 890 l 1
 154 798 l 1
EndSplineSet
EndChar
StartChar: at.cap
Encoding: 65581 -1 420
Width: 925
Flags: MW
HStem: -99 32<324 490 324 493.5> 91 32<382.5 477 382.5 477 679 741.5> 577 32<396.5 484> 787 32<344.5 620>
VStem: 53 37<214 518.5 214 529> 274 37<277 399.5 277 420> 590 35<251 565 565 565> 841 37<293 506>
LayerCount: 2
Back
Fore
SplineSet
475 819 m 0
 786 819 878 671 878 361 c 0
 878 225 845 91 709 91 c 0
 634 91 599 123 592 194 c 1
 592 194 527 91 427 91 c 0
 315 91 274 191 274 337 c 0
 274 503 312 609 472 609 c 0
 517 609 625 593 625 593 c 1
 625 214 l 2
 625 154 649 123 709 123 c 0
 774 123 841 162 841 361 c 0
 841 651 765 787 475 787 c 0
 214 787 90 676 90 361 c 0
 90 67 177 -67 471 -67 c 0
 509 -67 606 -57 606 -57 c 1
 608 -90 l 1
 608 -90 516 -99 471 -99 c 0
 155 -99 53 45 53 361 c 0
 53 697 196 819 475 819 c 0
431 123 m 0
 523 123 590 251 590 251 c 1
 590 565 l 1
 590 565 499 577 469 577 c 0
 324 577 311 459 311 340 c 0
 311 214 334 123 431 123 c 0
EndSplineSet
Position2: "'cpsp' Capital Spacing in Latin lookup 0 subtable" dx=5 dy=0 dh=10 dv=0
EndChar
StartChar: braceleft.cap
Encoding: 65559 -1 288
Width: 332
Flags: MW
HStem: -93 36<253 288> 743 36<236.5 288 228 290>
VStem: 31 42 122 33<22.5 79.5 588.5 647.5> 129 33<196.5 245.5 196.5 254 438 483>
LayerCount: 2
Back
Fore
SplineSet
162 210 m 0xd0
 162 183 155 97 155 65 c 0
 155 -20 216 -57 290 -57 c 1
 288 -93 l 1
 190 -93 122 -44 122 65 c 0xd0
 122 94 129 183 129 207 c 0
 129 301 56 310 31 322 c 1
 31 357 l 1
 57 360 129 388 129 462 c 0xe8
 129 504 122 571 122 601 c 0
 122 720 168 779 288 779 c 1
 290 743 l 1
 183 743 155 694 155 601 c 0xd0
 155 576 162 512 162 483 c 0
 162 393 135 364 73 341 c 1xe8
 132 320 162 281 162 210 c 0xd0
EndSplineSet
Position2: "'cpsp' Capital Spacing in Latin lookup 0 subtable" dx=5 dy=0 dh=10 dv=0
EndChar
StartChar: braceright.cap
Encoding: 65560 -1 289
Width: 331
Flags: MW
HStem: -94 36<44 95.5 42 104> 742 36<44 79>
VStem: 170 33<202 247 439.5 488.5> 177 33<37.5 96.5 605.5 662.5> 259 42
LayerCount: 2
Back
Fore
SplineSet
170 475 m 0xd0
 170 502 177 588 177 620 c 0
 177 705 116 742 42 742 c 1
 44 778 l 1
 142 778 210 729 210 620 c 0xd0
 210 591 203 502 203 478 c 0
 203 384 276 375 301 363 c 1
 301 328 l 1
 275 325 203 297 203 223 c 0xe8
 203 181 210 114 210 84 c 0
 210 -35 164 -94 44 -94 c 1
 42 -58 l 1
 149 -58 177 -9 177 84 c 0xd0
 177 109 170 173 170 202 c 0
 170 292 197 321 259 344 c 1xe8
 200 365 170 404 170 475 c 0xd0
EndSplineSet
Position2: "'cpsp' Capital Spacing in Latin lookup 0 subtable" dx=5 dy=0 dh=10 dv=0
EndChar
StartChar: bracketleft.cap
Encoding: 65557 -1 286
Width: 294
Flags: MW
HStem: -92 33<113 251 113 251> 744 33<113 251 113 113>
VStem: 80 33<-59 744 -59 777>
LayerCount: 2
Back
Fore
SplineSet
80 777 m 1
 251 777 l 1
 251 744 l 1
 113 744 l 1
 113 -59 l 1
 251 -59 l 1
 251 -92 l 1
 80 -92 l 1
 80 777 l 1
EndSplineSet
Position2: "'cpsp' Capital Spacing in Latin lookup 0 subtable" dx=5 dy=0 dh=10 dv=0
EndChar
StartChar: bracketright.cap
Encoding: 65558 -1 287
Width: 294
Flags: MW
HStem: -92 33<43 181 43 214 43 181> 744 33<43 181 43 214>
VStem: 181 33<-59 744 744 744>
LayerCount: 2
Back
Fore
SplineSet
214 -92 m 1
 43 -92 l 1
 43 -59 l 1
 181 -59 l 1
 181 744 l 1
 43 744 l 1
 43 777 l 1
 214 777 l 1
 214 -92 l 1
EndSplineSet
Position2: "'cpsp' Capital Spacing in Latin lookup 0 subtable" dx=5 dy=0 dh=10 dv=0
EndChar
StartChar: breve.cap
Encoding: 65566 -1 295
Width: 424
Flags: MW
HStem: 804 30<183.5 236 183.5 245>
VStem: 85 32<893.5 921 893.5 921> 303 32<893.5 921>
LayerCount: 2
Back
Fore
SplineSet
85 921 m 1
 117 921 l 1
 117 866 157 834 210 834 c 0
 262 834 303 866 303 921 c 1
 335 921 l 1
 335 845 280 804 210 804 c 0
 140 804 85 845 85 921 c 1
EndSplineSet
EndChar
StartChar: caron.cap
Encoding: 65562 -1 291
Width: 424
Flags: MW
HStem: 803 31<210 210 210 218 202 210>
VStem: 72 276<931 931>
LayerCount: 2
Back
Fore
SplineSet
348 931 m 1
 218 803 l 1
 202 803 l 1
 72 931 l 1
 112 931 l 1
 210 834 l 1
 308 931 l 1
 348 931 l 1
EndSplineSet
EndChar
StartChar: circumflex.cap.001
Encoding: 65594 -1 453
Width: 424
Flags: MW
HStem: 803 128<74 217 202 308 202 346>
VStem: 74 272<803 803>
LayerCount: 2
Back
Fore
SplineSet
74 803 m 1
 202 931 l 1
 217 931 l 1
 346 803 l 1
 308 803 l 1
 210 896 l 1
 112 803 l 1
 74 803 l 1
EndSplineSet
EndChar
StartChar: dieresis.cap
Encoding: 65564 -1 293
Width: 372
Flags: MW
HStem: 831 66<108 136 108 136 288 315>
VStem: 108 28<831 897 831 897> 288 27<831 897 831 897>
LayerCount: 2
Back
Fore
SplineSet
108 831 m 1
 108 897 l 1
 136 897 l 1
 136 831 l 1
 108 831 l 1
288 831 m 1
 288 897 l 1
 315 897 l 1
 315 831 l 1
 288 831 l 1
EndSplineSet
EndChar
StartChar: dotaccent.cap
Encoding: 65569 -1 298
Width: 204
Flags: MW
HStem: 807 58<86 116 86 116>
VStem: 86 30<807 865 807 865>
LayerCount: 2
Back
Fore
SplineSet
86 807 m 1
 86 865 l 1
 116 865 l 1
 116 807 l 1
 86 807 l 1
EndSplineSet
EndChar
StartChar: eight.dnom
Encoding: 65590 -1 440
Width: 280
Flags: MW
HStem: -109 34<117 163 117 174.5> 45 37<122 158 122 158> 187 34<114.5 165.5>
VStem: 27 38<-37.5 3.5 -37.5 9> 32 38<122 155 122 167.5> 210 38<121.5 154.5> 215 38<-37.5 1.5>
LayerCount: 2
Back
Fore
SplineSet
140 221 m 0xec
 209 221 248 197 248 139 c 0xf4
 248 96 236 77 193 64 c 1
 233 52 253 36 253 -18 c 0
 253 -85 209 -109 140 -109 c 0
 71 -109 27 -85 27 -18 c 0xf2
 27 36 49 48 88 64 c 1
 50 78 32 96 32 139 c 0
 32 196 70 221 140 221 c 0xec
140 -75 m 0xf2
 186 -75 215 -57 215 -18 c 0
 215 21 198 35 158 45 c 1
 122 45 l 1
 84 35 65 25 65 -18 c 0
 65 -57 94 -75 140 -75 c 0xf2
140 187 m 0xec
 89 187 70 171 70 139 c 0
 70 105 84 94 122 82 c 1
 158 82 l 1
 198 93 210 105 210 138 c 0
 210 171 191 187 140 187 c 0xec
EndSplineSet
Substitution2: "'frac' Diagonal Fractions in Latin lookup 1 subtable" eightsuperior
EndChar
StartChar: eight.numr
Encoding: 65578 -1 378
Width: 280
Flags: MW
HStem: 369 34<117 163 117 174.5> 523 37<122 158 122 158> 665 34<114.5 165.5>
VStem: 27 38<440.5 481.5 440.5 487> 32 38<600 633 600 645.5> 210 38<599.5 632.5> 215 38<440.5 479.5>
LayerCount: 2
Back
Fore
SplineSet
140 699 m 0xec
 209 699 248 675 248 617 c 0xf4
 248 574 236 555 193 542 c 1
 233 530 253 514 253 460 c 0
 253 393 209 369 140 369 c 0
 71 369 27 393 27 460 c 0xf2
 27 514 49 526 88 542 c 1
 50 556 32 574 32 617 c 0
 32 674 70 699 140 699 c 0xec
140 403 m 0xf2
 186 403 215 421 215 460 c 0
 215 499 198 513 158 523 c 1
 122 523 l 1
 84 513 65 503 65 460 c 0
 65 421 94 403 140 403 c 0xf2
140 665 m 0xec
 89 665 70 649 70 617 c 0
 70 583 84 572 122 560 c 1
 158 560 l 1
 198 571 210 583 210 616 c 0
 210 649 191 665 140 665 c 0xec
EndSplineSet
Substitution2: "'frac' Diagonal Fractions in Latin lookup 1 subtable" eightsuperior
EndChar
StartChar: eight.pnum
Encoding: 65548 -1 202
Width: 491
Flags: MW
HStem: -10 32<203 287 203 298> 246 32<198 292 198 292> 477 32<203 287>
VStem: 58 35<84.5 165.5 84.5 171> 66 35<351 419.5 351 427> 390 35<351 419.5> 397 35<84.5 165.5>
LayerCount: 2
Back
Fore
SplineSet
245 509 m 0xec
 353 509 425 472 425 382 c 0xf4
 425 314 398 285 329 263 c 1
 393 241 432 215 432 127 c 0
 432 24 351 -10 245 -10 c 0
 139 -10 58 24 58 127 c 0xf2
 58 215 104 238 164 263 c 1
 105 283 66 314 66 382 c 0
 66 472 137 509 245 509 c 0xec
245 22 m 0xf2
 329 22 397 42 397 127 c 0
 397 204 357 230 292 246 c 1
 198 246 l 1
 132 230 93 204 93 127 c 0
 93 42 161 22 245 22 c 0xf2
245 477 m 0xec
 161 477 101 457 101 382 c 0
 101 320 132 297 198 278 c 1
 292 278 l 1
 363 295 390 320 390 382 c 0
 390 457 329 477 245 477 c 0xec
EndSplineSet
Substitution2: "'frac' Diagonal Fractions in Latin lookup 1 subtable" eightsuperior
EndChar
StartChar: emdash.cap
Encoding: 65552 -1 270
Width: 1142
Flags: MW
HStem: 282 34<71 1071 71 1071>
VStem: 71 1000<282 316 282 316>
LayerCount: 2
Back
Fore
SplineSet
71 316 m 1
 1071 316 l 1
 1071 282 l 1
 71 282 l 1
 71 316 l 1
EndSplineSet
Position2: "'cpsp' Capital Spacing in Latin lookup 0 subtable" dx=5 dy=0 dh=10 dv=0
EndChar
StartChar: endash.cap
Encoding: 65551 -1 269
Width: 642
Flags: MW
HStem: 282 34<71 571 71 571>
VStem: 71 500<282 316 282 316>
LayerCount: 2
Back
Fore
SplineSet
71 316 m 1
 571 316 l 1
 571 282 l 1
 71 282 l 1
 71 316 l 1
EndSplineSet
Position2: "'cpsp' Capital Spacing in Latin lookup 0 subtable" dx=5 dy=0 dh=10 dv=0
EndChar
StartChar: exclamdown.cap
Encoding: 65554 -1 282
Width: 208
Flags: MW
HStem: 0 21G<86 122 86 86> 617 83<86 122 86 122>
VStem: 87.5 33.5
LayerCount: 2
Back
Fore
SplineSet
120 489 m 1
 122 0 l 1
 86 0 l 1
 89 489 l 1
 120 489 l 1
122 700 m 1
 122 617 l 1
 86 617 l 1
 86 700 l 1
 122 700 l 1
EndSplineSet
EndChar
StartChar: five.dnom
Encoding: 65587 -1 437
Width: 280
Flags: MW
HStem: -109 35<116.5 155.5 116.5 166> 62 35<123 158> 177 35<85 225 85 85>
VStem: 46.5 35 200 39<-26 23>
LayerCount: 2
Back
Fore
SplineSet
51 212 m 1
 225 212 l 1
 225 177 l 1
 85 177 l 1
 78 75 l 1
 78 75 100 97 143 97 c 0
 194 97 239 73 239 -2 c 0
 239 -74 194 -109 138 -109 c 0
 93 -109 39 -97 39 -97 c 1
 42 -62 l 1
 42 -62 95 -74 138 -74 c 0
 173 -74 200 -50 200 -2 c 0
 200 48 173 62 143 62 c 0
 103 62 73 40 73 40 c 1
 42 42 l 1
 51 212 l 1
EndSplineSet
Substitution2: "'frac' Diagonal Fractions in Latin lookup 1 subtable" fivesuperior
EndChar
StartChar: five.numr
Encoding: 65575 -1 375
Width: 280
Flags: MW
HStem: 369 35<123.5 162.5 123.5 173> 540 35<130 165> 655 35<92 232 92 92>
VStem: 53.5 35 207 39<452 501>
LayerCount: 2
Back
Fore
SplineSet
58 690 m 1
 232 690 l 1
 232 655 l 1
 92 655 l 1
 85 553 l 1
 85 553 107 575 150 575 c 0
 201 575 246 551 246 476 c 0
 246 404 201 369 145 369 c 0
 100 369 46 381 46 381 c 1
 49 416 l 1
 49 416 102 404 145 404 c 0
 180 404 207 428 207 476 c 0
 207 526 180 540 150 540 c 0
 110 540 80 518 80 518 c 1
 49 520 l 1
 58 690 l 1
EndSplineSet
Substitution2: "'frac' Diagonal Fractions in Latin lookup 1 subtable" fivesuperior
EndChar
StartChar: five.pnum
Encoding: 65545 -1 199
Width: 452
Flags: MW
HStem: -9 21G<203 282> -9 32<204.5 274 204.5 282> 281 32<209 274> 468 32<111 376 111 111>
VStem: 72 32 367 35<115.5 210>
LayerCount: 2
Back
Fore
SplineSet
80 500 m 1x7c
 376 500 l 1
 376 468 l 1
 111 468 l 1
 97 273 l 1
 97 273 180 313 238 313 c 0
 328 313 402 273 402 164 c 0
 402 47 328 -9 236 -9 c 0x7c
 170 -9 63 9 63 9 c 1xbc
 67 41 l 1
 67 41 173 23 236 23 c 0
 312 23 367 67 367 164 c 0
 367 256 311 281 237 281 c 0
 175 281 88 238 88 238 c 1
 64 244 l 1
 80 500 l 1x7c
EndSplineSet
Substitution2: "'frac' Diagonal Fractions in Latin lookup 1 subtable" fivesuperior
EndChar
StartChar: four.dnom
Encoding: 65586 -1 436
Width: 280
Flags: MW
HStem: -43 34<79 185 79 185 221 258>
VStem: 185 36<-100 -43 -100 -43 -9 78>
LayerCount: 2
Back
Fore
SplineSet
185 -100 m 1
 185 -43 l 1
 39 -43 l 1
 39 -11 l 1
 128 212 l 1
 166 212 l 1
 79 -9 l 1
 185 -9 l 1
 185 78 l 1
 221 78 l 1
 221 -9 l 1
 258 -9 l 1
 258 -43 l 1
 221 -43 l 1
 221 -100 l 1
 185 -100 l 1
EndSplineSet
Substitution2: "'frac' Diagonal Fractions in Latin lookup 1 subtable" foursuperior
EndChar
StartChar: four.numr
Encoding: 65574 -1 374
Width: 280
Flags: MW
HStem: 435 34<71 177 71 177 213 250>
VStem: 177 36<378 435 378 435 469 556>
LayerCount: 2
Back
Fore
SplineSet
177 378 m 1
 177 435 l 1
 31 435 l 1
 31 467 l 1
 120 690 l 1
 158 690 l 1
 71 469 l 1
 177 469 l 1
 177 556 l 1
 213 556 l 1
 213 469 l 1
 250 469 l 1
 250 435 l 1
 213 435 l 1
 213 378 l 1
 177 378 l 1
EndSplineSet
Substitution2: "'frac' Diagonal Fractions in Latin lookup 1 subtable" foursuperior
EndChar
StartChar: four.pnum
Encoding: 65544 -1 198
Width: 454
Flags: MW
HStem: 101 32<78 320 78 320 355 416> 480 20G<215 251 251 251>
VStem: 320 35<-33 101 -33 101 133 280>
LayerCount: 2
Back
Fore
SplineSet
320 -33 m 1
 320 101 l 1
 39 101 l 1
 39 132 l 1
 215 500 l 1
 251 500 l 1
 78 133 l 1
 320 133 l 1
 320 280 l 1
 355 280 l 1
 355 133 l 1
 416 133 l 1
 416 101 l 1
 355 101 l 1
 355 -33 l 1
 320 -33 l 1
EndSplineSet
Substitution2: "'frac' Diagonal Fractions in Latin lookup 1 subtable" foursuperior
EndChar
StartChar: grave.cap
Encoding: 65561 -1 290
Width: 475
Flags: MW
HStem: 798 121
VStem: 143 195<822 890>
LayerCount: 2
Back
Fore
SplineSet
157 919 m 1
 338 822 l 1
 326 798 l 1
 143 890 l 1
 157 919 l 1
EndSplineSet
EndChar
StartChar: hungarumlaut.cap
Encoding: 65568 -1 297
Width: 651
Flags: MW
HStem: 765 111<311 318>
VStem: 129 371<788 853>
LayerCount: 2
Back
Fore
SplineSet
318 765 m 1
 310 789 l 1
 490 875 l 1
 500 853 l 1
 318 765 l 1
139 766 m 1
 129 788 l 1
 311 876 l 1
 320 852 l 1
 139 766 l 1
EndSplineSet
EndChar
StartChar: hyphen.cap
Encoding: 65592 -1 449
Width: 385
Flags: MW
HStem: 282 34<71 314 71 314>
VStem: 71 243<282 316 282 316>
LayerCount: 2
Back
Fore
SplineSet
71 282 m 1
 71 316 l 1
 314 316 l 1
 314 282 l 1
 71 282 l 1
EndSplineSet
EndChar
StartChar: macron.cap
Encoding: 65565 -1 294
Width: 424
Flags: MW
HStem: 835 26<75 346 75 346>
VStem: 75 271<835 861 835 861>
LayerCount: 2
Back
Fore
SplineSet
75 835 m 1
 75 861 l 1
 346 861 l 1
 346 835 l 1
 75 835 l 1
EndSplineSet
EndChar
StartChar: nine.dnom
Encoding: 65591 -1 441
Width: 280
Flags: MW
HStem: -109 34<107.5 154.5 107.5 165.5> 11 34<111 148.5 111 149> 187 34<116 163.5>
VStem: 30 38<96.5 140.5 96.5 150> 210 36<28 28 64 64>
LayerCount: 2
Back
Fore
SplineSet
44 -99 m 1
 47 -68 l 1
 47 -68 89 -75 126 -75 c 0
 183 -75 209 -41 210 28 c 1
 210 28 167 11 131 11 c 0
 69 11 30 53 30 116 c 0
 30 184 77 221 137 221 c 0
 210 221 246 169 246 53 c 0
 246 -71 205 -109 126 -109 c 0
 89 -109 44 -99 44 -99 c 1
132 45 m 0
 165 45 210 64 210 64 c 1
 208 140 190 187 137 187 c 0
 95 187 68 164 68 117 c 0
 68 76 90 45 132 45 c 0
EndSplineSet
Substitution2: "'frac' Diagonal Fractions in Latin lookup 1 subtable" ninesuperior
EndChar
StartChar: nine.numr
Encoding: 65579 -1 379
Width: 280
Flags: MW
HStem: 369 34<110.5 157.5 110.5 168.5> 489 34<114 151.5 114 152> 665 34<119 166.5>
VStem: 33 38<574.5 618.5 574.5 628> 213 36<506 506 542 542>
LayerCount: 2
Back
Fore
SplineSet
47 379 m 1
 50 410 l 1
 50 410 92 403 129 403 c 0
 186 403 212 437 213 506 c 1
 213 506 170 489 134 489 c 0
 72 489 33 531 33 594 c 0
 33 662 80 699 140 699 c 0
 213 699 249 647 249 531 c 0
 249 407 208 369 129 369 c 0
 92 369 47 379 47 379 c 1
135 523 m 0
 168 523 213 542 213 542 c 1
 211 618 193 665 140 665 c 0
 98 665 71 642 71 595 c 0
 71 554 93 523 135 523 c 0
EndSplineSet
Substitution2: "'frac' Diagonal Fractions in Latin lookup 1 subtable" ninesuperior
EndChar
StartChar: nine.pnum
Encoding: 65549 -1 203
Width: 475
Flags: MW
HStem: -10 32<187 268.5 187 306.5> 186 32<172.5 249.5> 478 31<184 276>
VStem: 50 35<299.5 388 299.5 396> 383 34<181 230 262 274.5>
LayerCount: 2
Back
Fore
SplineSet
78 5 m 1
 81 36 l 1
 81 36 155 22 219 22 c 0
 318 22 383 71 383 230 c 1
 334 207 278 186 221 186 c 0
 103 186 50 237 50 342 c 0
 50 450 112 509 235 509 c 0
 381 509 417 386 417 245 c 0
 417 117 394 -10 219 -10 c 0
 155 -10 78 5 78 5 c 1
223 218 m 0
 293 218 383 262 383 262 c 1
 383 287 381 310 378 331 c 0
 363 428 317 478 235 478 c 0
 133 478 85 434 85 342 c 0
 85 257 122 218 223 218 c 0
EndSplineSet
Substitution2: "'frac' Diagonal Fractions in Latin lookup 1 subtable" ninesuperior
EndChar
StartChar: one.dnom
Encoding: 65583 -1 433
Width: 280
Flags: MW
HStem: 173 39<160 196>
VStem: 160 36<-100 173 173 173 -100 212>
LayerCount: 2
Back
Fore
SplineSet
61 145 m 1
 160 212 l 1
 196 212 l 1
 196 -100 l 1
 160 -100 l 1
 160 173 l 1
 78 117 l 1
 61 145 l 1
EndSplineSet
Substitution2: "'frac' Diagonal Fractions in Latin lookup 1 subtable" onesuperior
EndChar
StartChar: one.numr
Encoding: 65571 -1 371
Width: 280
Flags: MW
HStem: 651 39<153 189>
VStem: 153 36<378 651 651 651 378 690>
LayerCount: 2
Back
Fore
SplineSet
54 623 m 1
 153 690 l 1
 189 690 l 1
 189 378 l 1
 153 378 l 1
 153 651 l 1
 71 595 l 1
 54 623 l 1
EndSplineSet
Substitution2: "'frac' Diagonal Fractions in Latin lookup 1 subtable" onesuperior
EndChar
StartChar: one.pnum
Encoding: 65541 -1 195
Width: 316
Flags: MW
HStem: 0 21G<204 239 204 204> 462 38<204 239>
VStem: 204 35<0 462 462 462 0 500>
LayerCount: 2
Back
Fore
SplineSet
34 391 m 1
 204 500 l 1
 239 500 l 1
 239 0 l 1
 204 0 l 1
 204 462 l 1
 51 363 l 1
 34 391 l 1
EndSplineSet
Substitution2: "'frac' Diagonal Fractions in Latin lookup 1 subtable" onesuperior
EndChar
StartChar: parenleft.cap
Encoding: 65555 -1 284
Width: 223
Flags: MW
HStem: -94 872<147 182 147 182>
VStem: 56 35<238 424 238 431>
LayerCount: 2
Back
Fore
SplineSet
147 778 m 1
 182 778 l 1
 182 778 91 517 91 331 c 0
 91 145 182 -94 182 -94 c 1
 147 -94 l 1
 147 -94 56 131 56 331 c 0
 56 531 147 778 147 778 c 1
EndSplineSet
Position2: "'cpsp' Capital Spacing in Latin lookup 0 subtable" dx=5 dy=0 dh=10 dv=0
EndChar
StartChar: parenright.cap
Encoding: 65556 -1 285
Width: 224
Flags: MW
HStem: -88 872<42 77 42 77>
VStem: 133 35<266 452>
LayerCount: 2
Back
Fore
SplineSet
77 -88 m 1
 42 -88 l 1
 42 -88 133 173 133 359 c 0
 133 545 42 784 42 784 c 1
 77 784 l 1
 77 784 168 559 168 359 c 0
 168 159 77 -88 77 -88 c 1
EndSplineSet
Position2: "'cpsp' Capital Spacing in Latin lookup 0 subtable" dx=5 dy=0 dh=10 dv=0
EndChar
StartChar: periodcentered.cap
Encoding: 65553 -1 272
Width: 180
Flags: MW
HStem: 300 83<71 109 71 109>
VStem: 71 38<300 383 300 383>
LayerCount: 2
Back
Fore
SplineSet
71 300 m 1
 71 383 l 1
 109 383 l 1
 109 300 l 1
 71 300 l 1
EndSplineSet
Position2: "'cpsp' Capital Spacing in Latin lookup 0 subtable" dx=5 dy=0 dh=10 dv=0
EndChar
StartChar: questiondown.cap
Encoding: 65550 -1 267
Width: 404
Flags: MW
HStem: -8 34<170 250 170 250> 617 83<216 254 216 254>
VStem: 41 38<100 174.5 100 178> 216 38<617 700 617 700>
LayerCount: 2
Back
Fore
SplineSet
41 150 m 0
 41 206 62 241 145 339 c 0
 188 390 216 428 216 473 c 2
 216 513 l 1
 249 513 l 1
 249 513 252 487 252 473 c 0
 252 417 227 385 172 316 c 0
 101 228 79 199 79 150 c 0
 79 50 120 26 220 26 c 0
 280 26 362 49 362 49 c 1
 367 16 l 1
 367 16 280 -8 220 -8 c 0
 100 -8 41 30 41 150 c 0
254 700 m 1
 254 617 l 1
 216 617 l 1
 216 700 l 1
 254 700 l 1
EndSplineSet
EndChar
StartChar: ring.cap
Encoding: 65567 -1 296
Width: 300
Flags: MW
HStem: 729 29<130 168 130 175.5> 877 29<130 168>
VStem: 63 25<798 836.5 798 846> 209 26<798 836.5>
LayerCount: 2
Back
Fore
SplineSet
235 817 m 0
 235 760 202 729 149 729 c 0
 94 729 63 760 63 817 c 0
 63 875 94 906 149 906 c 0
 202 906 235 875 235 817 c 0
88 817 m 0
 88 779 111 758 149 758 c 0
 187 758 209 779 209 817 c 0
 209 856 187 877 149 877 c 0
 111 877 88 856 88 817 c 0
EndSplineSet
EndChar
StartChar: seven.dnom
Encoding: 65589 -1 439
Width: 280
Flags: MW
HStem: 178 34<45 239 45 201>
VStem: 201 38<153 178 178 178>
LayerCount: 2
Back
Fore
SplineSet
45 178 m 1
 45 212 l 1
 239 212 l 1
 239 151 l 1
 127 -108 l 1
 89 -99 l 1
 201 153 l 1
 201 178 l 1
 45 178 l 1
EndSplineSet
Substitution2: "'frac' Diagonal Fractions in Latin lookup 1 subtable" sevensuperior
EndChar
StartChar: seven.numr
Encoding: 65577 -1 377
Width: 280
Flags: MW
HStem: 656 34<44 238 44 200>
VStem: 200 38<631 656 656 656>
LayerCount: 2
Back
Fore
SplineSet
44 656 m 1
 44 690 l 1
 238 690 l 1
 238 629 l 1
 126 370 l 1
 88 379 l 1
 200 631 l 1
 200 656 l 1
 44 656 l 1
EndSplineSet
Substitution2: "'frac' Diagonal Fractions in Latin lookup 1 subtable" sevensuperior
EndChar
StartChar: seven.pnum
Encoding: 65547 -1 201
Width: 392
Flags: MW
HStem: -9 21G<141 141> 469 32<39 356 39 321>
VStem: 321 35<451 469 469 469>
LayerCount: 2
Back
Fore
SplineSet
39 469 m 1
 39 501 l 1
 356 501 l 1
 356 448 l 1
 141 -9 l 1
 109 1 l 1
 321 451 l 1
 321 469 l 1
 39 469 l 1
EndSplineSet
Substitution2: "'frac' Diagonal Fractions in Latin lookup 1 subtable" sevensuperior
EndChar
StartChar: six.dnom
Encoding: 65588 -1 438
Width: 280
Flags: MW
HStem: -109 34<115 166.5 115 174> 68 34<131.5 166.5> 187 34<124.5 168.5 113 169>
VStem: 32 38 208 38<-20 26>
LayerCount: 2
Back
Fore
SplineSet
230 212 m 1
 228 180 l 1
 228 180 188 187 150 187 c 0
 99 187 72 160 71 83 c 1
 88 90 119 102 144 102 c 0
 213 102 246 65 246 1 c 0
 246 -66 207 -109 141 -109 c 0
 67 -109 32 -65 32 57 c 0
 32 180 76 221 150 221 c 0
 187 221 230 212 230 212 c 1
143 68 m 0
 119 68 90 57 70 46 c 1
 71 -31 89 -75 141 -75 c 0
 192 -75 208 -41 208 1 c 0
 208 51 190 68 143 68 c 0
EndSplineSet
Substitution2: "'frac' Diagonal Fractions in Latin lookup 1 subtable" sixsuperior
EndChar
StartChar: six.numr
Encoding: 65576 -1 376
Width: 280
Flags: MW
HStem: 369 34<117 168.5 117 176> 546 34<133.5 168.5> 665 34<126.5 170.5 115 171>
VStem: 34 38 210 38<458 504>
LayerCount: 2
Back
Fore
SplineSet
232 690 m 1
 230 658 l 1
 230 658 190 665 152 665 c 0
 101 665 74 638 73 561 c 1
 90 568 121 580 146 580 c 0
 215 580 248 543 248 479 c 0
 248 412 209 369 143 369 c 0
 69 369 34 413 34 535 c 0
 34 658 78 699 152 699 c 0
 189 699 232 690 232 690 c 1
145 546 m 0
 121 546 92 535 72 524 c 1
 73 447 91 403 143 403 c 0
 194 403 210 437 210 479 c 0
 210 529 192 546 145 546 c 0
EndSplineSet
Substitution2: "'frac' Diagonal Fractions in Latin lookup 1 subtable" sixsuperior
EndChar
StartChar: six.pnum
Encoding: 65546 -1 200
Width: 475
Flags: MW
HStem: -10 31<199 291 199 301.5> 281 32<225.5 302.5> 477 32<206.5 288>
VStem: 58 34<224.5 237 269 318> 390 35<111 199.5>
LayerCount: 2
Back
Fore
SplineSet
397 494 m 1
 394 463 l 1
 394 463 320 477 256 477 c 0
 157 477 92 428 92 269 c 1
 137 291 197 313 254 313 c 0
 373 313 425 262 425 157 c 0
 425 49 363 -10 240 -10 c 0
 94 -10 58 113 58 254 c 0
 58 382 81 509 256 509 c 0
 320 509 397 494 397 494 c 1
252 281 m 0
 182 281 92 237 92 237 c 1
 92 212 94 189 97 168 c 0
 112 71 158 21 240 21 c 0
 342 21 390 65 390 157 c 0
 390 242 353 281 252 281 c 0
EndSplineSet
Substitution2: "'frac' Diagonal Fractions in Latin lookup 1 subtable" sixsuperior
EndChar
StartChar: three.dnom
Encoding: 65585 -1 435
Width: 280
Flags: MW
HStem: -109 34<119.5 166 119 175.5> 44 34<82 147 82 147> 187 34<117 162>
VStem: 198 37<123.5 156> 207 37<-34 6>
LayerCount: 2
Back
Fore
SplineSet
41 210 m 1xe8
 41 210 94 221 139 221 c 0
 204 221 235 197 235 141 c 0xf0
 235 85 194 66 187 63 c 1
 222 53 244 40 244 -16 c 0
 244 -80 207 -109 144 -109 c 0
 95 -109 37 -98 37 -98 c 1
 40 -66 l 1
 40 -66 94 -75 144 -75 c 0
 188 -75 207 -51 207 -17 c 0
 207 29 181 44 147 44 c 2xe8
 82 44 l 1
 82 78 l 1
 147 78 l 2
 169 78 198 106 198 141 c 0
 198 171 184 187 140 187 c 0xf0
 94 187 44 178 44 178 c 1
 41 210 l 1xe8
EndSplineSet
Substitution2: "'frac' Diagonal Fractions in Latin lookup 1 subtable" threesuperior
EndChar
StartChar: three.numr
Encoding: 65573 -1 373
Width: 280
Flags: MW
HStem: 369 34<122.5 169 122 178.5> 522 34<85 150 85 150> 665 34<120 165>
VStem: 201 37<601.5 634> 210 37<444 484>
LayerCount: 2
Back
Fore
SplineSet
44 688 m 1xe8
 44 688 97 699 142 699 c 0
 207 699 238 675 238 619 c 0xf0
 238 563 197 544 190 541 c 1
 225 531 247 518 247 462 c 0
 247 398 210 369 147 369 c 0
 98 369 40 380 40 380 c 1
 43 412 l 1
 43 412 97 403 147 403 c 0
 191 403 210 427 210 461 c 0
 210 507 184 522 150 522 c 2xe8
 85 522 l 1
 85 556 l 1
 150 556 l 2
 172 556 201 584 201 619 c 0
 201 649 187 665 143 665 c 0xf0
 97 665 47 656 47 656 c 1
 44 688 l 1xe8
EndSplineSet
Substitution2: "'frac' Diagonal Fractions in Latin lookup 1 subtable" threesuperior
EndChar
StartChar: three.pnum
Encoding: 65543 -1 197
Width: 468
Flags: MW
HStem: -9 21G<200.5 298> -9 32<201.5 242 201.5 298> 250 32<126 247 126 248 126 247> 477 32<198 281>
VStem: 361 35<347.5 420.5> 376 35<96 180 87.5 180.5>
LayerCount: 2
Back
Fore
SplineSet
63 491 m 1x74
 63 491 159 509 235 509 c 0
 343 509 396 477 396 384 c 0x78
 396 300 329 273 302 267 c 1
 361 255 411 223 411 137 c 0
 411 38 354 -9 242 -9 c 0x74
 159 -9 56 9 56 9 c 1xb4
 61 41 l 1
 61 41 161 23 242 23 c 0
 332 24 376 57 376 135 c 0x74
 376 226 314 246 248 250 c 1
 126 250 l 1
 126 282 l 1
 247 282 l 2
 306 285 361 310 361 385 c 0x78
 361 456 326 477 236 477 c 0
 160 477 67 459 67 459 c 1
 63 491 l 1x74
EndSplineSet
Substitution2: "'frac' Diagonal Fractions in Latin lookup 1 subtable" threesuperior
EndChar
StartChar: tilde.cap
Encoding: 65563 -1 292
Width: 418
Flags: MW
HStem: 829 31<288 311.5 288 314> 893 30<140.5 166>
VStem: 67 312<864 886>
LayerCount: 2
Back
Fore
SplineSet
370 910 m 1
 379 886 l 1
 379 886 327 829 301 829 c 0
 261 829 181 893 151 893 c 0
 130 893 75 839 75 839 c 1
 67 864 l 1
 67 864 124 923 153 923 c 0
 194 923 273 860 303 860 c 0
 320 860 370 910 370 910 c 1
EndSplineSet
EndChar
StartChar: two.dnom
Encoding: 65584 -1 434
Width: 280
Flags: MW
HStem: -100 34<94 242 47 47> 187 34<125 158>
VStem: 199 36<117 155>
LayerCount: 2
Back
Fore
SplineSet
242 -100 m 1
 47 -100 l 1
 47 -66 l 1
 145 38 l 2
 174 69 199 97 199 137 c 0
 199 173 174 187 142 187 c 0
 108 187 52 175 52 175 c 1
 50 208 l 1
 50 208 101 221 143 221 c 0
 203 221 235 193 235 136 c 0
 235 89 209 56 170 15 c 2
 94 -66 l 1
 242 -66 l 1
 242 -100 l 1
EndSplineSet
Substitution2: "'frac' Diagonal Fractions in Latin lookup 1 subtable" twosuperior
EndChar
StartChar: two.numr
Encoding: 65572 -1 372
Width: 280
Flags: MW
HStem: 378 34<88 236 41 41> 665 34<119 152>
VStem: 193 36<595 633>
LayerCount: 2
Back
Fore
SplineSet
236 378 m 1
 41 378 l 1
 41 412 l 1
 139 516 l 2
 168 547 193 575 193 615 c 0
 193 651 168 665 136 665 c 0
 102 665 46 653 46 653 c 1
 44 686 l 1
 44 686 95 699 137 699 c 0
 197 699 229 671 229 614 c 0
 229 567 203 534 164 493 c 2
 88 412 l 1
 236 412 l 1
 236 378 l 1
EndSplineSet
Substitution2: "'frac' Diagonal Fractions in Latin lookup 1 subtable" twosuperior
EndChar
StartChar: two.pnum
Encoding: 65542 -1 196
Width: 457
Flags: MW
HStem: 0 32<100 406 55 55> 477 32<194 269.5>
VStem: 355 35<337 408.5>
LayerCount: 2
Back
Fore
SplineSet
406 0 m 1
 55 0 l 1
 55 32 l 1
 256 207 l 2
 319 262 355 304 355 370 c 0
 355 447 316 477 223 477 c 0
 165 477 58 458 58 457 c 2
 55 488 l 1
 55 488 153 509 224 509 c 0
 334 509 390 465 390 370 c 0
 390 289 348 241 290 192 c 2
 100 32 l 1
 406 32 l 1
 406 0 l 1
EndSplineSet
Substitution2: "'frac' Diagonal Fractions in Latin lookup 1 subtable" twosuperior
EndChar
StartChar: zero.dnom
Encoding: 65582 -1 432
Width: 280
Flags: MW
HStem: -109 34<116 154.5> 187 34<124.5 165.5>
VStem: 27 37<7.5 92> 215 37<21.5 101.5>
LayerCount: 2
Back
Fore
SplineSet
139 221 m 0
 209 221 252 180 252 57 c 0
 252 -14 237 -57 212 -82 c 0
 193 -101 169 -109 140 -109 c 0
 74 -109 27 -69 27 57 c 0
 27 127 42 171 67 195 c 0
 86 213 110 221 139 221 c 0
139 187 m 0
 88 187 64 149 64 57 c 0
 64 -42 92 -75 140 -75 c 0
 188 -75 215 -43 215 57 c 0
 215 146 192 187 139 187 c 0
EndSplineSet
Substitution2: "'frac' Diagonal Fractions in Latin lookup 1 subtable" zerosuperior
EndChar
StartChar: zero.numr
Encoding: 65570 -1 370
Width: 280
Flags: MW
HStem: 369 34<116 154.5> 665 34<124.5 165.5>
VStem: 27 37<485.5 570> 215 37<499.5 579.5>
LayerCount: 2
Back
Fore
SplineSet
139 699 m 0
 209 699 252 658 252 535 c 0
 252 464 237 421 212 396 c 0
 193 377 169 369 140 369 c 0
 74 369 27 409 27 535 c 0
 27 605 42 649 67 673 c 0
 86 691 110 699 139 699 c 0
139 665 m 0
 88 665 64 627 64 535 c 0
 64 436 92 403 140 403 c 0
 188 403 215 435 215 535 c 0
 215 624 192 665 139 665 c 0
EndSplineSet
Substitution2: "'frac' Diagonal Fractions in Latin lookup 1 subtable" zerosuperior
EndChar
StartChar: zero.pnum
Encoding: 65540 -1 194
Width: 515
Flags: MW
HStem: -9 32<210.5 274.5> 477 32<239 305>
VStem: 57 35<152.5 311.5> 422 35<177 337.5>
LayerCount: 2
Back
Fore
SplineSet
256 509 m 0
 376 509 457 456 457 241 c 0
 457 113 418 46 360 14 c 0
 330 -2 293 -9 256 -9 c 0
 154 -9 57 45 57 241 c 0
 57 382 100 457 162 489 c 0
 190 503 222 509 256 509 c 0
256 477 m 0
 166 477 92 432 92 241 c 0
 92 64 165 23 256 23 c 0
 353 23 422 66 422 241 c 0
 422 434 354 477 256 477 c 0
EndSplineSet
Substitution2: "'frac' Diagonal Fractions in Latin lookup 1 subtable" zerosuperior
EndChar
StartChar: zero.slash
Encoding: 65580 -1 411
Width: 560
Flags: MW
HStem: -9 34<259 362.5 259 376.5> 636 34<218.5 296>
VStem: 52 38<273.5 444.5 273.5 459> 469 38<243.5 394>
LayerCount: 2
Back
Fore
SplineSet
279 670 m 0
 317 670 351 665 381 652 c 1
 439 798 l 1
 472 786 l 1
 411 634 l 1
 472 590 507 497 507 317 c 0
 507 156 473 -9 280 -9 c 0
 233 -9 195 0 165 18 c 1
 112 -115 l 1
 80 -104 l 1
 137 39 l 1
 69 99 52 206 52 316 c 0
 52 602 145 670 279 670 c 0
469 316 m 0
 469 472 444 556 397 599 c 1
 179 52 l 1
 204 35 238 25 280 25 c 0
 445 25 469 171 469 316 c 0
279 636 m 0
 158 636 90 575 90 314 c 0
 90 233 98 135 151 76 c 1
 368 619 l 1
 343 631 313 636 279 636 c 0
EndSplineSet
EndChar
